STARTFONT 2.1
COMMENT $XFree86$
COMMENT ISO10646-1 extension by Markus Kuhn <mkuhn@acm.org>, 2001-03-20
COMMENT  (c) Copyright Bigelow & Holmes 1986, 1985. Lucida is a registered
COMMENT  trademark of Bigelow & Holmes. See LEGAL NOTICE file for terms 
COMMENT  of the license. 
FONT -B&H-Lucida-Bold-R-Normal-Sans-20-140-100-100-P-127-ISO10646-1
SIZE 14 100 100
FONTBOUNDINGBOX 39 28 -13 -8
STARTPROPERTIES 22
COMMENT Begin LogicalFontDescription
FONTNAME_REGISTRY ""
FOUNDRY "B&H"
FAMILY_NAME "Lucida"
WEIGHT_NAME "Bold"
SLANT "R"
SETWIDTH_NAME "Normal"
ADD_STYLE_NAME "Sans"
PIXEL_SIZE 20
POINT_SIZE 140
RESOLUTION_X 100
RESOLUTION_Y 100
SPACING "P"
AVERAGE_WIDTH 127
CHARSET_REGISTRY "ISO10646"
CHARSET_ENCODING "1"
COMMENT END LogicalFontDescription
FONT_ASCENT 18
FONT_DESCENT 5
DEFAULT_CHAR 0
COPYRIGHT "Copyright Bigelow & Holmes 1986, 1985."
FACE_NAME "Lucida Sans Bold"
X_HEIGHT 11
CAP_HEIGHT 14
ENDPROPERTIES
CHARS 756
STARTCHAR char0
ENCODING 0
SWIDTH 813 0
DWIDTH 16 0
BBX 13 13 2 0
BITMAP
AAA8
0000
8008
0000
8008
0000
8008
0000
8008
0000
8008
0000
AAA8
ENDCHAR
STARTCHAR space
ENCODING 32
SWIDTH 343 0
DWIDTH 7 0
BBX 1 1 0 0
BITMAP
00
ENDCHAR
STARTCHAR exclam
ENCODING 33
SWIDTH 265 0
DWIDTH 7 0
BBX 3 14 2 0
BITMAP
E0
E0
E0
E0
E0
E0
60
60
60
60
00
00
E0
E0
ENDCHAR
STARTCHAR quotedbl
ENCODING 34
SWIDTH 530 0
DWIDTH 11 0
BBX 9 6 1 8
BITMAP
F380
F380
E380
6300
6300
6300
ENDCHAR
STARTCHAR numbersign
ENCODING 35
SWIDTH 687 0
DWIDTH 14 0
BBX 13 14 0 0
BITMAP
0670
0660
0C60
7FF8
7FF8
1CC0
18C0
19C0
FFF0
FFF0
3180
3380
3300
7300
ENDCHAR
STARTCHAR dollar
ENCODING 36
SWIDTH 687 0
DWIDTH 14 0
BBX 10 21 2 -3
BITMAP
0C00
0C00
0C00
0C00
3F80
7F80
7480
F400
FC00
7C00
3F00
1F80
0F80
0BC0
09C0
CBC0
FF80
FF00
0C00
0C00
0C00
ENDCHAR
STARTCHAR percent
ENCODING 37
SWIDTH 898 0
DWIDTH 18 0
BBX 17 14 0 0
BITMAP
380E00
7C0C00
CE1800
C63800
C67000
CEE000
7CC000
398000
039F00
073F80
0E3180
0C3180
183F80
381F00
ENDCHAR
STARTCHAR ampersand
ENCODING 38
SWIDTH 792 0
DWIDTH 16 0
BBX 15 14 0 0
BITMAP
07C0
1FE0
1C30
1C30
1EE0
0FC0
3F06
7F8E
E3CC
E1DC
E1F8
F0F0
7FF8
1FBC
ENDCHAR
STARTCHAR quotesingle
ENCODING 39
SWIDTH 265 0
DWIDTH 5 0
BBX 4 6 1 8
BITMAP
F0
F0
F0
60
60
60
ENDCHAR
STARTCHAR parenleft
ENCODING 40
SWIDTH 386 0
DWIDTH 8 0
BBX 5 18 1 -4
BITMAP
08
18
38
70
70
60
E0
E0
E0
E0
E0
E0
60
70
70
38
18
08
ENDCHAR
STARTCHAR parenright
ENCODING 41
SWIDTH 386 0
DWIDTH 8 0
BBX 5 18 2 -4
BITMAP
80
C0
E0
70
70
30
38
38
38
38
38
38
30
70
70
E0
C0
80
ENDCHAR
STARTCHAR asterisk
ENCODING 42
SWIDTH 464 0
DWIDTH 9 0
BBX 8 6 1 8
BITMAP
18
5A
E7
14
7E
24
ENDCHAR
STARTCHAR plus
ENCODING 43
SWIDTH 687 0
DWIDTH 14 0
BBX 12 12 1 0
BITMAP
0600
0600
0600
0600
0600
FFF0
FFF0
0600
0600
0600
0600
0600
ENDCHAR
STARTCHAR comma
ENCODING 44
SWIDTH 343 0
DWIDTH 7 0
BBX 4 7 1 -3
BITMAP
F0
F0
F0
F0
70
60
C0
ENDCHAR
STARTCHAR hyphen
ENCODING 45
SWIDTH 289 0
DWIDTH 6 0
BBX 4 2 1 6
BITMAP
F0
F0
ENDCHAR
STARTCHAR period
ENCODING 46
SWIDTH 343 0
DWIDTH 7 0
BBX 4 3 1 0
BITMAP
F0
F0
F0
ENDCHAR
STARTCHAR slash
ENCODING 47
SWIDTH 596 0
DWIDTH 12 0
BBX 12 17 0 -3
BITMAP
0070
0060
00C0
00C0
0180
0380
0300
0700
0600
0E00
0C00
1C00
1800
3000
3000
6000
E000
ENDCHAR
STARTCHAR zero
ENCODING 48
SWIDTH 687 0
DWIDTH 14 0
BBX 12 14 1 0
BITMAP
0F00
3FC0
70E0
6060
E070
E070
E070
E070
E070
E070
6060
70E0
3FC0
0F00
ENDCHAR
STARTCHAR one
ENCODING 49
SWIDTH 687 0
DWIDTH 14 0
BBX 5 14 4 0
BITMAP
F8
F8
38
38
38
38
38
38
38
38
38
38
38
38
ENDCHAR
STARTCHAR two
ENCODING 50
SWIDTH 687 0
DWIDTH 14 0
BBX 11 14 1 0
BITMAP
7F00
FFC0
C1E0
00E0
00E0
00E0
01C0
0380
0F00
1E00
7800
F800
FFE0
FFE0
ENDCHAR
STARTCHAR three
ENCODING 51
SWIDTH 687 0
DWIDTH 14 0
BBX 10 14 2 0
BITMAP
7F00
FF80
83C0
01C0
01C0
0380
7E00
7F00
0380
01C0
01C0
83C0
FF80
FF00
ENDCHAR
STARTCHAR four
ENCODING 52
SWIDTH 687 0
DWIDTH 14 0
BBX 11 14 1 0
BITMAP
03C0
03C0
07C0
0DC0
1DC0
39C0
71C0
E1C0
FFE0
FFE0
01C0
01C0
01C0
01C0
ENDCHAR
STARTCHAR five
ENCODING 53
SWIDTH 687 0
DWIDTH 14 0
BBX 10 14 2 0
BITMAP
FFC0
FFC0
C000
C000
C000
FC00
FF00
0780
01C0
01C0
01C0
83C0
FF80
FE00
ENDCHAR
STARTCHAR six
ENCODING 54
SWIDTH 687 0
DWIDTH 14 0
BBX 12 14 1 0
BITMAP
0FE0
3FE0
7820
7000
E000
EF80
FFE0
F0F0
E070
E070
6070
70E0
3FE0
0F80
ENDCHAR
STARTCHAR seven
ENCODING 55
SWIDTH 687 0
DWIDTH 14 0
BBX 10 14 3 0
BITMAP
FFC0
FFC0
01C0
0380
0300
0700
0E00
1C00
1C00
3800
3800
7800
7000
F000
ENDCHAR
STARTCHAR eight
ENCODING 56
SWIDTH 687 0
DWIDTH 14 0
BBX 12 14 1 0
BITMAP
1F80
3FC0
71E0
70E0
78E0
3FC0
1F80
3FE0
61F0
E0F0
E070
F0F0
7FE0
1F80
ENDCHAR
STARTCHAR nine
ENCODING 57
SWIDTH 687 0
DWIDTH 14 0
BBX 12 14 1 0
BITMAP
1F80
7FC0
70E0
E060
E070
E070
F0F0
7FF0
1F70
0070
00E0
41E0
7FC0
7F00
ENDCHAR
STARTCHAR colon
ENCODING 58
SWIDTH 343 0
DWIDTH 7 0
BBX 3 11 2 0
BITMAP
E0
E0
E0
00
00
00
00
00
E0
E0
E0
ENDCHAR
STARTCHAR semicolon
ENCODING 59
SWIDTH 343 0
DWIDTH 7 0
BBX 3 14 2 -3
BITMAP
E0
E0
E0
00
00
00
00
E0
E0
E0
E0
60
40
C0
ENDCHAR
STARTCHAR less
ENCODING 60
SWIDTH 687 0
DWIDTH 14 0
BBX 12 12 1 0
BITMAP
0010
0070
01F0
07C0
1F00
FC00
7C00
1F00
07C0
01F0
0070
0010
ENDCHAR
STARTCHAR equal
ENCODING 61
SWIDTH 687 0
DWIDTH 14 0
BBX 12 8 1 2
BITMAP
FFF0
FFF0
0000
0000
0000
0000
FFF0
FFF0
ENDCHAR
STARTCHAR greater
ENCODING 62
SWIDTH 687 0
DWIDTH 14 0
BBX 12 12 1 0
BITMAP
8000
E000
F800
3E00
0F80
03E0
03F0
0F80
3E00
F800
E000
8000
ENDCHAR
STARTCHAR question
ENCODING 63
SWIDTH 572 0
DWIDTH 11 0
BBX 10 14 1 0
BITMAP
FF00
FF80
83C0
01C0
01C0
0300
0600
0C00
3800
3800
0000
0000
3800
3800
ENDCHAR
STARTCHAR at
ENCODING 64
SWIDTH 833 0
DWIDTH 17 0
BBX 16 14 2 0
BITMAP
03F0
0E0C
1802
21F3
6671
4C71
8871
98E1
99A2
9F64
8E78
4000
3040
0FC0
ENDCHAR
STARTCHAR A
ENCODING 65
SWIDTH 773 0
DWIDTH 15 0
BBX 15 14 0 0
BITMAP
0780
07C0
07C0
0DE0
0CE0
0CE0
1870
1870
3FF8
3FF8
3038
603C
601C
E01E
ENDCHAR
STARTCHAR B
ENCODING 66
SWIDTH 669 0
DWIDTH 13 0
BBX 10 14 2 0
BITMAP
FF00
FF00
E380
E380
E380
E700
FC00
FF00
E3C0
E1C0
E1C0
E1C0
FF80
FF00
ENDCHAR
STARTCHAR C
ENCODING 67
SWIDTH 726 0
DWIDTH 15 0
BBX 13 14 1 0
BITMAP
07F8
1FF8
7C18
7000
F000
E000
E000
E000
E000
F000
7000
7C08
1FF8
0FF0
ENDCHAR
STARTCHAR D
ENCODING 68
SWIDTH 819 0
DWIDTH 16 0
BBX 14 14 2 0
BITMAP
FFC0
FFF0
E0F8
E038
E03C
E01C
E01C
E01C
E01C
E01C
E038
E078
FFF0
FFC0
ENDCHAR
STARTCHAR E
ENCODING 69
SWIDTH 645 0
DWIDTH 13 0
BBX 10 14 2 0
BITMAP
FFC0
FFC0
E000
E000
E000
E000
FF00
FF00
E000
E000
E000
E000
FFC0
FFC0
ENDCHAR
STARTCHAR F
ENCODING 70
SWIDTH 602 0
DWIDTH 12 0
BBX 9 14 2 0
BITMAP
FF80
FF80
E000
E000
E000
E000
FF00
FF00
E000
E000
E000
E000
E000
E000
ENDCHAR
STARTCHAR G
ENCODING 71
SWIDTH 759 0
DWIDTH 15 0
BBX 13 14 1 0
BITMAP
07F8
1FF8
3C18
7000
F000
E000
E000
E038
E038
F038
7038
7C38
1FF8
07F0
ENDCHAR
STARTCHAR H
ENCODING 72
SWIDTH 813 0
DWIDTH 16 0
BBX 13 14 2 0
BITMAP
E038
E038
E038
E038
E038
E038
FFF8
FFF8
E038
E038
E038
E038
E038
E038
ENDCHAR
STARTCHAR I
ENCODING 73
SWIDTH 361 0
DWIDTH 7 0
BBX 3 14 2 0
BITMAP
E0
E0
E0
E0
E0
E0
E0
E0
E0
E0
E0
E0
E0
E0
ENDCHAR
STARTCHAR J
ENCODING 74
SWIDTH 501 0
DWIDTH 10 0
BBX 7 17 1 -3
BITMAP
0E
0E
0E
0E
0E
0E
0E
0E
0E
0E
0E
0E
0E
0E
8E
FC
F8
ENDCHAR
STARTCHAR K
ENCODING 75
SWIDTH 753 0
DWIDTH 15 0
BBX 13 14 2 0
BITMAP
E0F0
E0C0
E180
E380
E700
EE00
FC00
EE00
EF00
E780
E3C0
E1C0
E1E0
E0F8
ENDCHAR
STARTCHAR L
ENCODING 76
SWIDTH 620 0
DWIDTH 12 0
BBX 10 14 2 0
BITMAP
E000
E000
E000
E000
E000
E000
E000
E000
E000
E000
E000
E000
FFC0
FFC0
ENDCHAR
STARTCHAR M
ENCODING 77
SWIDTH 940 0
DWIDTH 19 0
BBX 15 14 2 0
BITMAP
F81E
F83E
F83E
FC3E
DC7E
DC6E
DE6E
CEEE
CECE
CFCE
C78E
C78E
C38E
C00E
ENDCHAR
STARTCHAR N
ENCODING 78
SWIDTH 783 0
DWIDTH 16 0
BBX 12 14 2 0
BITMAP
E030
F030
F030
F830
FC30
DE30
CE30
C730
C7B0
C3F0
C1F0
C0F0
C0F0
C070
ENDCHAR
STARTCHAR O
ENCODING 79
SWIDTH 855 0
DWIDTH 17 0
BBX 16 14 1 0
BITMAP
07E0
1FF8
3C3C
700E
F00F
E007
E007
E007
E007
F00F
700E
3C3C
1FF8
07E0
ENDCHAR
STARTCHAR P
ENCODING 80
SWIDTH 657 0
DWIDTH 13 0
BBX 10 14 2 0
BITMAP
FF00
FFC0
E3C0
E1C0
E1C0
E1C0
E380
FF80
FE00
E000
E000
E000
E000
E000
ENDCHAR
STARTCHAR Q
ENCODING 81
SWIDTH 855 0
DWIDTH 17 0
BBX 18 18 1 -4
BITMAP
07E000
1FF800
3C3C00
700E00
F00F00
E00700
E00700
E00700
E00700
F00F00
700E00
7C3E00
1FFC00
07F800
007FC0
003F80
000F80
000300
ENDCHAR
STARTCHAR R
ENCODING 82
SWIDTH 734 0
DWIDTH 15 0
BBX 13 14 2 0
BITMAP
FF80
FFC0
E0E0
E0E0
E0E0
E1C0
FF80
FF00
E700
E380
E3C0
E1E0
E1E0
E0F8
ENDCHAR
STARTCHAR S
ENCODING 83
SWIDTH 594 0
DWIDTH 12 0
BBX 11 14 1 0
BITMAP
1FC0
7FC0
F040
F000
F800
7E00
3F00
1FC0
03E0
00E0
00E0
C1E0
FFC0
FF00
ENDCHAR
STARTCHAR T
ENCODING 84
SWIDTH 735 0
DWIDTH 15 0
BBX 13 14 1 0
BITMAP
FFF8
FFF8
0700
0700
0700
0700
0700
0700
0700
0700
0700
0700
0700
0700
ENDCHAR
STARTCHAR U
ENCODING 85
SWIDTH 783 0
DWIDTH 16 0
BBX 12 14 2 0
BITMAP
E070
E070
E070
E070
E070
E070
E070
E070
E070
E070
E070
70E0
7FE0
1F80
ENDCHAR
STARTCHAR V
ENCODING 86
SWIDTH 735 0
DWIDTH 15 0
BBX 14 14 0 0
BITMAP
F00C
7018
7818
3838
3830
3C30
1C60
1C60
0E60
0EC0
0EC0
07C0
0780
0780
ENDCHAR
STARTCHAR W
ENCODING 87
SWIDTH 940 0
DWIDTH 19 0
BBX 18 14 0 0
BITMAP
E0E0C0
70E180
70E180
71F180
71F180
39F300
39F300
3B3B00
3B3B00
1F3E00
1F3E00
1F3E00
1E1E00
0E1C00
ENDCHAR
STARTCHAR X
ENCODING 88
SWIDTH 699 0
DWIDTH 14 0
BBX 13 14 1 0
BITMAP
7038
3870
3CE0
1CC0
1FC0
0F80
0F00
0780
0F80
1FC0
19C0
30E0
70F0
E078
ENDCHAR
STARTCHAR Y
ENCODING 89
SWIDTH 738 0
DWIDTH 15 0
BBX 13 14 1 0
BITMAP
F038
7830
3860
3CE0
1CC0
0FC0
0F80
0700
0700
0700
0700
0700
0700
0700
ENDCHAR
STARTCHAR Z
ENCODING 90
SWIDTH 675 0
DWIDTH 13 0
BBX 11 14 1 0
BITMAP
FFE0
FFE0
01C0
03C0
0780
0700
0F00
1E00
1C00
3C00
7800
7000
FFE0
FFE0
ENDCHAR
STARTCHAR bracketleft
ENCODING 91
SWIDTH 386 0
DWIDTH 8 0
BBX 5 17 2 -3
BITMAP
F8
F8
E0
E0
E0
E0
E0
E0
E0
E0
E0
E0
E0
E0
E0
F8
F8
ENDCHAR
STARTCHAR backslash
ENCODING 92
SWIDTH 596 0
DWIDTH 12 0
BBX 12 17 0 -3
BITMAP
E000
6000
3000
3000
1800
1C00
0C00
0E00
0600
0700
0300
0380
0180
00C0
00C0
0060
0070
ENDCHAR
STARTCHAR bracketright
ENCODING 93
SWIDTH 386 0
DWIDTH 8 0
BBX 5 17 1 -3
BITMAP
F8
F8
38
38
38
38
38
38
38
38
38
38
38
38
38
F8
F8
ENDCHAR
STARTCHAR asciicircum
ENCODING 94
SWIDTH 687 0
DWIDTH 14 0
BBX 12 12 1 2
BITMAP
0200
0600
0600
0F00
0F00
1F80
1980
39C0
30C0
70E0
6060
E070
ENDCHAR
STARTCHAR underscore
ENCODING 95
SWIDTH 500 0
DWIDTH 10 0
BBX 9 2 1 -3
BITMAP
FF80
FF80
ENDCHAR
STARTCHAR grave
ENCODING 96
SWIDTH 675 0
DWIDTH 13 0
BBX 5 2 4 12
BITMAP
E0
38
ENDCHAR
STARTCHAR a
ENCODING 97
SWIDTH 623 0
DWIDTH 12 0
BBX 11 11 1 0
BITMAP
3F00
7F80
41C0
01C0
3FC0
7FC0
F1C0
E1C0
E3C0
FFE0
79E0
ENDCHAR
STARTCHAR b
ENCODING 98
SWIDTH 696 0
DWIDTH 14 0
BBX 12 14 1 0
BITMAP
E000
E000
E000
E780
EFE0
F0E0
E070
E070
E070
E070
E0F0
F0E0
FFE0
E780
ENDCHAR
STARTCHAR c
ENCODING 99
SWIDTH 545 0
DWIDTH 11 0
BBX 8 11 2 0
BITMAP
1F
7F
71
E0
E0
E0
E0
E0
70
7F
1F
ENDCHAR
STARTCHAR d
ENCODING 100
SWIDTH 696 0
DWIDTH 14 0
BBX 12 14 0 0
BITMAP
0070
0070
0070
1F70
7FF0
70F0
F070
E070
E070
E070
E070
70F0
7F70
3E70
ENDCHAR
STARTCHAR e
ENCODING 101
SWIDTH 614 0
DWIDTH 12 0
BBX 11 11 0 0
BITMAP
1F00
3FC0
79C0
F0E0
E0E0
FFE0
FFE0
F000
7820
3FE0
1FC0
ENDCHAR
STARTCHAR f
ENCODING 102
SWIDTH 461 0
DWIDTH 9 0
BBX 8 14 1 0
BITMAP
3F
7F
70
FE
FE
70
70
70
70
70
70
70
70
70
ENDCHAR
STARTCHAR g
ENCODING 103
SWIDTH 696 0
DWIDTH 14 0
BBX 12 15 0 -4
BITMAP
1EF0
7FF0
70F0
F070
E070
E070
E070
E070
70F0
7F70
1E70
00F0
41F0
7FE0
3F80
ENDCHAR
STARTCHAR h
ENCODING 104
SWIDTH 693 0
DWIDTH 14 0
BBX 11 14 1 0
BITMAP
E000
E000
E000
E780
EFC0
F0E0
E0E0
E0E0
E0E0
E0E0
E0E0
E0E0
E0E0
E0E0
ENDCHAR
STARTCHAR i
ENCODING 105
SWIDTH 361 0
DWIDTH 7 0
BBX 3 14 2 0
BITMAP
E0
E0
00
E0
E0
E0
E0
E0
E0
E0
E0
E0
E0
E0
ENDCHAR
STARTCHAR j
ENCODING 106
SWIDTH 361 0
DWIDTH 7 0
BBX 7 18 -1 -4
BITMAP
0E
0E
00
0E
0E
0E
0E
0E
0E
0E
0E
0E
0E
0E
0E
8E
FE
FC
ENDCHAR
STARTCHAR k
ENCODING 107
SWIDTH 681 0
DWIDTH 14 0
BBX 11 14 2 0
BITMAP
E000
E000
E000
E1C0
E380
E700
E600
EC00
FE00
EE00
E700
E780
E3C0
E3E0
ENDCHAR
STARTCHAR l
ENCODING 108
SWIDTH 361 0
DWIDTH 7 0
BBX 3 14 2 0
BITMAP
E0
E0
E0
E0
E0
E0
E0
E0
E0
E0
E0
E0
E0
E0
ENDCHAR
STARTCHAR m
ENCODING 109
SWIDTH 1006 0
DWIDTH 20 0
BBX 17 11 2 0
BITMAP
E78F00
EFDF80
F1E380
E1C380
E1C380
E1C380
E1C380
E1C380
E1C380
E1C380
E1C380
ENDCHAR
STARTCHAR n
ENCODING 110
SWIDTH 693 0
DWIDTH 14 0
BBX 11 11 1 0
BITMAP
E780
FFC0
F0E0
E0E0
E0E0
E0E0
E0E0
E0E0
E0E0
E0E0
E0E0
ENDCHAR
STARTCHAR o
ENCODING 111
SWIDTH 675 0
DWIDTH 13 0
BBX 12 11 1 0
BITMAP
1F80
3FC0
70E0
E070
E070
E070
E070
E070
70E0
3FC0
1F80
ENDCHAR
STARTCHAR p
ENCODING 112
SWIDTH 696 0
DWIDTH 14 0
BBX 12 15 1 -4
BITMAP
E7C0
EFE0
F0E0
E070
E070
E070
E070
E0F0
F0E0
FFE0
EF80
E000
E000
E000
E000
ENDCHAR
STARTCHAR q
ENCODING 113
SWIDTH 696 0
DWIDTH 14 0
BBX 12 15 0 -4
BITMAP
1EF0
7FF0
70F0
F070
E070
E070
E070
E070
70F0
7F70
1E70
0070
0070
0070
0070
ENDCHAR
STARTCHAR r
ENCODING 114
SWIDTH 500 0
DWIDTH 10 0
BBX 7 11 2 0
BITMAP
E6
FE
FE
F0
E0
E0
E0
E0
E0
E0
E0
ENDCHAR
STARTCHAR s
ENCODING 115
SWIDTH 622 0
DWIDTH 12 0
BBX 10 11 1 0
BITMAP
3F80
7F80
F080
F000
FE00
7F80
1FC0
07C0
83C0
FF80
FF00
ENDCHAR
STARTCHAR t
ENCODING 116
SWIDTH 436 0
DWIDTH 9 0
BBX 6 13 1 0
BITMAP
70
70
FC
FC
70
70
70
70
70
70
74
7C
3C
ENDCHAR
STARTCHAR u
ENCODING 117
SWIDTH 693 0
DWIDTH 14 0
BBX 11 11 1 0
BITMAP
E0E0
E0E0
E0E0
E0E0
E0E0
E0E0
E0E0
E0E0
E1E0
7FE0
3CE0
ENDCHAR
STARTCHAR v
ENCODING 118
SWIDTH 663 0
DWIDTH 13 0
BBX 12 11 1 0
BITMAP
F070
7060
7860
38E0
38C0
1CC0
1D80
1D80
0F80
0F00
0F00
ENDCHAR
STARTCHAR w
ENCODING 119
SWIDTH 885 0
DWIDTH 18 0
BBX 17 11 0 0
BITMAP
E1E180
71E300
71E300
73F300
737600
3B7600
3B7600
3E7E00
3E3C00
1E3C00
1C3C00
ENDCHAR
STARTCHAR x
ENCODING 120
SWIDTH 568 0
DWIDTH 11 0
BBX 11 11 0 0
BITMAP
F8C0
79C0
3D80
3F00
1F00
1F00
1F00
1F80
37C0
73C0
E3E0
ENDCHAR
STARTCHAR y
ENCODING 121
SWIDTH 645 0
DWIDTH 13 0
BBX 12 15 0 -4
BITMAP
F070
7060
78E0
38C0
38C0
3D80
1D80
1F00
0F00
0E00
0E00
0E00
1C00
3C00
7800
ENDCHAR
STARTCHAR z
ENCODING 122
SWIDTH 608 0
DWIDTH 12 0
BBX 10 11 1 0
BITMAP
FFC0
FFC0
0780
0700
0F00
1E00
3C00
7800
F000
FFC0
FFC0
ENDCHAR
STARTCHAR braceleft
ENCODING 123
SWIDTH 386 0
DWIDTH 8 0
BBX 6 17 1 -3
BITMAP
1C
3C
38
38
3C
1C
1C
18
E0
F8
1C
1C
1C
38
38
3C
1C
ENDCHAR
STARTCHAR bar
ENCODING 124
SWIDTH 265 0
DWIDTH 5 0
BBX 2 17 2 -3
BITMAP
C0
C0
C0
C0
C0
C0
C0
C0
C0
C0
C0
C0
C0
C0
C0
C0
C0
ENDCHAR
STARTCHAR braceright
ENCODING 125
SWIDTH 386 0
DWIDTH 8 0
BBX 6 17 1 -3
BITMAP
C0
E0
E0
E0
E0
E0
E0
60
1C
7C
E0
E0
E0
E0
E0
E0
C0
ENDCHAR
STARTCHAR asciitilde
ENCODING 126
SWIDTH 687 0
DWIDTH 14 0
BBX 12 5 1 3
BITMAP
7830
7C30
CF30
C3E0
C1E0
ENDCHAR
STARTCHAR space
ENCODING 160
SWIDTH 343 0
DWIDTH 7 0
BBX 1 1 0 0
BITMAP
00
ENDCHAR
STARTCHAR exclamdown
ENCODING 161
SWIDTH 265 0
DWIDTH 7 0
BBX 3 15 2 -4
BITMAP
E0
E0
00
00
60
60
60
60
E0
E0
E0
E0
E0
E0
E0
ENDCHAR
STARTCHAR cent
ENCODING 162
SWIDTH 687 0
DWIDTH 14 0
BBX 9 14 2 0
BITMAP
0C00
0C00
3F80
7F80
F000
E000
E000
E000
E000
F000
7F80
3F80
0C00
0C00
ENDCHAR
STARTCHAR sterling
ENCODING 163
SWIDTH 687 0
DWIDTH 14 0
BBX 9 14 3 0
BITMAP
0F80
1F80
3800
3800
3800
3800
FE00
FE00
3800
3800
3000
7000
FF80
FF80
ENDCHAR
STARTCHAR currency
ENCODING 164
SWIDTH 687 0
DWIDTH 14 0
BBX 14 14 0 0
BITMAP
4008
E01C
77B8
3FF0
1CE0
1860
1860
1860
1CE0
1FE0
3FF0
7038
E01C
4008
ENDCHAR
STARTCHAR yen
ENCODING 165
SWIDTH 687 0
DWIDTH 14 0
BBX 13 14 0 0
BITMAP
F038
7870
3C60
1EC0
1FC0
0F80
3FE0
3FE0
0E00
3FE0
3FE0
0E00
0E00
0E00
ENDCHAR
STARTCHAR brokenbar
ENCODING 166
SWIDTH 265 0
DWIDTH 5 0
BBX 2 17 2 -3
BITMAP
C0
C0
C0
C0
C0
C0
C0
00
00
00
C0
C0
C0
C0
C0
C0
C0
ENDCHAR
STARTCHAR section
ENCODING 167
SWIDTH 693 0
DWIDTH 14 0
BBX 10 18 2 -4
BITMAP
3F80
7F80
F080
F000
F800
7F00
7F80
C7C0
C1C0
E0C0
FC80
7F80
1F80
07C0
03C0
C3C0
FF80
FF00
ENDCHAR
STARTCHAR dieresis
ENCODING 168
SWIDTH 675 0
DWIDTH 13 0
BBX 7 2 3 12
BITMAP
EE
EE
ENDCHAR
STARTCHAR copyright
ENCODING 169
SWIDTH 825 0
DWIDTH 16 0
BBX 15 14 1 0
BITMAP
07C0
1830
2008
47E4
4C24
9802
9802
9802
9802
4C04
47E4
2008
1830
07C0
ENDCHAR
STARTCHAR ordfeminine
ENCODING 170
SWIDTH 536 0
DWIDTH 11 0
BBX 10 7 0 7
BITMAP
7F00
FF80
C380
7F80
E380
FFC0
7BC0
ENDCHAR
STARTCHAR guillemotleft
ENCODING 171
SWIDTH 614 0
DWIDTH 12 0
BBX 11 9 1 1
BITMAP
0840
1CE0
39C0
7380
E700
7380
39C0
1CE0
0840
ENDCHAR
STARTCHAR logicalnot
ENCODING 172
SWIDTH 687 0
DWIDTH 14 0
BBX 12 8 1 2
BITMAP
FFF0
FFF0
0030
0030
0030
0030
0030
0030
ENDCHAR
STARTCHAR hyphen
ENCODING 173
SWIDTH 289 0
DWIDTH 6 0
BBX 4 2 1 6
BITMAP
F0
F0
ENDCHAR
STARTCHAR registered
ENCODING 174
SWIDTH 687 0
DWIDTH 14 0
BBX 11 10 1 4
BITMAP
1F00
2080
4040
8020
9F20
9F20
9E20
5B40
2080
1F00
ENDCHAR
STARTCHAR macron
ENCODING 175
SWIDTH 675 0
DWIDTH 13 0
BBX 7 2 3 12
BITMAP
FE
FE
ENDCHAR
STARTCHAR degree
ENCODING 176
SWIDTH 241 0
DWIDTH 5 0
BBX 3 3 1 11
BITMAP
E0
A0
E0
ENDCHAR
STARTCHAR plusminus
ENCODING 177
SWIDTH 687 0
DWIDTH 14 0
BBX 12 12 1 0
BITMAP
0600
0600
0600
FFF0
FFF0
0600
0600
0600
0600
0000
FFF0
FFF0
ENDCHAR
STARTCHAR twosuperior
ENCODING 178
SWIDTH 536 0
DWIDTH 8 0
BBX 6 9 -12 5
BITMAP
F8
8C
0C
0C
18
30
60
E0
FC
ENDCHAR
STARTCHAR threesuperior
ENCODING 179
SWIDTH 536 0
DWIDTH 8 0
BBX 6 9 -13 5
BITMAP
F8
0C
0C
08
78
1C
0C
8C
F8
ENDCHAR
STARTCHAR acute
ENCODING 180
SWIDTH 675 0
DWIDTH 13 0
BBX 5 2 5 12
BITMAP
38
E0
ENDCHAR
STARTCHAR mu
ENCODING 181
SWIDTH 699 0
DWIDTH 14 0
BBX 11 14 1 -3
BITMAP
E0E0
E0E0
E0E0
E0E0
E0E0
E0E0
E0E0
E0E0
E1E0
FEE0
FCE0
E000
E000
E000
ENDCHAR
STARTCHAR paragraph
ENCODING 182
SWIDTH 693 0
DWIDTH 14 0
BBX 9 17 1 -3
BITMAP
7F80
FD80
FD80
FD80
FD80
7D80
3D80
0D80
0D80
0D80
0D80
0D80
0D80
0D80
0D80
0D80
0D80
ENDCHAR
STARTCHAR periodcentered
ENCODING 183
SWIDTH 343 0
DWIDTH 14 0
BBX 3 2 5 6
BITMAP
E0
E0
ENDCHAR
STARTCHAR cedilla
ENCODING 184
SWIDTH 675 0
DWIDTH 13 0
BBX 4 5 5 -4
BITMAP
60
C0
20
B0
F0
ENDCHAR
STARTCHAR onesuperior
ENCODING 185
SWIDTH 536 0
DWIDTH 8 0
BBX 3 9 -13 5
BITMAP
E0
60
60
60
60
60
60
60
60
ENDCHAR
STARTCHAR ordmasculine
ENCODING 186
SWIDTH 536 0
DWIDTH 11 0
BBX 10 7 0 7
BITMAP
3F00
7F80
F3C0
E1C0
F3C0
7F80
3F00
ENDCHAR
STARTCHAR guillemotright
ENCODING 187
SWIDTH 614 0
DWIDTH 12 0
BBX 11 9 1 1
BITMAP
4200
E700
7380
39C0
1CE0
39C0
7380
E700
4200
ENDCHAR
STARTCHAR onequarter
ENCODING 188
SWIDTH 1066 0
DWIDTH 18 0
BBX 16 14 6 0
BITMAP
701C
3038
3070
30E0
30C0
3186
338E
3716
3616
0C26
1C66
387F
7006
E006
ENDCHAR
STARTCHAR onehalf
ENCODING 189
SWIDTH 1066 0
DWIDTH 18 0
BBX 15 14 6 0
BITMAP
701C
3038
3070
30E0
30C0
31FC
33C6
3706
3606
0C0C
1C18
3830
7070
E07E
ENDCHAR
STARTCHAR threequarters
ENCODING 190
SWIDTH 1120 0
DWIDTH 18 0
BBX 16 14 6 0
BITMAP
F81C
0C38
0C70
08E0
78C0
1D86
0F8E
8F16
FE16
0C26
1C66
387F
7006
E006
ENDCHAR
STARTCHAR questiondown
ENCODING 191
SWIDTH 572 0
DWIDTH 11 0
BBX 10 15 1 -4
BITMAP
0700
0700
0000
0000
0000
0700
0600
0C00
3800
7000
E000
E000
F040
7FC0
3FC0
ENDCHAR
STARTCHAR Agrave
ENCODING 192
SWIDTH 773 0
DWIDTH 15 0
BBX 15 17 0 0
BITMAP
0700
01C0
0000
0780
07C0
07C0
0DE0
0CE0
0CE0
1870
1870
3FF8
3FF8
3038
603C
601C
E01E
ENDCHAR
STARTCHAR Aacute
ENCODING 193
SWIDTH 773 0
DWIDTH 15 0
BBX 15 17 0 0
BITMAP
00E0
0380
0000
0780
07C0
07C0
0DE0
0CE0
0CE0
1870
1870
3FF8
3FF8
3038
603C
601C
E01E
ENDCHAR
STARTCHAR Acircumflex
ENCODING 194
SWIDTH 773 0
DWIDTH 15 0
BBX 15 17 0 0
BITMAP
0380
0EE0
0000
0780
07C0
07C0
0DE0
0CE0
0CE0
1870
1870
3FF8
3FF8
3038
603C
601C
E01E
ENDCHAR
STARTCHAR Atilde
ENCODING 195
SWIDTH 773 0
DWIDTH 15 0
BBX 15 17 0 0
BITMAP
07E0
0FC0
0000
0780
07C0
07C0
0DE0
0CE0
0CE0
1870
1870
3FF8
3FF8
3038
603C
601C
E01E
ENDCHAR
STARTCHAR Adieresis
ENCODING 196
SWIDTH 773 0
DWIDTH 15 0
BBX 15 17 0 0
BITMAP
0EE0
0EE0
0000
0780
07C0
07C0
0DE0
0CE0
0CE0
1870
1870
3FF8
3FF8
3038
603C
601C
E01E
ENDCHAR
STARTCHAR Aring
ENCODING 197
SWIDTH 773 0
DWIDTH 15 0
BBX 15 17 0 0
BITMAP
0380
0380
0000
0780
07C0
07C0
0DE0
0CE0
0CE0
1870
1870
3FF8
3FF8
3038
603C
601C
E01E
ENDCHAR
STARTCHAR AE
ENCODING 198
SWIDTH 997 0
DWIDTH 20 0
BBX 19 14 0 0
BITMAP
00FFE0
00FFE0
01F000
03F000
037000
077000
067F80
0C7F80
0C7000
1FF000
3FF000
307000
607FE0
E07FE0
ENDCHAR
STARTCHAR Ccedilla
ENCODING 199
SWIDTH 726 0
DWIDTH 15 0
BBX 13 18 1 -4
BITMAP
07F8
1FF8
7C18
7000
F000
E000
E000
E000
E000
F000
7000
7C08
1FF8
0FF0
0200
0100
0580
0780
ENDCHAR
STARTCHAR Egrave
ENCODING 200
SWIDTH 645 0
DWIDTH 13 0
BBX 10 17 2 0
BITMAP
3800
0E00
0000
FFC0
FFC0
E000
E000
E000
E000
FF00
FF00
E000
E000
E000
E000
FFC0
FFC0
ENDCHAR
STARTCHAR Eacute
ENCODING 201
SWIDTH 645 0
DWIDTH 13 0
BBX 10 17 2 0
BITMAP
0700
1C00
0000
FFC0
FFC0
E000
E000
E000
E000
FF00
FF00
E000
E000
E000
E000
FFC0
FFC0
ENDCHAR
STARTCHAR Ecircumflex
ENCODING 202
SWIDTH 645 0
DWIDTH 13 0
BBX 10 17 2 0
BITMAP
1C00
7700
0000
FFC0
FFC0
E000
E000
E000
E000
FF00
FF00
E000
E000
E000
E000
FFC0
FFC0
ENDCHAR
STARTCHAR Edieresis
ENCODING 203
SWIDTH 645 0
DWIDTH 13 0
BBX 10 17 2 0
BITMAP
7700
7700
0000
FFC0
FFC0
E000
E000
E000
E000
FF00
FF00
E000
E000
E000
E000
FFC0
FFC0
ENDCHAR
STARTCHAR Igrave
ENCODING 204
SWIDTH 361 0
DWIDTH 7 0
BBX 5 17 3 0
BITMAP
E0
38
00
70
70
70
70
70
70
70
70
70
70
70
70
70
70
ENDCHAR
STARTCHAR Iacute
ENCODING 205
SWIDTH 361 0
DWIDTH 7 0
BBX 5 17 2 0
BITMAP
38
E0
00
E0
E0
E0
E0
E0
E0
E0
E0
E0
E0
E0
E0
E0
E0
ENDCHAR
STARTCHAR Icircumflex
ENCODING 206
SWIDTH 361 0
DWIDTH 7 0
BBX 7 17 4 0
BITMAP
38
EE
00
38
38
38
38
38
38
38
38
38
38
38
38
38
38
ENDCHAR
STARTCHAR Idieresis
ENCODING 207
SWIDTH 361 0
DWIDTH 7 0
BBX 7 17 4 0
BITMAP
EE
EE
00
38
38
38
38
38
38
38
38
38
38
38
38
38
38
ENDCHAR
STARTCHAR Eth
ENCODING 208
SWIDTH 819 0
DWIDTH 16 0
BBX 16 14 0 0
BITMAP
3FF0
3FFC
383E
380E
380F
3807
FF07
FF07
3807
3807
380E
381E
3FFC
3FF0
ENDCHAR
STARTCHAR Ntilde
ENCODING 209
SWIDTH 783 0
DWIDTH 16 0
BBX 12 17 2 0
BITMAP
0FC0
1F80
0000
E030
F030
F030
F830
FC30
DE30
CE30
C730
C7B0
C3F0
C1F0
C0F0
C0F0
C070
ENDCHAR
STARTCHAR Ograve
ENCODING 210
SWIDTH 855 0
DWIDTH 17 0
BBX 16 17 1 0
BITMAP
0700
01C0
0000
07E0
1FF8
3C3C
700E
F00F
E007
E007
E007
E007
F00F
700E
3C3C
1FF8
07E0
ENDCHAR
STARTCHAR Oacute
ENCODING 211
SWIDTH 855 0
DWIDTH 17 0
BBX 16 17 1 0
BITMAP
00E0
0380
0000
07E0
1FF8
3C3C
700E
F00F
E007
E007
E007
E007
F00F
700E
3C3C
1FF8
07E0
ENDCHAR
STARTCHAR Ocircumflex
ENCODING 212
SWIDTH 855 0
DWIDTH 17 0
BBX 16 17 1 0
BITMAP
01C0
0770
0000
07E0
1FF8
3C3C
700E
F00F
E007
E007
E007
E007
F00F
700E
3C3C
1FF8
07E0
ENDCHAR
STARTCHAR Otilde
ENCODING 213
SWIDTH 855 0
DWIDTH 17 0
BBX 16 17 1 0
BITMAP
03F0
07E0
0000
07E0
1FF8
3C3C
700E
F00F
E007
E007
E007
E007
F00F
700E
3C3C
1FF8
07E0
ENDCHAR
STARTCHAR Odieresis
ENCODING 214
SWIDTH 855 0
DWIDTH 17 0
BBX 16 17 1 0
BITMAP
0770
0770
0000
07E0
1FF8
3C3C
700E
F00F
E007
E007
E007
E007
F00F
700E
3C3C
1FF8
07E0
ENDCHAR
STARTCHAR multiply
ENCODING 215
SWIDTH 687 0
DWIDTH 14 0
BBX 12 12 1 0
BITMAP
4020
E070
70E0
39C0
1F80
0F00
0F00
1F80
39C0
70E0
E070
4020
ENDCHAR
STARTCHAR Oslash
ENCODING 216
SWIDTH 855 0
DWIDTH 17 0
BBX 16 14 1 0
BITMAP
07E7
1FFC
3C3C
703E
F07F
E0E7
E1C7
E387
E707
FE0F
7C0E
3C3C
3FF8
E7E0
ENDCHAR
STARTCHAR Ugrave
ENCODING 217
SWIDTH 783 0
DWIDTH 16 0
BBX 12 17 2 0
BITMAP
1C00
0700
0000
E070
E070
E070
E070
E070
E070
E070
E070
E070
E070
E070
70E0
7FE0
1F80
ENDCHAR
STARTCHAR Uacute
ENCODING 218
SWIDTH 783 0
DWIDTH 16 0
BBX 12 17 2 0
BITMAP
0380
0E00
0000
E070
E070
E070
E070
E070
E070
E070
E070
E070
E070
E070
70E0
7FE0
1F80
ENDCHAR
STARTCHAR Ucircumflex
ENCODING 219
SWIDTH 783 0
DWIDTH 16 0
BBX 12 17 2 0
BITMAP
0700
1DC0
0000
E070
E070
E070
E070
E070
E070
E070
E070
E070
E070
E070
70E0
7FE0
1F80
ENDCHAR
STARTCHAR Udieresis
ENCODING 220
SWIDTH 783 0
DWIDTH 16 0
BBX 12 17 2 0
BITMAP
1DC0
1DC0
0000
E070
E070
E070
E070
E070
E070
E070
E070
E070
E070
E070
70E0
7FE0
1F80
ENDCHAR
STARTCHAR Yacute
ENCODING 221
SWIDTH 738 0
DWIDTH 15 0
BBX 13 17 1 0
BITMAP
01C0
0700
0000
F038
7830
3860
3CE0
1CC0
0FC0
0F80
0700
0700
0700
0700
0700
0700
0700
ENDCHAR
STARTCHAR Thorn
ENCODING 222
SWIDTH 657 0
DWIDTH 13 0
BBX 10 14 2 0
BITMAP
E000
E000
E000
FF00
FFC0
E3C0
E1C0
E1C0
E3C0
FF80
FE00
E000
E000
E000
ENDCHAR
STARTCHAR germandbls
ENCODING 223
SWIDTH 724 0
DWIDTH 14 0
BBX 13 14 1 0
BITMAP
1F00
7FC0
E3C0
E380
E700
E600
EF00
EFC0
E7E0
E1F0
E078
E078
E7F0
E7E0
ENDCHAR
STARTCHAR agrave
ENCODING 224
SWIDTH 623 0
DWIDTH 12 0
BBX 11 14 1 0
BITMAP
1C00
0700
0000
3F00
7F80
41C0
01C0
3FC0
7FC0
F1C0
E1C0
E3C0
FFE0
79E0
ENDCHAR
STARTCHAR aacute
ENCODING 225
SWIDTH 623 0
DWIDTH 12 0
BBX 11 14 1 0
BITMAP
0380
0E00
0000
3F00
7F80
41C0
01C0
3FC0
7FC0
F1C0
E1C0
E3C0
FFE0
79E0
ENDCHAR
STARTCHAR acircumflex
ENCODING 226
SWIDTH 623 0
DWIDTH 12 0
BBX 11 14 1 0
BITMAP
0E00
3B80
0000
3F00
7F80
41C0
01C0
3FC0
7FC0
F1C0
E1C0
E3C0
FFE0
79E0
ENDCHAR
STARTCHAR atilde
ENCODING 227
SWIDTH 623 0
DWIDTH 12 0
BBX 11 14 1 0
BITMAP
1F80
3F00
0000
3F00
7F80
41C0
01C0
3FC0
7FC0
F1C0
E1C0
E3C0
FFE0
79E0
ENDCHAR
STARTCHAR adieresis
ENCODING 228
SWIDTH 623 0
DWIDTH 12 0
BBX 11 14 1 0
BITMAP
3B80
3B80
0000
3F00
7F80
41C0
01C0
3FC0
7FC0
F1C0
E1C0
E3C0
FFE0
79E0
ENDCHAR
STARTCHAR aring
ENCODING 229
SWIDTH 623 0
DWIDTH 12 0
BBX 11 14 1 0
BITMAP
0E00
0E00
0000
3F00
7F80
41C0
01C0
3FC0
7FC0
F1C0
E1C0
E3C0
FFE0
79E0
ENDCHAR
STARTCHAR ae
ENCODING 230
SWIDTH 913 0
DWIDTH 18 0
BBX 17 11 0 0
BITMAP
3F3E00
7FFF00
43E700
03C380
01C380
3FFF80
FFFF80
E1C000
E3E080
FEFF80
7C7F80
ENDCHAR
STARTCHAR ccedilla
ENCODING 231
SWIDTH 545 0
DWIDTH 11 0
BBX 8 15 2 -4
BITMAP
1F
7F
71
E0
E0
E0
E0
E0
70
7F
1F
30
08
2C
3C
ENDCHAR
STARTCHAR egrave
ENCODING 232
SWIDTH 614 0
DWIDTH 12 0
BBX 11 14 0 0
BITMAP
1C00
0700
0000
1F00
3FC0
79C0
F0E0
E0E0
FFE0
FFE0
F000
7820
3FE0
1FC0
ENDCHAR
STARTCHAR eacute
ENCODING 233
SWIDTH 614 0
DWIDTH 12 0
BBX 11 14 0 0
BITMAP
0380
0E00
0000
1F00
3FC0
79C0
F0E0
E0E0
FFE0
FFE0
F000
7820
3FE0
1FC0
ENDCHAR
STARTCHAR ecircumflex
ENCODING 234
SWIDTH 614 0
DWIDTH 12 0
BBX 11 14 0 0
BITMAP
0E00
3B80
0000
1F00
3FC0
79C0
F0E0
E0E0
FFE0
FFE0
F000
7820
3FE0
1FC0
ENDCHAR
STARTCHAR edieresis
ENCODING 235
SWIDTH 614 0
DWIDTH 12 0
BBX 11 14 0 0
BITMAP
3B80
3B80
0000
1F00
3FC0
79C0
F0E0
E0E0
FFE0
FFE0
F000
7820
3FE0
1FC0
ENDCHAR
STARTCHAR igrave
ENCODING 236
SWIDTH 361 0
DWIDTH 7 0
BBX 5 14 3 0
BITMAP
E0
38
00
70
70
70
70
70
70
70
70
70
70
70
ENDCHAR
STARTCHAR iacute
ENCODING 237
SWIDTH 361 0
DWIDTH 7 0
BBX 5 14 2 0
BITMAP
38
E0
00
E0
E0
E0
E0
E0
E0
E0
E0
E0
E0
E0
ENDCHAR
STARTCHAR icircumflex
ENCODING 238
SWIDTH 361 0
DWIDTH 7 0
BBX 7 14 4 0
BITMAP
38
EE
00
38
38
38
38
38
38
38
38
38
38
38
ENDCHAR
STARTCHAR idieresis
ENCODING 239
SWIDTH 361 0
DWIDTH 7 0
BBX 7 14 4 0
BITMAP
EE
EE
00
38
38
38
38
38
38
38
38
38
38
38
ENDCHAR
STARTCHAR eth
ENCODING 240
SWIDTH 675 0
DWIDTH 14 0
BBX 12 18 1 0
BITMAP
0100
0180
0300
0700
FF80
FFC0
73E0
61E0
5FE0
3FF0
70F0
E070
E070
E070
E070
70E0
7FC0
1F80
ENDCHAR
STARTCHAR ntilde
ENCODING 241
SWIDTH 693 0
DWIDTH 14 0
BBX 11 14 1 0
BITMAP
1F80
3F00
0000
E780
FFC0
F0E0
E0E0
E0E0
E0E0
E0E0
E0E0
E0E0
E0E0
E0E0
ENDCHAR
STARTCHAR ograve
ENCODING 242
SWIDTH 675 0
DWIDTH 13 0
BBX 12 14 1 0
BITMAP
1C00
0700
0000
1F80
3FC0
70E0
E070
E070
E070
E070
E070
70E0
3FC0
1F80
ENDCHAR
STARTCHAR oacute
ENCODING 243
SWIDTH 675 0
DWIDTH 13 0
BBX 12 14 1 0
BITMAP
0380
0E00
0000
1F80
3FC0
70E0
E070
E070
E070
E070
E070
70E0
3FC0
1F80
ENDCHAR
STARTCHAR ocircumflex
ENCODING 244
SWIDTH 675 0
DWIDTH 13 0
BBX 12 14 1 0
BITMAP
0700
1DC0
0000
1F80
3FC0
70E0
E070
E070
E070
E070
E070
70E0
3FC0
1F80
ENDCHAR
STARTCHAR otilde
ENCODING 245
SWIDTH 675 0
DWIDTH 13 0
BBX 12 14 1 0
BITMAP
0FC0
1F80
0000
1F80
3FC0
70E0
E070
E070
E070
E070
E070
70E0
3FC0
1F80
ENDCHAR
STARTCHAR odieresis
ENCODING 246
SWIDTH 675 0
DWIDTH 13 0
BBX 12 14 1 0
BITMAP
1DC0
1DC0
0000
1F80
3FC0
70E0
E070
E070
E070
E070
E070
70E0
3FC0
1F80
ENDCHAR
STARTCHAR divide
ENCODING 247
SWIDTH 687 0
DWIDTH 14 0
BBX 12 12 1 0
BITMAP
0C00
0C00
0000
0000
0000
FFF0
FFF0
0000
0000
0000
0C00
0C00
ENDCHAR
STARTCHAR oslash
ENCODING 248
SWIDTH 675 0
DWIDTH 13 0
BBX 12 11 1 0
BITMAP
1FF0
3FE0
71E0
E3F0
E370
E670
EC70
FC70
78E0
7FC0
FF80
ENDCHAR
STARTCHAR ugrave
ENCODING 249
SWIDTH 693 0
DWIDTH 14 0
BBX 11 14 1 0
BITMAP
1C00
0700
0000
E0E0
E0E0
E0E0
E0E0
E0E0
E0E0
E0E0
E0E0
E1E0
7FE0
3CE0
ENDCHAR
STARTCHAR uacute
ENCODING 250
SWIDTH 693 0
DWIDTH 14 0
BBX 11 14 1 0
BITMAP
0380
0E00
0000
E0E0
E0E0
E0E0
E0E0
E0E0
E0E0
E0E0
E0E0
E1E0
7FE0
3CE0
ENDCHAR
STARTCHAR ucircumflex
ENCODING 251
SWIDTH 693 0
DWIDTH 14 0
BBX 11 14 1 0
BITMAP
0E00
3B80
0000
E0E0
E0E0
E0E0
E0E0
E0E0
E0E0
E0E0
E0E0
E1E0
7FE0
3CE0
ENDCHAR
STARTCHAR udieresis
ENCODING 252
SWIDTH 693 0
DWIDTH 14 0
BBX 11 14 1 0
BITMAP
3B80
3B80
0000
E0E0
E0E0
E0E0
E0E0
E0E0
E0E0
E0E0
E0E0
E1E0
7FE0
3CE0
ENDCHAR
STARTCHAR yacute
ENCODING 253
SWIDTH 645 0
DWIDTH 13 0
BBX 12 18 0 -4
BITMAP
0380
0E00
0000
F070
7060
78E0
38C0
38C0
3D80
1D80
1F00
0F00
0E00
0E00
0E00
1C00
3C00
7800
ENDCHAR
STARTCHAR thorn
ENCODING 254
SWIDTH 696 0
DWIDTH 14 0
BBX 12 18 1 -4
BITMAP
E000
E000
E000
E7C0
EFE0
F0E0
E070
E070
E070
E070
E0F0
F0E0
FFE0
EF80
E000
E000
E000
E000
ENDCHAR
STARTCHAR ydieresis
ENCODING 255
SWIDTH 645 0
DWIDTH 13 0
BBX 12 18 0 -4
BITMAP
1DC0
1DC0
0000
F070
7060
78E0
38C0
38C0
3D80
1D80
1F00
0F00
0E00
0E00
0E00
1C00
3C00
7800
ENDCHAR
STARTCHAR Amacron
ENCODING 256
SWIDTH 773 0
DWIDTH 15 0
BBX 15 17 0 0
BITMAP
0FE0
0FE0
0000
0780
07C0
07C0
0DE0
0CE0
0CE0
1870
1870
3FF8
3FF8
3038
603C
601C
E01E
ENDCHAR
STARTCHAR amacron
ENCODING 257
SWIDTH 623 0
DWIDTH 12 0
BBX 11 14 1 0
BITMAP
3F80
3F80
0000
3F00
7F80
41C0
01C0
3FC0
7FC0
F1C0
E1C0
E3C0
FFE0
79E0
ENDCHAR
STARTCHAR Abreve
ENCODING 258
SWIDTH 773 0
DWIDTH 15 0
BBX 15 17 0 0
BITMAP
0EE0
07C0
0000
0780
07C0
07C0
0DE0
0CE0
0CE0
1870
1870
3FF8
3FF8
3038
603C
601C
E01E
ENDCHAR
STARTCHAR abreve
ENCODING 259
SWIDTH 623 0
DWIDTH 12 0
BBX 11 14 1 0
BITMAP
3B80
1F00
0000
3F00
7F80
41C0
01C0
3FC0
7FC0
F1C0
E1C0
E3C0
FFE0
79E0
ENDCHAR
STARTCHAR Aogonek
ENCODING 260
SWIDTH 773 0
DWIDTH 15 0
BBX 15 17 0 -3
BITMAP
0780
07C0
07C0
0DE0
0CE0
0CE0
1870
1870
3FF8
3FF8
3038
603C
601C
E01E
0000
0380
03C0
ENDCHAR
STARTCHAR aogonek
ENCODING 261
SWIDTH 623 0
DWIDTH 12 0
BBX 11 14 1 -3
BITMAP
3F00
7F80
41C0
01C0
3FC0
7FC0
F1C0
E1C0
E3C0
FFE0
79E0
0000
0E00
0F00
ENDCHAR
STARTCHAR Cacute
ENCODING 262
SWIDTH 726 0
DWIDTH 15 0
BBX 13 17 1 0
BITMAP
01C0
0700
0000
07F8
1FF8
7C18
7000
F000
E000
E000
E000
E000
F000
7000
7C08
1FF8
0FF0
ENDCHAR
STARTCHAR cacute
ENCODING 263
SWIDTH 545 0
DWIDTH 11 0
BBX 8 14 2 0
BITMAP
07
1C
00
1F
7F
71
E0
E0
E0
E0
E0
70
7F
1F
ENDCHAR
STARTCHAR Ccircumflex
ENCODING 264
SWIDTH 726 0
DWIDTH 15 0
BBX 13 17 1 0
BITMAP
0700
1DC0
0000
07F8
1FF8
7C18
7000
F000
E000
E000
E000
E000
F000
7000
7C08
1FF8
0FF0
ENDCHAR
STARTCHAR ccircumflex
ENCODING 265
SWIDTH 545 0
DWIDTH 11 0
BBX 8 14 2 0
BITMAP
1C
77
00
1F
7F
71
E0
E0
E0
E0
E0
70
7F
1F
ENDCHAR
STARTCHAR Cdotaccent
ENCODING 266
SWIDTH 726 0
DWIDTH 15 0
BBX 13 17 1 0
BITMAP
0700
0700
0000
07F8
1FF8
7C18
7000
F000
E000
E000
E000
E000
F000
7000
7C08
1FF8
0FF0
ENDCHAR
STARTCHAR cdotaccent
ENCODING 267
SWIDTH 545 0
DWIDTH 11 0
BBX 8 14 2 0
BITMAP
1C
1C
00
1F
7F
71
E0
E0
E0
E0
E0
70
7F
1F
ENDCHAR
STARTCHAR Ccaron
ENCODING 268
SWIDTH 726 0
DWIDTH 15 0
BBX 13 17 1 0
BITMAP
1DC0
0700
0000
07F8
1FF8
7C18
7000
F000
E000
E000
E000
E000
F000
7000
7C08
1FF8
0FF0
ENDCHAR
STARTCHAR ccaron
ENCODING 269
SWIDTH 545 0
DWIDTH 11 0
BBX 8 14 2 0
BITMAP
77
1C
00
1F
7F
71
E0
E0
E0
E0
E0
70
7F
1F
ENDCHAR
STARTCHAR Dcaron
ENCODING 270
SWIDTH 819 0
DWIDTH 16 0
BBX 14 17 2 0
BITMAP
1DC0
0700
0000
FFC0
FFF0
E0F8
E038
E03C
E01C
E01C
E01C
E01C
E01C
E038
E078
FFF0
FFC0
ENDCHAR
STARTCHAR dcaron
ENCODING 271
SWIDTH 926 0
DWIDTH 18 0
BBX 18 14 0 0
BITMAP
0073C0
0073C0
0073C0
1F71C0
7FF180
70F300
F07000
E07000
E07000
E07000
E07000
70F000
7F7000
3E7000
ENDCHAR
STARTCHAR Dcroat
ENCODING 272
SWIDTH 819 0
DWIDTH 16 0
BBX 16 14 0 0
BITMAP
3FF0
3FFC
383E
380E
380F
3807
FF07
FF07
3807
3807
380E
381E
3FFC
3FF0
ENDCHAR
STARTCHAR dcroat
ENCODING 273
SWIDTH 696 0
DWIDTH 14 0
BBX 12 14 0 0
BITMAP
0070
00F0
00F0
1F70
7FF0
70F0
F070
E070
E070
E070
E070
70F0
7F70
3E70
ENDCHAR
STARTCHAR Emacron
ENCODING 274
SWIDTH 645 0
DWIDTH 13 0
BBX 10 17 2 0
BITMAP
7F00
7F00
0000
FFC0
FFC0
E000
E000
E000
E000
FF00
FF00
E000
E000
E000
E000
FFC0
FFC0
ENDCHAR
STARTCHAR emacron
ENCODING 275
SWIDTH 614 0
DWIDTH 12 0
BBX 11 14 0 0
BITMAP
3F80
3F80
0000
1F00
3FC0
79C0
F0E0
E0E0
FFE0
FFE0
F000
7820
3FE0
1FC0
ENDCHAR
STARTCHAR Ebreve
ENCODING 276
SWIDTH 645 0
DWIDTH 13 0
BBX 10 17 2 0
BITMAP
7700
3E00
0000
FFC0
FFC0
E000
E000
E000
E000
FF00
FF00
E000
E000
E000
E000
FFC0
FFC0
ENDCHAR
STARTCHAR ebreve
ENCODING 277
SWIDTH 614 0
DWIDTH 12 0
BBX 11 14 0 0
BITMAP
3B80
1F00
0000
1F00
3FC0
79C0
F0E0
E0E0
FFE0
FFE0
F000
7820
3FE0
1FC0
ENDCHAR
STARTCHAR Edotaccent
ENCODING 278
SWIDTH 645 0
DWIDTH 13 0
BBX 10 17 2 0
BITMAP
1C00
1C00
0000
FFC0
FFC0
E000
E000
E000
E000
FF00
FF00
E000
E000
E000
E000
FFC0
FFC0
ENDCHAR
STARTCHAR edotaccent
ENCODING 279
SWIDTH 614 0
DWIDTH 12 0
BBX 11 14 0 0
BITMAP
0E00
0E00
0000
1F00
3FC0
79C0
F0E0
E0E0
FFE0
FFE0
F000
7820
3FE0
1FC0
ENDCHAR
STARTCHAR Eogonek
ENCODING 280
SWIDTH 645 0
DWIDTH 13 0
BBX 10 17 2 -3
BITMAP
FFC0
FFC0
E000
E000
E000
E000
FF00
FF00
E000
E000
E000
E000
FFC0
FFC0
0000
1C00
1E00
ENDCHAR
STARTCHAR eogonek
ENCODING 281
SWIDTH 614 0
DWIDTH 12 0
BBX 11 14 0 -3
BITMAP
1F00
3FC0
79C0
F0E0
E0E0
FFE0
FFE0
F000
7820
3FE0
1FC0
0000
0E00
0F00
ENDCHAR
STARTCHAR Ecaron
ENCODING 282
SWIDTH 645 0
DWIDTH 13 0
BBX 10 17 2 0
BITMAP
7700
1C00
0000
FFC0
FFC0
E000
E000
E000
E000
FF00
FF00
E000
E000
E000
E000
FFC0
FFC0
ENDCHAR
STARTCHAR ecaron
ENCODING 283
SWIDTH 614 0
DWIDTH 12 0
BBX 11 14 0 0
BITMAP
3B80
0E00
0000
1F00
3FC0
79C0
F0E0
E0E0
FFE0
FFE0
F000
7820
3FE0
1FC0
ENDCHAR
STARTCHAR Gcircumflex
ENCODING 284
SWIDTH 759 0
DWIDTH 15 0
BBX 13 17 1 0
BITMAP
0380
0EE0
0000
07F8
1FF8
3C18
7000
F000
E000
E000
E038
E038
F038
7038
7C38
1FF8
07F0
ENDCHAR
STARTCHAR gcircumflex
ENCODING 285
SWIDTH 696 0
DWIDTH 14 0
BBX 12 18 0 -4
BITMAP
0700
1DC0
0000
1EF0
7FF0
70F0
F070
E070
E070
E070
E070
70F0
7F70
1E70
00F0
41F0
7FE0
3F80
ENDCHAR
STARTCHAR Gbreve
ENCODING 286
SWIDTH 759 0
DWIDTH 15 0
BBX 13 17 1 0
BITMAP
0EE0
07C0
0000
07F8
1FF8
3C18
7000
F000
E000
E000
E038
E038
F038
7038
7C38
1FF8
07F0
ENDCHAR
STARTCHAR gbreve
ENCODING 287
SWIDTH 696 0
DWIDTH 14 0
BBX 12 18 0 -4
BITMAP
1DC0
0F80
0000
1EF0
7FF0
70F0
F070
E070
E070
E070
E070
70F0
7F70
1E70
00F0
41F0
7FE0
3F80
ENDCHAR
STARTCHAR Gdotaccent
ENCODING 288
SWIDTH 759 0
DWIDTH 15 0
BBX 13 17 1 0
BITMAP
0380
0380
0000
07F8
1FF8
3C18
7000
F000
E000
E000
E038
E038
F038
7038
7C38
1FF8
07F0
ENDCHAR
STARTCHAR gdotaccent
ENCODING 289
SWIDTH 696 0
DWIDTH 14 0
BBX 12 18 0 -4
BITMAP
0700
0700
0000
1EF0
7FF0
70F0
F070
E070
E070
E070
E070
70F0
7F70
1E70
00F0
41F0
7FE0
3F80
ENDCHAR
STARTCHAR Gcommaaccent
ENCODING 290
SWIDTH 759 0
DWIDTH 15 0
BBX 13 22 1 -8
BITMAP
07F8
1FF8
3C18
7000
F000
E000
E000
E038
E038
F038
7038
7C38
1FF8
07F0
0000
0780
0780
0780
0780
0380
0300
0600
ENDCHAR
STARTCHAR gcommaaccent
ENCODING 291
SWIDTH 696 0
DWIDTH 14 0
BBX 12 22 0 -4
BITMAP
0300
0600
0F00
0F00
0F00
0F00
0000
1EF0
7FF0
70F0
F070
E070
E070
E070
E070
70F0
7F70
1E70
00F0
41F0
7FE0
3F80
ENDCHAR
STARTCHAR Hcircumflex
ENCODING 292
SWIDTH 813 0
DWIDTH 16 0
BBX 13 17 2 0
BITMAP
0700
1DC0
0000
E038
E038
E038
E038
E038
E038
FFF8
FFF8
E038
E038
E038
E038
E038
E038
ENDCHAR
STARTCHAR hcircumflex
ENCODING 293
SWIDTH 693 0
DWIDTH 14 0
BBX 11 17 1 0
BITMAP
3800
EE00
0000
E000
E000
E000
E780
EFC0
F0E0
E0E0
E0E0
E0E0
E0E0
E0E0
E0E0
E0E0
E0E0
ENDCHAR
STARTCHAR Hbar
ENCODING 294
SWIDTH 813 0
DWIDTH 16 0
BBX 13 14 2 0
BITMAP
E038
E038
FFF8
FFF8
E038
E038
FFF8
FFF8
E038
E038
E038
E038
E038
E038
ENDCHAR
STARTCHAR hbar
ENCODING 295
SWIDTH 693 0
DWIDTH 14 0
BBX 11 14 1 0
BITMAP
E000
F800
F800
E780
EFC0
F0E0
E0E0
E0E0
E0E0
E0E0
E0E0
E0E0
E0E0
E0E0
ENDCHAR
STARTCHAR Itilde
ENCODING 296
SWIDTH 361 0
DWIDTH 7 0
BBX 7 17 0 0
BITMAP
7E
FC
00
38
38
38
38
38
38
38
38
38
38
38
38
38
38
ENDCHAR
STARTCHAR itilde
ENCODING 297
SWIDTH 361 0
DWIDTH 7 0
BBX 7 14 0 0
BITMAP
7E
FC
00
38
38
38
38
38
38
38
38
38
38
38
ENDCHAR
STARTCHAR Imacron
ENCODING 298
SWIDTH 361 0
DWIDTH 7 0
BBX 7 17 0 0
BITMAP
FE
FE
00
38
38
38
38
38
38
38
38
38
38
38
38
38
38
ENDCHAR
STARTCHAR imacron
ENCODING 299
SWIDTH 361 0
DWIDTH 7 0
BBX 7 14 0 0
BITMAP
FE
FE
00
38
38
38
38
38
38
38
38
38
38
38
ENDCHAR
STARTCHAR Ibreve
ENCODING 300
SWIDTH 361 0
DWIDTH 7 0
BBX 7 17 0 0
BITMAP
EE
7C
00
38
38
38
38
38
38
38
38
38
38
38
38
38
38
ENDCHAR
STARTCHAR ibreve
ENCODING 301
SWIDTH 361 0
DWIDTH 7 0
BBX 7 14 0 0
BITMAP
EE
7C
00
38
38
38
38
38
38
38
38
38
38
38
ENDCHAR
STARTCHAR Iogonek
ENCODING 302
SWIDTH 361 0
DWIDTH 7 0
BBX 4 17 2 -3
BITMAP
E0
E0
E0
E0
E0
E0
E0
E0
E0
E0
E0
E0
E0
E0
00
E0
F0
ENDCHAR
STARTCHAR iogonek
ENCODING 303
SWIDTH 361 0
DWIDTH 7 0
BBX 4 17 2 -3
BITMAP
E0
E0
00
E0
E0
E0
E0
E0
E0
E0
E0
E0
E0
E0
00
E0
F0
ENDCHAR
STARTCHAR Idotaccent
ENCODING 304
SWIDTH 361 0
DWIDTH 7 0
BBX 3 17 2 0
BITMAP
E0
E0
00
E0
E0
E0
E0
E0
E0
E0
E0
E0
E0
E0
E0
E0
E0
ENDCHAR
STARTCHAR dotlessi
ENCODING 305
SWIDTH 361 0
DWIDTH 7 0
BBX 3 11 2 0
BITMAP
E0
E0
E0
E0
E0
E0
E0
E0
E0
E0
E0
ENDCHAR
STARTCHAR IJ
ENCODING 306
SWIDTH 844 0
DWIDTH 17 0
BBX 13 17 2 -3
BITMAP
E038
E038
E038
E038
E038
E038
E038
E038
E038
E038
E038
E038
E038
E038
0238
03F0
03E0
ENDCHAR
STARTCHAR ij
ENCODING 307
SWIDTH 704 0
DWIDTH 14 0
BBX 11 18 2 -4
BITMAP
E0E0
E0E0
0000
E0E0
E0E0
E0E0
E0E0
E0E0
E0E0
E0E0
E0E0
E0E0
E0E0
E0E0
00E0
08E0
0FE0
0FC0
ENDCHAR
STARTCHAR Jcircumflex
ENCODING 308
SWIDTH 501 0
DWIDTH 10 0
BBX 8 20 1 -3
BITMAP
1C
77
00
0E
0E
0E
0E
0E
0E
0E
0E
0E
0E
0E
0E
0E
0E
8E
FC
F8
ENDCHAR
STARTCHAR jcircumflex
ENCODING 309
SWIDTH 361 0
DWIDTH 7 0
BBX 8 18 -1 -4
BITMAP
1C
77
00
0E
0E
0E
0E
0E
0E
0E
0E
0E
0E
0E
0E
8E
FE
FC
ENDCHAR
STARTCHAR Kcommaaccent
ENCODING 310
SWIDTH 753 0
DWIDTH 15 0
BBX 13 22 2 -8
BITMAP
E0F0
E0C0
E180
E380
E700
EE00
FC00
EE00
EF00
E780
E3C0
E1C0
E1E0
E0F8
0000
0F00
0F00
0F00
0F00
0700
0600
0C00
ENDCHAR
STARTCHAR kcommaaccent
ENCODING 311
SWIDTH 681 0
DWIDTH 14 0
BBX 11 22 2 -8
BITMAP
E000
E000
E000
E1C0
E380
E700
E600
EC00
FE00
EE00
E700
E780
E3C0
E3E0
0000
1E00
1E00
1E00
1E00
0E00
0C00
1800
ENDCHAR
STARTCHAR kgreenlandic
ENCODING 312
SWIDTH 681 0
DWIDTH 14 0
BBX 11 11 2 0
BITMAP
E1C0
E380
E700
E600
EC00
FE00
EE00
E700
E780
E3C0
E3E0
ENDCHAR
STARTCHAR Lacute
ENCODING 313
SWIDTH 620 0
DWIDTH 12 0
BBX 10 17 2 0
BITMAP
1C00
7000
0000
E000
E000
E000
E000
E000
E000
E000
E000
E000
E000
E000
E000
FFC0
FFC0
ENDCHAR
STARTCHAR lacute
ENCODING 314
SWIDTH 361 0
DWIDTH 7 0
BBX 5 17 2 0
BITMAP
38
E0
00
E0
E0
E0
E0
E0
E0
E0
E0
E0
E0
E0
E0
E0
E0
ENDCHAR
STARTCHAR Lcommaaccent
ENCODING 315
SWIDTH 620 0
DWIDTH 12 0
BBX 10 22 2 -8
BITMAP
E000
E000
E000
E000
E000
E000
E000
E000
E000
E000
E000
E000
FFC0
FFC0
0000
3C00
3C00
3C00
3C00
1C00
1800
3000
ENDCHAR
STARTCHAR lcommaaccent
ENCODING 316
SWIDTH 361 0
DWIDTH 7 0
BBX 4 22 2 -8
BITMAP
E0
E0
E0
E0
E0
E0
E0
E0
E0
E0
E0
E0
E0
E0
00
F0
F0
F0
F0
70
60
C0
ENDCHAR
STARTCHAR Lcaron
ENCODING 317
SWIDTH 854 0
DWIDTH 16 0
BBX 14 14 2 0
BITMAP
E03C
E03C
E03C
E01C
E018
E030
E000
E000
E000
E000
E000
E000
FFC0
FFC0
ENDCHAR
STARTCHAR lcaron
ENCODING 318
SWIDTH 608 0
DWIDTH 12 0
BBX 10 14 2 0
BITMAP
E3C0
E3C0
E3C0
E1C0
E180
E300
E000
E000
E000
E000
E000
E000
E000
E000
ENDCHAR
STARTCHAR Ldot
ENCODING 319
SWIDTH 932 0
DWIDTH 25 0
BBX 17 14 2 0
BITMAP
E00000
E00000
E00000
E00000
E00000
E00000
E00380
E00380
E00000
E00000
E00000
E00000
FFC000
FFC000
ENDCHAR
STARTCHAR ldot
ENCODING 320
SWIDTH 686 0
DWIDTH 21 0
BBX 13 14 2 0
BITMAP
E000
E000
E000
E000
E000
E000
E038
E038
E000
E000
E000
E000
E000
E000
ENDCHAR
STARTCHAR Lslash
ENCODING 321
SWIDTH 620 0
DWIDTH 12 0
BBX 12 14 0 0
BITMAP
3800
3800
3800
3A00
3E00
3E00
3C00
F800
F800
B800
3800
3800
3FF0
3FF0
ENDCHAR
STARTCHAR lslash
ENCODING 322
SWIDTH 361 0
DWIDTH 7 0
BBX 7 14 0 0
BITMAP
38
38
38
3A
3E
3E
38
F8
F8
38
38
38
38
38
ENDCHAR
STARTCHAR Nacute
ENCODING 323
SWIDTH 783 0
DWIDTH 16 0
BBX 12 17 2 0
BITMAP
0380
0E00
0000
E030
F030
F030
F830
FC30
DE30
CE30
C730
C7B0
C3F0
C1F0
C0F0
C0F0
C070
ENDCHAR
STARTCHAR nacute
ENCODING 324
SWIDTH 693 0
DWIDTH 14 0
BBX 11 14 1 0
BITMAP
0700
1C00
0000
E780
FFC0
F0E0
E0E0
E0E0
E0E0
E0E0
E0E0
E0E0
E0E0
E0E0
ENDCHAR
STARTCHAR Ncommaaccent
ENCODING 325
SWIDTH 783 0
DWIDTH 16 0
BBX 12 22 2 -8
BITMAP
E030
F030
F030
F830
FC30
DE30
CE30
C730
C7B0
C3F0
C1F0
C0F0
C0F0
C070
0000
0780
0780
0780
0780
0380
0300
0600
ENDCHAR
STARTCHAR ncommaaccent
ENCODING 326
SWIDTH 693 0
DWIDTH 14 0
BBX 11 19 1 -8
BITMAP
E780
FFC0
F0E0
E0E0
E0E0
E0E0
E0E0
E0E0
E0E0
E0E0
E0E0
0000
0F00
0F00
0F00
0F00
0700
0600
0C00
ENDCHAR
STARTCHAR Ncaron
ENCODING 327
SWIDTH 783 0
DWIDTH 16 0
BBX 12 17 2 0
BITMAP
3B80
0E00
0000
E030
F030
F030
F830
FC30
DE30
CE30
C730
C7B0
C3F0
C1F0
C0F0
C0F0
C070
ENDCHAR
STARTCHAR ncaron
ENCODING 328
SWIDTH 693 0
DWIDTH 14 0
BBX 11 14 1 0
BITMAP
3B80
0E00
0000
E780
FFC0
F0E0
E0E0
E0E0
E0E0
E0E0
E0E0
E0E0
E0E0
E0E0
ENDCHAR
STARTCHAR napostrophe
ENCODING 329
SWIDTH 945 0
DWIDTH 19 0
BBX 16 14 1 0
BITMAP
F000
F000
F000
773C
67FE
C787
0707
0707
0707
0707
0707
0707
0707
0707
ENDCHAR
STARTCHAR Eng
ENCODING 330
SWIDTH 783 0
DWIDTH 16 0
BBX 12 18 2 -4
BITMAP
E030
F030
F030
F830
FC30
DE30
CE30
C730
C7B0
C3F0
C1F0
C0F0
C0F0
C070
0070
0470
07F0
07E0
ENDCHAR
STARTCHAR eng
ENCODING 331
SWIDTH 693 0
DWIDTH 14 0
BBX 11 15 1 -4
BITMAP
E780
FFC0
F0E0
E0E0
E0E0
E0E0
E0E0
E0E0
E0E0
E0E0
E0E0
00E0
08E0
0FE0
0FC0
ENDCHAR
STARTCHAR Omacron
ENCODING 332
SWIDTH 855 0
DWIDTH 17 0
BBX 16 17 1 0
BITMAP
07F0
07F0
0000
07E0
1FF8
3C3C
700E
F00F
E007
E007
E007
E007
F00F
700E
3C3C
1FF8
07E0
ENDCHAR
STARTCHAR omacron
ENCODING 333
SWIDTH 675 0
DWIDTH 13 0
BBX 12 14 1 0
BITMAP
1FC0
1FC0
0000
1F80
3FC0
70E0
E070
E070
E070
E070
E070
70E0
3FC0
1F80
ENDCHAR
STARTCHAR Obreve
ENCODING 334
SWIDTH 855 0
DWIDTH 17 0
BBX 16 17 1 0
BITMAP
0770
03E0
0000
07E0
1FF8
3C3C
700E
F00F
E007
E007
E007
E007
F00F
700E
3C3C
1FF8
07E0
ENDCHAR
STARTCHAR obreve
ENCODING 335
SWIDTH 675 0
DWIDTH 13 0
BBX 12 14 1 0
BITMAP
1DC0
0F80
0000
1F80
3FC0
70E0
E070
E070
E070
E070
E070
70E0
3FC0
1F80
ENDCHAR
STARTCHAR Ohungarumlaut
ENCODING 336
SWIDTH 855 0
DWIDTH 17 0
BBX 16 17 1 0
BITMAP
01F8
07E0
0000
07E0
1FF8
3C3C
700E
F00F
E007
E007
E007
E007
F00F
700E
3C3C
1FF8
07E0
ENDCHAR
STARTCHAR ohungarumlaut
ENCODING 337
SWIDTH 675 0
DWIDTH 13 0
BBX 12 14 1 0
BITMAP
07E0
1F80
0000
1F80
3FC0
70E0
E070
E070
E070
E070
E070
70E0
3FC0
1F80
ENDCHAR
STARTCHAR OE
ENCODING 338
SWIDTH 1102 0
DWIDTH 22 0
BBX 21 14 0 0
BITMAP
07FFF0
1FFFF0
3C3C00
701C00
F01C00
E01C00
E01FE0
E01FE0
E01C00
F01C00
701C00
3C3C00
1FFFF8
07FFF8
ENDCHAR
STARTCHAR oe
ENCODING 339
SWIDTH 990 0
DWIDTH 20 0
BBX 18 11 1 0
BITMAP
1F1E00
3FFF80
73F380
E1E1C0
E1C1C0
E1FFC0
E1FFC0
E1E000
73F040
3FFFC0
1FBFC0
ENDCHAR
STARTCHAR Racute
ENCODING 340
SWIDTH 734 0
DWIDTH 15 0
BBX 13 17 2 0
BITMAP
0380
0E00
0000
FF80
FFC0
E0E0
E0E0
E0E0
E1C0
FF80
FF00
E700
E380
E3C0
E1E0
E1E0
E0F8
ENDCHAR
STARTCHAR racute
ENCODING 341
SWIDTH 500 0
DWIDTH 10 0
BBX 7 14 2 0
BITMAP
0E
38
00
E6
FE
FE
F0
E0
E0
E0
E0
E0
E0
E0
ENDCHAR
STARTCHAR Rcommaaccent
ENCODING 342
SWIDTH 734 0
DWIDTH 15 0
BBX 13 22 2 -8
BITMAP
FF80
FFC0
E0E0
E0E0
E0E0
E1C0
FF80
FF00
E700
E380
E3C0
E1E0
E1E0
E0F8
0000
0F00
0F00
0F00
0F00
0700
0600
0C00
ENDCHAR
STARTCHAR rcommaaccent
ENCODING 343
SWIDTH 500 0
DWIDTH 10 0
BBX 7 19 2 -8
BITMAP
E6
FE
FE
F0
E0
E0
E0
E0
E0
E0
E0
00
F0
F0
F0
F0
70
60
C0
ENDCHAR
STARTCHAR Rcaron
ENCODING 344
SWIDTH 734 0
DWIDTH 15 0
BBX 13 17 2 0
BITMAP
3B80
0E00
0000
FF80
FFC0
E0E0
E0E0
E0E0
E1C0
FF80
FF00
E700
E380
E3C0
E1E0
E1E0
E0F8
ENDCHAR
STARTCHAR rcaron
ENCODING 345
SWIDTH 500 0
DWIDTH 10 0
BBX 7 14 2 0
BITMAP
EE
38
00
E6
FE
FE
F0
E0
E0
E0
E0
E0
E0
E0
ENDCHAR
STARTCHAR Sacute
ENCODING 346
SWIDTH 594 0
DWIDTH 12 0
BBX 11 17 1 0
BITMAP
0700
1C00
0000
1FC0
7FC0
F040
F000
F800
7E00
3F00
1FC0
03E0
00E0
00E0
C1E0
FFC0
FF00
ENDCHAR
STARTCHAR sacute
ENCODING 347
SWIDTH 622 0
DWIDTH 12 0
BBX 10 14 1 0
BITMAP
0700
1C00
0000
3F80
7F80
F080
F000
FE00
7F80
1FC0
07C0
83C0
FF80
FF00
ENDCHAR
STARTCHAR Scircumflex
ENCODING 348
SWIDTH 594 0
DWIDTH 12 0
BBX 11 17 1 0
BITMAP
0E00
3B80
0000
1FC0
7FC0
F040
F000
F800
7E00
3F00
1FC0
03E0
00E0
00E0
C1E0
FFC0
FF00
ENDCHAR
STARTCHAR scircumflex
ENCODING 349
SWIDTH 622 0
DWIDTH 12 0
BBX 10 14 1 0
BITMAP
1C00
7700
0000
3F80
7F80
F080
F000
FE00
7F80
1FC0
07C0
83C0
FF80
FF00
ENDCHAR
STARTCHAR Scedilla
ENCODING 350
SWIDTH 594 0
DWIDTH 12 0
BBX 11 18 1 -4
BITMAP
1FC0
7FC0
F040
F000
F800
7E00
3F00
1FC0
03E0
00E0
00E0
C1E0
FFC0
FF00
0C00
0200
0B00
0F00
ENDCHAR
STARTCHAR scedilla
ENCODING 351
SWIDTH 622 0
DWIDTH 12 0
BBX 10 15 1 -4
BITMAP
3F80
7F80
F080
F000
FE00
7F80
1FC0
07C0
83C0
FF80
FF00
1800
0400
1600
1E00
ENDCHAR
STARTCHAR Scaron
ENCODING 352
SWIDTH 594 0
DWIDTH 12 0
BBX 11 17 1 0
BITMAP
3B80
0E00
0000
1FC0
7FC0
F040
F000
F800
7E00
3F00
1FC0
03E0
00E0
00E0
C1E0
FFC0
FF00
ENDCHAR
STARTCHAR scaron
ENCODING 353
SWIDTH 622 0
DWIDTH 12 0
BBX 10 14 1 0
BITMAP
3B80
0E00
0000
3F80
7F80
F080
F000
FE00
7F80
1FC0
07C0
83C0
FF80
FF00
ENDCHAR
STARTCHAR Tcommaaccent
ENCODING 354
SWIDTH 735 0
DWIDTH 15 0
BBX 13 18 1 -4
BITMAP
FFF8
FFF8
0700
0700
0700
0700
0700
0700
0700
0700
0700
0700
0700
0700
0600
0100
0580
0780
ENDCHAR
STARTCHAR tcommaaccent
ENCODING 355
SWIDTH 436 0
DWIDTH 9 0
BBX 6 17 1 -4
BITMAP
70
70
FC
FC
70
70
70
70
70
70
74
7C
3C
30
08
2C
3C
ENDCHAR
STARTCHAR Tcaron
ENCODING 356
SWIDTH 735 0
DWIDTH 15 0
BBX 13 17 1 0
BITMAP
1DC0
0700
0000
FFF8
FFF8
0700
0700
0700
0700
0700
0700
0700
0700
0700
0700
0700
0700
ENDCHAR
STARTCHAR tcaron
ENCODING 357
SWIDTH 679 0
DWIDTH 14 0
BBX 13 14 1 0
BITMAP
0078
7078
7078
FC38
FC30
7060
7000
7000
7000
7000
7000
7400
7C00
3C00
ENDCHAR
STARTCHAR Tbar
ENCODING 358
SWIDTH 735 0
DWIDTH 15 0
BBX 13 14 1 0
BITMAP
FFF8
FFF8
0700
0700
0700
0700
0700
0700
0700
0700
0700
0700
0700
0700
ENDCHAR
STARTCHAR tbar
ENCODING 359
SWIDTH 436 0
DWIDTH 9 0
BBX 6 13 1 0
BITMAP
70
70
FC
FC
70
70
78
78
70
70
74
7C
3C
ENDCHAR
STARTCHAR Utilde
ENCODING 360
SWIDTH 783 0
DWIDTH 16 0
BBX 12 17 2 0
BITMAP
0FC0
1F80
0000
E070
E070
E070
E070
E070
E070
E070
E070
E070
E070
E070
70E0
7FE0
1F80
ENDCHAR
STARTCHAR utilde
ENCODING 361
SWIDTH 693 0
DWIDTH 14 0
BBX 11 14 1 0
BITMAP
1F80
3F00
0000
E0E0
E0E0
E0E0
E0E0
E0E0
E0E0
E0E0
E0E0
E1E0
7FE0
3CE0
ENDCHAR
STARTCHAR Umacron
ENCODING 362
SWIDTH 783 0
DWIDTH 16 0
BBX 12 17 2 0
BITMAP
1FC0
1FC0
0000
E070
E070
E070
E070
E070
E070
E070
E070
E070
E070
E070
70E0
7FE0
1F80
ENDCHAR
STARTCHAR umacron
ENCODING 363
SWIDTH 693 0
DWIDTH 14 0
BBX 11 14 1 0
BITMAP
3F80
3F80
0000
E0E0
E0E0
E0E0
E0E0
E0E0
E0E0
E0E0
E0E0
E1E0
7FE0
3CE0
ENDCHAR
STARTCHAR Ubreve
ENCODING 364
SWIDTH 783 0
DWIDTH 16 0
BBX 12 17 2 0
BITMAP
1DC0
0F80
0000
E070
E070
E070
E070
E070
E070
E070
E070
E070
E070
E070
70E0
7FE0
1F80
ENDCHAR
STARTCHAR ubreve
ENCODING 365
SWIDTH 693 0
DWIDTH 14 0
BBX 11 14 1 0
BITMAP
3B80
1F00
0000
E0E0
E0E0
E0E0
E0E0
E0E0
E0E0
E0E0
E0E0
E1E0
7FE0
3CE0
ENDCHAR
STARTCHAR Uring
ENCODING 366
SWIDTH 783 0
DWIDTH 16 0
BBX 12 17 2 0
BITMAP
0700
0700
0000
E070
E070
E070
E070
E070
E070
E070
E070
E070
E070
E070
70E0
7FE0
1F80
ENDCHAR
STARTCHAR uring
ENCODING 367
SWIDTH 693 0
DWIDTH 14 0
BBX 11 14 1 0
BITMAP
0E00
0E00
0000
E0E0
E0E0
E0E0
E0E0
E0E0
E0E0
E0E0
E0E0
E1E0
7FE0
3CE0
ENDCHAR
STARTCHAR Uhungarumlaut
ENCODING 368
SWIDTH 783 0
DWIDTH 16 0
BBX 12 17 2 0
BITMAP
07E0
1F80
0000
E070
E070
E070
E070
E070
E070
E070
E070
E070
E070
E070
70E0
7FE0
1F80
ENDCHAR
STARTCHAR uhungarumlaut
ENCODING 369
SWIDTH 693 0
DWIDTH 14 0
BBX 11 14 1 0
BITMAP
0FC0
3F00
0000
E0E0
E0E0
E0E0
E0E0
E0E0
E0E0
E0E0
E0E0
E1E0
7FE0
3CE0
ENDCHAR
STARTCHAR Uogonek
ENCODING 370
SWIDTH 783 0
DWIDTH 16 0
BBX 12 17 2 -3
BITMAP
E070
E070
E070
E070
E070
E070
E070
E070
E070
E070
E070
70E0
7FE0
1F80
0000
0E00
0F00
ENDCHAR
STARTCHAR uogonek
ENCODING 371
SWIDTH 693 0
DWIDTH 14 0
BBX 11 14 1 -3
BITMAP
E0E0
E0E0
E0E0
E0E0
E0E0
E0E0
E0E0
E0E0
E1E0
7FE0
3CE0
0000
0E00
0F00
ENDCHAR
STARTCHAR Wcircumflex
ENCODING 372
SWIDTH 940 0
DWIDTH 19 0
BBX 18 17 0 0
BITMAP
01C000
077000
000000
E0E0C0
70E180
70E180
71F180
71F180
39F300
39F300
3B3B00
3B3B00
1F3E00
1F3E00
1F3E00
1E1E00
0E1C00
ENDCHAR
STARTCHAR wcircumflex
ENCODING 373
SWIDTH 885 0
DWIDTH 18 0
BBX 17 14 0 0
BITMAP
01C000
077000
000000
E1E180
71E300
71E300
73F300
737600
3B7600
3B7600
3E7E00
3E3C00
1E3C00
1C3C00
ENDCHAR
STARTCHAR Ycircumflex
ENCODING 374
SWIDTH 738 0
DWIDTH 15 0
BBX 13 17 1 0
BITMAP
0700
1DC0
0000
F038
7830
3860
3CE0
1CC0
0FC0
0F80
0700
0700
0700
0700
0700
0700
0700
ENDCHAR
STARTCHAR ycircumflex
ENCODING 375
SWIDTH 645 0
DWIDTH 13 0
BBX 12 18 0 -4
BITMAP
0E00
3B80
0000
F070
7060
78E0
38C0
38C0
3D80
1D80
1F00
0F00
0E00
0E00
0E00
1C00
3C00
7800
ENDCHAR
STARTCHAR Ydieresis
ENCODING 376
SWIDTH 738 0
DWIDTH 15 0
BBX 13 17 1 0
BITMAP
1DC0
1DC0
0000
F038
7830
3860
3CE0
1CC0
0FC0
0F80
0700
0700
0700
0700
0700
0700
0700
ENDCHAR
STARTCHAR Zacute
ENCODING 377
SWIDTH 675 0
DWIDTH 13 0
BBX 11 17 1 0
BITMAP
0380
0E00
0000
FFE0
FFE0
01C0
03C0
0780
0700
0F00
1E00
1C00
3C00
7800
7000
FFE0
FFE0
ENDCHAR
STARTCHAR zacute
ENCODING 378
SWIDTH 608 0
DWIDTH 12 0
BBX 10 14 1 0
BITMAP
0700
1C00
0000
FFC0
FFC0
0780
0700
0F00
1E00
3C00
7800
F000
FFC0
FFC0
ENDCHAR
STARTCHAR Zdotaccent
ENCODING 379
SWIDTH 675 0
DWIDTH 13 0
BBX 11 17 1 0
BITMAP
0E00
0E00
0000
FFE0
FFE0
01C0
03C0
0780
0700
0F00
1E00
1C00
3C00
7800
7000
FFE0
FFE0
ENDCHAR
STARTCHAR zdotaccent
ENCODING 380
SWIDTH 608 0
DWIDTH 12 0
BBX 10 14 1 0
BITMAP
0E00
0E00
0000
FFC0
FFC0
0780
0700
0F00
1E00
3C00
7800
F000
FFC0
FFC0
ENDCHAR
STARTCHAR Zcaron
ENCODING 381
SWIDTH 675 0
DWIDTH 13 0
BBX 11 17 1 0
BITMAP
3B80
0E00
0000
FFE0
FFE0
01C0
03C0
0780
0700
0F00
1E00
1C00
3C00
7800
7000
FFE0
FFE0
ENDCHAR
STARTCHAR zcaron
ENCODING 382
SWIDTH 608 0
DWIDTH 12 0
BBX 10 14 1 0
BITMAP
3B80
0E00
0000
FFC0
FFC0
0780
0700
0F00
1E00
3C00
7800
F000
FFC0
FFC0
ENDCHAR
STARTCHAR uni0186
ENCODING 390
SWIDTH 726 0
DWIDTH 15 0
BBX 13 14 1 0
BITMAP
7F80
FFC0
81F0
0070
0078
0038
0038
0038
0038
0078
0070
C1F0
FFC0
FF00
ENDCHAR
STARTCHAR uni0189
ENCODING 393
SWIDTH 819 0
DWIDTH 16 0
BBX 16 14 0 0
BITMAP
3FF0
3FFC
383E
380E
380F
3807
FF07
FF07
3807
3807
380E
381E
3FFC
3FF0
ENDCHAR
STARTCHAR uni018E
ENCODING 398
SWIDTH 645 0
DWIDTH 13 0
BBX 10 14 2 0
BITMAP
FFC0
FFC0
01C0
01C0
01C0
01C0
3FC0
3FC0
01C0
01C0
01C0
01C0
FFC0
FFC0
ENDCHAR
STARTCHAR florin
ENCODING 402
SWIDTH 687 0
DWIDTH 14 0
BBX 11 17 2 -3
BITMAP
03E0
0FE0
0E00
1E00
1C00
3C00
7F00
7F00
3C00
3800
7800
7800
7800
7800
7000
F000
F000
ENDCHAR
STARTCHAR uni0197
ENCODING 407
SWIDTH 361 0
DWIDTH 7 0
BBX 3 14 2 0
BITMAP
E0
E0
E0
E0
E0
E0
E0
E0
E0
E0
E0
E0
E0
E0
ENDCHAR
STARTCHAR uni019A
ENCODING 410
SWIDTH 361 0
DWIDTH 7 0
BBX 3 14 2 0
BITMAP
E0
E0
E0
E0
E0
E0
E0
E0
E0
E0
E0
E0
E0
E0
ENDCHAR
STARTCHAR uni019D
ENCODING 413
SWIDTH 783 0
DWIDTH 16 0
BBX 16 18 -2 -4
BITMAP
0E03
0F03
0F03
0F83
0FC3
0DE3
0CE3
0C73
0C7B
0E3F
0E1F
0E0F
0E0F
0E07
0E00
8E00
FE00
FC00
ENDCHAR
STARTCHAR uni019F
ENCODING 415
SWIDTH 855 0
DWIDTH 17 0
BBX 16 14 1 0
BITMAP
07E0
1FF8
3C3C
700E
F00F
E007
FFFF
FFFF
E007
F00F
700E
3C3C
1FF8
07E0
ENDCHAR
STARTCHAR Ohorn
ENCODING 416
SWIDTH 855 0
DWIDTH 17 0
BBX 19 14 1 0
BITMAP
07E1E0
1FF9E0
3C3DE0
700EE0
F00FC0
E00780
E00700
E00700
E00700
F00F00
700E00
3C3C00
1FF800
07E000
ENDCHAR
STARTCHAR ohorn
ENCODING 417
SWIDTH 675 0
DWIDTH 13 0
BBX 15 11 1 0
BITMAP
1F9E
3FDE
70FE
E07E
E07C
E078
E070
E070
70E0
3FC0
1F80
ENDCHAR
STARTCHAR uni01A7
ENCODING 423
SWIDTH 594 0
DWIDTH 12 0
BBX 11 14 1 0
BITMAP
7F00
7FC0
41E0
01E0
03E0
0FC0
1F80
7F00
F800
E000
E000
F060
7FE0
1FE0
ENDCHAR
STARTCHAR uni01A8
ENCODING 424
SWIDTH 622 0
DWIDTH 12 0
BBX 10 11 1 0
BITMAP
7F00
7F80
43C0
03C0
1FC0
7F80
FE00
F800
F040
7FC0
3FC0
ENDCHAR
STARTCHAR uni01AE
ENCODING 430
SWIDTH 735 0
DWIDTH 15 0
BBX 13 18 1 -4
BITMAP
FFF8
FFF8
0700
0700
0700
0700
0700
0700
0700
0700
0700
0700
0700
0700
0700
0710
07F0
03F0
ENDCHAR
STARTCHAR Uhorn
ENCODING 431
SWIDTH 783 0
DWIDTH 16 0
BBX 15 14 2 0
BITMAP
E07E
E07E
E07E
E07E
E07C
E078
E070
E070
E070
E070
E070
70E0
7FE0
1F80
ENDCHAR
STARTCHAR uhorn
ENCODING 432
SWIDTH 693 0
DWIDTH 14 0
BBX 14 11 1 0
BITMAP
E0FC
E0FC
E0FC
E0FC
E0F8
E0F0
E0E0
E0E0
E1E0
7FE0
3CE0
ENDCHAR
STARTCHAR uni01B5
ENCODING 437
SWIDTH 675 0
DWIDTH 13 0
BBX 11 14 1 0
BITMAP
FFE0
FFE0
01C0
03C0
0780
0700
0F00
1E00
1C00
3C00
7800
7000
FFE0
FFE0
ENDCHAR
STARTCHAR uni01B6
ENCODING 438
SWIDTH 608 0
DWIDTH 12 0
BBX 10 11 1 0
BITMAP
FFC0
FFC0
0780
0700
0F00
1E00
3C00
7800
F000
FFC0
FFC0
ENDCHAR
STARTCHAR uni01BB
ENCODING 443
SWIDTH 687 0
DWIDTH 14 0
BBX 11 14 1 0
BITMAP
7F00
FFC0
C1E0
00E0
00E0
00E0
FFE0
FFE0
0F00
1E00
7800
F800
FFE0
FFE0
ENDCHAR
STARTCHAR uni01BC
ENCODING 444
SWIDTH 687 0
DWIDTH 14 0
BBX 10 14 2 0
BITMAP
FFC0
FFC0
C000
C000
C000
FC00
FF00
0780
01C0
01C0
01C0
83C0
FF80
FE00
ENDCHAR
STARTCHAR uni01C0
ENCODING 448
SWIDTH 265 0
DWIDTH 5 0
BBX 2 17 2 -3
BITMAP
C0
C0
C0
C0
C0
C0
C0
C0
C0
C0
C0
C0
C0
C0
C0
C0
C0
ENDCHAR
STARTCHAR uni01C2
ENCODING 450
SWIDTH 687 0
DWIDTH 14 0
BBX 12 17 1 -2
BITMAP
0600
0600
0600
0600
0600
FFF0
FFF0
0600
0600
0600
0600
FFF0
FFF0
0600
0600
0600
0600
ENDCHAR
STARTCHAR uni01C3
ENCODING 451
SWIDTH 265 0
DWIDTH 7 0
BBX 3 14 2 0
BITMAP
E0
E0
E0
E0
E0
E0
60
60
60
60
00
00
E0
E0
ENDCHAR
STARTCHAR uni01CD
ENCODING 461
SWIDTH 773 0
DWIDTH 15 0
BBX 15 17 0 0
BITMAP
0EE0
0380
0000
0780
07C0
07C0
0DE0
0CE0
0CE0
1870
1870
3FF8
3FF8
3038
603C
601C
E01E
ENDCHAR
STARTCHAR uni01CE
ENCODING 462
SWIDTH 623 0
DWIDTH 12 0
BBX 11 14 1 0
BITMAP
3B80
0E00
0000
3F00
7F80
41C0
01C0
3FC0
7FC0
F1C0
E1C0
E3C0
FFE0
79E0
ENDCHAR
STARTCHAR uni01CF
ENCODING 463
SWIDTH 361 0
DWIDTH 7 0
BBX 7 17 0 0
BITMAP
EE
38
00
38
38
38
38
38
38
38
38
38
38
38
38
38
38
ENDCHAR
STARTCHAR uni01D0
ENCODING 464
SWIDTH 361 0
DWIDTH 7 0
BBX 7 14 0 0
BITMAP
EE
38
00
38
38
38
38
38
38
38
38
38
38
38
ENDCHAR
STARTCHAR uni01D1
ENCODING 465
SWIDTH 855 0
DWIDTH 17 0
BBX 16 17 1 0
BITMAP
0770
01C0
0000
07E0
1FF8
3C3C
700E
F00F
E007
E007
E007
E007
F00F
700E
3C3C
1FF8
07E0
ENDCHAR
STARTCHAR uni01D2
ENCODING 466
SWIDTH 675 0
DWIDTH 13 0
BBX 12 14 1 0
BITMAP
1DC0
0700
0000
1F80
3FC0
70E0
E070
E070
E070
E070
E070
70E0
3FC0
1F80
ENDCHAR
STARTCHAR uni01D3
ENCODING 467
SWIDTH 783 0
DWIDTH 16 0
BBX 12 17 2 0
BITMAP
1DC0
0700
0000
E070
E070
E070
E070
E070
E070
E070
E070
E070
E070
E070
70E0
7FE0
1F80
ENDCHAR
STARTCHAR uni01D4
ENCODING 468
SWIDTH 693 0
DWIDTH 14 0
BBX 11 14 1 0
BITMAP
3B80
0E00
0000
E0E0
E0E0
E0E0
E0E0
E0E0
E0E0
E0E0
E0E0
E1E0
7FE0
3CE0
ENDCHAR
STARTCHAR uni01D5
ENCODING 469
SWIDTH 783 0
DWIDTH 16 0
BBX 12 20 2 0
BITMAP
1FC0
1FC0
0000
1DC0
1DC0
0000
E070
E070
E070
E070
E070
E070
E070
E070
E070
E070
E070
70E0
7FE0
1F80
ENDCHAR
STARTCHAR uni01D6
ENCODING 470
SWIDTH 693 0
DWIDTH 14 0
BBX 11 17 1 0
BITMAP
3F80
3F80
0000
3B80
3B80
0000
E0E0
E0E0
E0E0
E0E0
E0E0
E0E0
E0E0
E0E0
E1E0
7FE0
3CE0
ENDCHAR
STARTCHAR uni01D7
ENCODING 471
SWIDTH 783 0
DWIDTH 16 0
BBX 12 20 2 0
BITMAP
0380
0E00
0000
1DC0
1DC0
0000
E070
E070
E070
E070
E070
E070
E070
E070
E070
E070
E070
70E0
7FE0
1F80
ENDCHAR
STARTCHAR uni01D8
ENCODING 472
SWIDTH 693 0
DWIDTH 14 0
BBX 11 17 1 0
BITMAP
0380
0E00
0000
3B80
3B80
0000
E0E0
E0E0
E0E0
E0E0
E0E0
E0E0
E0E0
E0E0
E1E0
7FE0
3CE0
ENDCHAR
STARTCHAR uni01D9
ENCODING 473
SWIDTH 783 0
DWIDTH 16 0
BBX 12 20 2 0
BITMAP
1DC0
0700
0000
1DC0
1DC0
0000
E070
E070
E070
E070
E070
E070
E070
E070
E070
E070
E070
70E0
7FE0
1F80
ENDCHAR
STARTCHAR uni01DA
ENCODING 474
SWIDTH 693 0
DWIDTH 14 0
BBX 11 17 1 0
BITMAP
3B80
0E00
0000
3B80
3B80
0000
E0E0
E0E0
E0E0
E0E0
E0E0
E0E0
E0E0
E0E0
E1E0
7FE0
3CE0
ENDCHAR
STARTCHAR uni01DB
ENCODING 475
SWIDTH 783 0
DWIDTH 16 0
BBX 12 20 2 0
BITMAP
1C00
0700
0000
1DC0
1DC0
0000
E070
E070
E070
E070
E070
E070
E070
E070
E070
E070
E070
70E0
7FE0
1F80
ENDCHAR
STARTCHAR uni01DC
ENCODING 476
SWIDTH 693 0
DWIDTH 14 0
BBX 11 17 1 0
BITMAP
3800
0E00
0000
3B80
3B80
0000
E0E0
E0E0
E0E0
E0E0
E0E0
E0E0
E0E0
E0E0
E1E0
7FE0
3CE0
ENDCHAR
STARTCHAR uni01DD
ENCODING 477
SWIDTH 614 0
DWIDTH 12 0
BBX 11 11 0 0
BITMAP
7F00
FF80
83C0
01E0
FFE0
FFE0
E0E0
E1E0
73C0
7F80
1F00
ENDCHAR
STARTCHAR uni01DE
ENCODING 478
SWIDTH 773 0
DWIDTH 15 0
BBX 15 20 0 0
BITMAP
0FE0
0FE0
0000
0EE0
0EE0
0000
0780
07C0
07C0
0DE0
0CE0
0CE0
1870
1870
3FF8
3FF8
3038
603C
601C
E01E
ENDCHAR
STARTCHAR uni01DF
ENCODING 479
SWIDTH 623 0
DWIDTH 12 0
BBX 11 17 1 0
BITMAP
3F80
3F80
0000
3B80
3B80
0000
3F00
7F80
41C0
01C0
3FC0
7FC0
F1C0
E1C0
E3C0
FFE0
79E0
ENDCHAR
STARTCHAR uni01E0
ENCODING 480
SWIDTH 773 0
DWIDTH 15 0
BBX 15 20 0 0
BITMAP
0FE0
0FE0
0000
0380
0380
0000
0780
07C0
07C0
0DE0
0CE0
0CE0
1870
1870
3FF8
3FF8
3038
603C
601C
E01E
ENDCHAR
STARTCHAR uni01E1
ENCODING 481
SWIDTH 623 0
DWIDTH 12 0
BBX 11 17 1 0
BITMAP
3F80
3F80
0000
0E00
0E00
0000
3F00
7F80
41C0
01C0
3FC0
7FC0
F1C0
E1C0
E3C0
FFE0
79E0
ENDCHAR
STARTCHAR uni01E2
ENCODING 482
SWIDTH 997 0
DWIDTH 20 0
BBX 19 17 0 0
BITMAP
00FE00
00FE00
000000
00FFE0
00FFE0
01F000
03F000
037000
077000
067F80
0C7F80
0C7000
1FF000
3FF000
307000
607FE0
E07FE0
ENDCHAR
STARTCHAR uni01E3
ENCODING 483
SWIDTH 913 0
DWIDTH 18 0
BBX 17 14 0 0
BITMAP
07F000
07F000
000000
3F3E00
7FFF00
43E700
03C380
01C380
3FFF80
FFFF80
E1C000
E3E080
FEFF80
7C7F80
ENDCHAR
STARTCHAR uni01E4
ENCODING 484
SWIDTH 759 0
DWIDTH 15 0
BBX 13 14 1 0
BITMAP
07F8
1FF8
3C18
7000
F000
E000
E000
E038
E038
F038
7038
7C38
1FF8
07F0
ENDCHAR
STARTCHAR uni01E5
ENCODING 485
SWIDTH 696 0
DWIDTH 14 0
BBX 12 15 0 -4
BITMAP
1EF0
7FF0
70F0
F070
E070
E070
E070
E070
70F0
7F70
FFF0
FFF0
41F0
7FE0
3F80
ENDCHAR
STARTCHAR Gcaron
ENCODING 486
SWIDTH 759 0
DWIDTH 15 0
BBX 13 17 1 0
BITMAP
0EE0
0380
0000
07F8
1FF8
3C18
7000
F000
E000
E000
E038
E038
F038
7038
7C38
1FF8
07F0
ENDCHAR
STARTCHAR gcaron
ENCODING 487
SWIDTH 696 0
DWIDTH 14 0
BBX 12 18 0 -4
BITMAP
1DC0
0700
0000
1EF0
7FF0
70F0
F070
E070
E070
E070
E070
70F0
7F70
1E70
00F0
41F0
7FE0
3F80
ENDCHAR
STARTCHAR uni01E8
ENCODING 488
SWIDTH 753 0
DWIDTH 15 0
BBX 13 17 2 0
BITMAP
3B80
0E00
0000
E0F0
E0C0
E180
E380
E700
EE00
FC00
EE00
EF00
E780
E3C0
E1C0
E1E0
E0F8
ENDCHAR
STARTCHAR uni01E9
ENCODING 489
SWIDTH 681 0
DWIDTH 14 0
BBX 11 17 2 0
BITMAP
EE00
3800
0000
E000
E000
E000
E1C0
E380
E700
E600
EC00
FE00
EE00
E700
E780
E3C0
E3E0
ENDCHAR
STARTCHAR uni01EA
ENCODING 490
SWIDTH 855 0
DWIDTH 17 0
BBX 16 17 1 -3
BITMAP
07E0
1FF8
3C3C
700E
F00F
E007
E007
E007
E007
F00F
700E
3C3C
1FF8
07E0
0000
0380
03C0
ENDCHAR
STARTCHAR uni01EB
ENCODING 491
SWIDTH 675 0
DWIDTH 13 0
BBX 12 14 1 -3
BITMAP
1F80
3FC0
70E0
E070
E070
E070
E070
E070
70E0
3FC0
1F80
0000
0E00
0F00
ENDCHAR
STARTCHAR uni01EC
ENCODING 492
SWIDTH 855 0
DWIDTH 17 0
BBX 16 20 1 -3
BITMAP
07F0
07F0
0000
07E0
1FF8
3C3C
700E
F00F
E007
E007
E007
E007
F00F
700E
3C3C
1FF8
07E0
0000
0380
03C0
ENDCHAR
STARTCHAR uni01ED
ENCODING 493
SWIDTH 675 0
DWIDTH 13 0
BBX 12 17 1 -3
BITMAP
1FC0
1FC0
0000
1F80
3FC0
70E0
E070
E070
E070
E070
E070
70E0
3FC0
1F80
0000
0E00
0F00
ENDCHAR
STARTCHAR uni01F0
ENCODING 496
SWIDTH 361 0
DWIDTH 7 0
BBX 8 18 -1 -4
BITMAP
77
1C
00
0E
0E
0E
0E
0E
0E
0E
0E
0E
0E
0E
0E
8E
FE
FC
ENDCHAR
STARTCHAR uni01F4
ENCODING 500
SWIDTH 759 0
DWIDTH 15 0
BBX 13 17 1 0
BITMAP
01C0
0700
0000
07F8
1FF8
3C18
7000
F000
E000
E000
E038
E038
F038
7038
7C38
1FF8
07F0
ENDCHAR
STARTCHAR uni01F5
ENCODING 501
SWIDTH 696 0
DWIDTH 14 0
BBX 12 18 0 -4
BITMAP
01C0
0700
0000
1EF0
7FF0
70F0
F070
E070
E070
E070
E070
70F0
7F70
1E70
00F0
41F0
7FE0
3F80
ENDCHAR
STARTCHAR uni01F8
ENCODING 504
SWIDTH 783 0
DWIDTH 16 0
BBX 12 17 2 0
BITMAP
3800
0E00
0000
E030
F030
F030
F830
FC30
DE30
CE30
C730
C7B0
C3F0
C1F0
C0F0
C0F0
C070
ENDCHAR
STARTCHAR uni01F9
ENCODING 505
SWIDTH 693 0
DWIDTH 14 0
BBX 11 14 1 0
BITMAP
3800
0E00
0000
E780
FFC0
F0E0
E0E0
E0E0
E0E0
E0E0
E0E0
E0E0
E0E0
E0E0
ENDCHAR
STARTCHAR Aringacute
ENCODING 506
SWIDTH 773 0
DWIDTH 15 0
BBX 15 20 0 0
BITMAP
00E0
0380
0000
0380
0380
0000
0780
07C0
07C0
0DE0
0CE0
0CE0
1870
1870
3FF8
3FF8
3038
603C
601C
E01E
ENDCHAR
STARTCHAR aringacute
ENCODING 507
SWIDTH 623 0
DWIDTH 12 0
BBX 11 17 1 0
BITMAP
0380
0E00
0000
0E00
0E00
0000
3F00
7F80
41C0
01C0
3FC0
7FC0
F1C0
E1C0
E3C0
FFE0
79E0
ENDCHAR
STARTCHAR AEacute
ENCODING 508
SWIDTH 997 0
DWIDTH 20 0
BBX 19 17 0 0
BITMAP
001C00
007000
000000
00FFE0
00FFE0
01F000
03F000
037000
077000
067F80
0C7F80
0C7000
1FF000
3FF000
307000
607FE0
E07FE0
ENDCHAR
STARTCHAR aeacute
ENCODING 509
SWIDTH 913 0
DWIDTH 18 0
BBX 17 14 0 0
BITMAP
007000
01C000
000000
3F3E00
7FFF00
43E700
03C380
01C380
3FFF80
FFFF80
E1C000
E3E080
FEFF80
7C7F80
ENDCHAR
STARTCHAR Oslashacute
ENCODING 510
SWIDTH 855 0
DWIDTH 17 0
BBX 16 17 1 0
BITMAP
0070
01C0
0000
07E7
1FFC
3C3C
703E
F07F
E0E7
E1C7
E387
E707
FE0F
7C0E
3C3C
3FF8
E7E0
ENDCHAR
STARTCHAR oslashacute
ENCODING 511
SWIDTH 675 0
DWIDTH 13 0
BBX 12 14 1 0
BITMAP
01C0
0700
0000
1FF0
3FE0
71E0
E3F0
E370
E670
EC70
FC70
78E0
7FC0
FF80
ENDCHAR
STARTCHAR uni0200
ENCODING 512
SWIDTH 773 0
DWIDTH 15 0
BBX 15 17 0 0
BITMAP
1F80
07E0
0000
0780
07C0
07C0
0DE0
0CE0
0CE0
1870
1870
3FF8
3FF8
3038
603C
601C
E01E
ENDCHAR
STARTCHAR uni0201
ENCODING 513
SWIDTH 623 0
DWIDTH 12 0
BBX 11 14 1 0
BITMAP
7E00
1F80
0000
3F00
7F80
41C0
01C0
3FC0
7FC0
F1C0
E1C0
E3C0
FFE0
79E0
ENDCHAR
STARTCHAR uni0202
ENCODING 514
SWIDTH 773 0
DWIDTH 15 0
BBX 15 17 0 0
BITMAP
07C0
0EE0
0000
0780
07C0
07C0
0DE0
0CE0
0CE0
1870
1870
3FF8
3FF8
3038
603C
601C
E01E
ENDCHAR
STARTCHAR uni0203
ENCODING 515
SWIDTH 623 0
DWIDTH 12 0
BBX 11 14 1 0
BITMAP
1F00
3B80
0000
3F00
7F80
41C0
01C0
3FC0
7FC0
F1C0
E1C0
E3C0
FFE0
79E0
ENDCHAR
STARTCHAR uni0204
ENCODING 516
SWIDTH 645 0
DWIDTH 13 0
BBX 10 17 2 0
BITMAP
FC00
3F00
0000
FFC0
FFC0
E000
E000
E000
E000
FF00
FF00
E000
E000
E000
E000
FFC0
FFC0
ENDCHAR
STARTCHAR uni0205
ENCODING 517
SWIDTH 614 0
DWIDTH 12 0
BBX 11 14 0 0
BITMAP
7E00
1F80
0000
1F00
3FC0
79C0
F0E0
E0E0
FFE0
FFE0
F000
7820
3FE0
1FC0
ENDCHAR
STARTCHAR uni0206
ENCODING 518
SWIDTH 645 0
DWIDTH 13 0
BBX 10 17 2 0
BITMAP
3E00
7700
0000
FFC0
FFC0
E000
E000
E000
E000
FF00
FF00
E000
E000
E000
E000
FFC0
FFC0
ENDCHAR
STARTCHAR uni0207
ENCODING 519
SWIDTH 614 0
DWIDTH 12 0
BBX 11 14 0 0
BITMAP
1F00
3B80
0000
1F00
3FC0
79C0
F0E0
E0E0
FFE0
FFE0
F000
7820
3FE0
1FC0
ENDCHAR
STARTCHAR uni0208
ENCODING 520
SWIDTH 361 0
DWIDTH 7 0
BBX 8 17 -1 0
BITMAP
FC
3F
00
1C
1C
1C
1C
1C
1C
1C
1C
1C
1C
1C
1C
1C
1C
ENDCHAR
STARTCHAR uni0209
ENCODING 521
SWIDTH 361 0
DWIDTH 7 0
BBX 8 14 -1 0
BITMAP
FC
3F
00
1C
1C
1C
1C
1C
1C
1C
1C
1C
1C
1C
ENDCHAR
STARTCHAR uni020A
ENCODING 522
SWIDTH 361 0
DWIDTH 7 0
BBX 7 17 0 0
BITMAP
7C
EE
00
38
38
38
38
38
38
38
38
38
38
38
38
38
38
ENDCHAR
STARTCHAR uni020B
ENCODING 523
SWIDTH 361 0
DWIDTH 7 0
BBX 7 14 0 0
BITMAP
7C
EE
00
38
38
38
38
38
38
38
38
38
38
38
ENDCHAR
STARTCHAR uni020C
ENCODING 524
SWIDTH 855 0
DWIDTH 17 0
BBX 16 17 1 0
BITMAP
1F80
07E0
0000
07E0
1FF8
3C3C
700E
F00F
E007
E007
E007
E007
F00F
700E
3C3C
1FF8
07E0
ENDCHAR
STARTCHAR uni020D
ENCODING 525
SWIDTH 675 0
DWIDTH 13 0
BBX 12 14 1 0
BITMAP
7E00
1F80
0000
1F80
3FC0
70E0
E070
E070
E070
E070
E070
70E0
3FC0
1F80
ENDCHAR
STARTCHAR uni020E
ENCODING 526
SWIDTH 855 0
DWIDTH 17 0
BBX 16 17 1 0
BITMAP
03E0
0770
0000
07E0
1FF8
3C3C
700E
F00F
E007
E007
E007
E007
F00F
700E
3C3C
1FF8
07E0
ENDCHAR
STARTCHAR uni020F
ENCODING 527
SWIDTH 675 0
DWIDTH 13 0
BBX 12 14 1 0
BITMAP
0F80
1DC0
0000
1F80
3FC0
70E0
E070
E070
E070
E070
E070
70E0
3FC0
1F80
ENDCHAR
STARTCHAR uni0210
ENCODING 528
SWIDTH 734 0
DWIDTH 15 0
BBX 13 17 2 0
BITMAP
7E00
1F80
0000
FF80
FFC0
E0E0
E0E0
E0E0
E1C0
FF80
FF00
E700
E380
E3C0
E1E0
E1E0
E0F8
ENDCHAR
STARTCHAR uni0211
ENCODING 529
SWIDTH 500 0
DWIDTH 10 0
BBX 8 14 1 0
BITMAP
FC
3F
00
73
7F
7F
78
70
70
70
70
70
70
70
ENDCHAR
STARTCHAR uni0212
ENCODING 530
SWIDTH 734 0
DWIDTH 15 0
BBX 13 17 2 0
BITMAP
1F00
3B80
0000
FF80
FFC0
E0E0
E0E0
E0E0
E1C0
FF80
FF00
E700
E380
E3C0
E1E0
E1E0
E0F8
ENDCHAR
STARTCHAR uni0213
ENCODING 531
SWIDTH 500 0
DWIDTH 10 0
BBX 7 14 2 0
BITMAP
7C
EE
00
E6
FE
FE
F0
E0
E0
E0
E0
E0
E0
E0
ENDCHAR
STARTCHAR uni0214
ENCODING 532
SWIDTH 783 0
DWIDTH 16 0
BBX 12 17 2 0
BITMAP
7E00
1F80
0000
E070
E070
E070
E070
E070
E070
E070
E070
E070
E070
E070
70E0
7FE0
1F80
ENDCHAR
STARTCHAR uni0215
ENCODING 533
SWIDTH 693 0
DWIDTH 14 0
BBX 11 14 1 0
BITMAP
7E00
1F80
0000
E0E0
E0E0
E0E0
E0E0
E0E0
E0E0
E0E0
E0E0
E1E0
7FE0
3CE0
ENDCHAR
STARTCHAR uni0216
ENCODING 534
SWIDTH 783 0
DWIDTH 16 0
BBX 12 17 2 0
BITMAP
0F80
1DC0
0000
E070
E070
E070
E070
E070
E070
E070
E070
E070
E070
E070
70E0
7FE0
1F80
ENDCHAR
STARTCHAR uni0217
ENCODING 535
SWIDTH 693 0
DWIDTH 14 0
BBX 11 14 1 0
BITMAP
1F00
3B80
0000
E0E0
E0E0
E0E0
E0E0
E0E0
E0E0
E0E0
E0E0
E1E0
7FE0
3CE0
ENDCHAR
STARTCHAR Scommaaccent
ENCODING 536
SWIDTH 594 0
DWIDTH 12 0
BBX 11 22 1 -8
BITMAP
1FC0
7FC0
F040
F000
F800
7E00
3F00
1FC0
03E0
00E0
00E0
C1E0
FFC0
FF00
0000
0F00
0F00
0F00
0F00
0700
0600
0C00
ENDCHAR
STARTCHAR scommaaccent
ENCODING 537
SWIDTH 622 0
DWIDTH 12 0
BBX 10 19 1 -8
BITMAP
3F80
7F80
F080
F000
FE00
7F80
1FC0
07C0
83C0
FF80
FF00
0000
1E00
1E00
1E00
1E00
0E00
0C00
1800
ENDCHAR
STARTCHAR Tcommaaccent
ENCODING 538
SWIDTH 735 0
DWIDTH 15 0
BBX 13 22 1 -8
BITMAP
FFF8
FFF8
0700
0700
0700
0700
0700
0700
0700
0700
0700
0700
0700
0700
0000
0780
0780
0780
0780
0380
0300
0600
ENDCHAR
STARTCHAR tcommaaccent
ENCODING 539
SWIDTH 436 0
DWIDTH 9 0
BBX 6 21 1 -8
BITMAP
70
70
FC
FC
70
70
70
70
70
70
74
7C
3C
00
78
78
78
78
38
30
60
ENDCHAR
STARTCHAR uni021E
ENCODING 542
SWIDTH 813 0
DWIDTH 16 0
BBX 13 17 2 0
BITMAP
1DC0
0700
0000
E038
E038
E038
E038
E038
E038
FFF8
FFF8
E038
E038
E038
E038
E038
E038
ENDCHAR
STARTCHAR uni021F
ENCODING 543
SWIDTH 693 0
DWIDTH 14 0
BBX 11 17 1 0
BITMAP
EE00
3800
0000
E000
E000
E000
E780
EFC0
F0E0
E0E0
E0E0
E0E0
E0E0
E0E0
E0E0
E0E0
E0E0
ENDCHAR
STARTCHAR uni0226
ENCODING 550
SWIDTH 773 0
DWIDTH 15 0
BBX 15 17 0 0
BITMAP
0380
0380
0000
0780
07C0
07C0
0DE0
0CE0
0CE0
1870
1870
3FF8
3FF8
3038
603C
601C
E01E
ENDCHAR
STARTCHAR uni0227
ENCODING 551
SWIDTH 623 0
DWIDTH 12 0
BBX 11 14 1 0
BITMAP
0E00
0E00
0000
3F00
7F80
41C0
01C0
3FC0
7FC0
F1C0
E1C0
E3C0
FFE0
79E0
ENDCHAR
STARTCHAR uni0228
ENCODING 552
SWIDTH 645 0
DWIDTH 13 0
BBX 10 18 2 -4
BITMAP
FFC0
FFC0
E000
E000
E000
E000
FF00
FF00
E000
E000
E000
E000
FFC0
FFC0
1800
0400
1600
1E00
ENDCHAR
STARTCHAR uni0229
ENCODING 553
SWIDTH 614 0
DWIDTH 12 0
BBX 11 15 0 -4
BITMAP
1F00
3FC0
79C0
F0E0
E0E0
FFE0
FFE0
F000
7820
3FE0
1FC0
0C00
0200
0B00
0F00
ENDCHAR
STARTCHAR uni022A
ENCODING 554
SWIDTH 855 0
DWIDTH 17 0
BBX 16 20 1 0
BITMAP
07F0
07F0
0000
0770
0770
0000
07E0
1FF8
3C3C
700E
F00F
E007
E007
E007
E007
F00F
700E
3C3C
1FF8
07E0
ENDCHAR
STARTCHAR uni022B
ENCODING 555
SWIDTH 675 0
DWIDTH 13 0
BBX 12 17 1 0
BITMAP
1FC0
1FC0
0000
1DC0
1DC0
0000
1F80
3FC0
70E0
E070
E070
E070
E070
E070
70E0
3FC0
1F80
ENDCHAR
STARTCHAR uni022C
ENCODING 556
SWIDTH 855 0
DWIDTH 17 0
BBX 16 20 1 0
BITMAP
07F0
07F0
0000
03F0
07E0
0000
07E0
1FF8
3C3C
700E
F00F
E007
E007
E007
E007
F00F
700E
3C3C
1FF8
07E0
ENDCHAR
STARTCHAR uni022D
ENCODING 557
SWIDTH 675 0
DWIDTH 13 0
BBX 12 17 1 0
BITMAP
1FC0
1FC0
0000
0FC0
1F80
0000
1F80
3FC0
70E0
E070
E070
E070
E070
E070
70E0
3FC0
1F80
ENDCHAR
STARTCHAR uni022E
ENCODING 558
SWIDTH 855 0
DWIDTH 17 0
BBX 16 17 1 0
BITMAP
01C0
01C0
0000
07E0
1FF8
3C3C
700E
F00F
E007
E007
E007
E007
F00F
700E
3C3C
1FF8
07E0
ENDCHAR
STARTCHAR uni022F
ENCODING 559
SWIDTH 675 0
DWIDTH 13 0
BBX 12 14 1 0
BITMAP
0700
0700
0000
1F80
3FC0
70E0
E070
E070
E070
E070
E070
70E0
3FC0
1F80
ENDCHAR
STARTCHAR uni0230
ENCODING 560
SWIDTH 855 0
DWIDTH 17 0
BBX 16 20 1 0
BITMAP
07F0
07F0
0000
01C0
01C0
0000
07E0
1FF8
3C3C
700E
F00F
E007
E007
E007
E007
F00F
700E
3C3C
1FF8
07E0
ENDCHAR
STARTCHAR uni0231
ENCODING 561
SWIDTH 675 0
DWIDTH 13 0
BBX 12 17 1 0
BITMAP
1FC0
1FC0
0000
0700
0700
0000
1F80
3FC0
70E0
E070
E070
E070
E070
E070
70E0
3FC0
1F80
ENDCHAR
STARTCHAR uni0232
ENCODING 562
SWIDTH 738 0
DWIDTH 15 0
BBX 13 17 1 0
BITMAP
1FC0
1FC0
0000
F038
7830
3860
3CE0
1CC0
0FC0
0F80
0700
0700
0700
0700
0700
0700
0700
ENDCHAR
STARTCHAR uni0233
ENCODING 563
SWIDTH 645 0
DWIDTH 13 0
BBX 12 18 0 -4
BITMAP
3F80
3F80
0000
F070
7060
78E0
38C0
38C0
3D80
1D80
1F00
0F00
0E00
0E00
0E00
1C00
3C00
7800
ENDCHAR
STARTCHAR uni0250
ENCODING 592
SWIDTH 623 0
DWIDTH 12 0
BBX 11 11 1 0
BITMAP
F3C0
FFE0
78E0
70E0
71E0
7FC0
7F80
7000
7040
3FC0
1F80
ENDCHAR
STARTCHAR uni0254
ENCODING 596
SWIDTH 545 0
DWIDTH 11 0
BBX 8 11 2 0
BITMAP
F8
FE
8E
07
07
07
07
07
0E
FE
F8
ENDCHAR
STARTCHAR uni0258
ENCODING 600
SWIDTH 614 0
DWIDTH 12 0
BBX 11 11 0 0
BITMAP
1F00
7F80
73C0
E1E0
E0E0
FFE0
FFE0
01E0
83C0
FF80
7F00
ENDCHAR
STARTCHAR uni0259
ENCODING 601
SWIDTH 614 0
DWIDTH 12 0
BBX 11 11 0 0
BITMAP
7F00
FF80
83C0
01E0
FFE0
FFE0
E0E0
E1E0
73C0
7F80
1F00
ENDCHAR
STARTCHAR uni025F
ENCODING 607
SWIDTH 461 0
DWIDTH 9 0
BBX 8 14 1 -3
BITMAP
0E
0E
0E
0E
0E
0E
0E
0E
0E
7F
7F
0E
FE
FC
ENDCHAR
STARTCHAR uni0265
ENCODING 613
SWIDTH 693 0
DWIDTH 14 0
BBX 11 14 1 -3
BITMAP
E0E0
E0E0
E0E0
E0E0
E0E0
E0E0
E0E0
E0E0
E1E0
7EE0
3CE0
00E0
00E0
00E0
ENDCHAR
STARTCHAR uni0275
ENCODING 629
SWIDTH 675 0
DWIDTH 13 0
BBX 12 11 1 0
BITMAP
1F80
3FC0
70E0
E070
FFF0
FFF0
E070
E070
70E0
3FC0
1F80
ENDCHAR
STARTCHAR uni0279
ENCODING 633
SWIDTH 500 0
DWIDTH 10 0
BBX 7 11 2 0
BITMAP
0E
0E
0E
0E
0E
0E
0E
1E
FE
FE
CE
ENDCHAR
STARTCHAR uni0287
ENCODING 647
SWIDTH 436 0
DWIDTH 9 0
BBX 6 13 1 0
BITMAP
F0
F8
B8
38
38
38
38
38
38
FC
FC
38
38
ENDCHAR
STARTCHAR uni0288
ENCODING 648
SWIDTH 436 0
DWIDTH 9 0
BBX 8 17 1 -4
BITMAP
70
70
FC
FC
70
70
70
70
70
70
70
70
70
70
71
7F
3F
ENDCHAR
STARTCHAR uni0289
ENCODING 649
SWIDTH 693 0
DWIDTH 14 0
BBX 11 11 1 0
BITMAP
E0E0
E0E0
E0E0
E0E0
FFE0
FFE0
E0E0
E0E0
E1E0
7FE0
3CE0
ENDCHAR
STARTCHAR uni028C
ENCODING 652
SWIDTH 663 0
DWIDTH 13 0
BBX 12 11 1 0
BITMAP
0F00
0F00
1F00
1B80
1B80
3380
31C0
71C0
61E0
60E0
E0F0
ENDCHAR
STARTCHAR uni028D
ENCODING 653
SWIDTH 885 0
DWIDTH 18 0
BBX 17 11 0 0
BITMAP
1E1C00
1E3C00
1E3E00
3F3E00
376E00
376E00
376700
67E700
63C700
63C700
C3C380
ENDCHAR
STARTCHAR uni028E
ENCODING 654
SWIDTH 645 0
DWIDTH 13 0
BBX 12 15 0 0
BITMAP
01E0
03C0
0380
0700
0700
0700
0F00
0F80
1B80
1BC0
31C0
31C0
71E0
60E0
E0F0
ENDCHAR
STARTCHAR uni029E
ENCODING 670
SWIDTH 681 0
DWIDTH 14 0
BBX 11 14 2 -3
BITMAP
F8E0
78E0
3CE0
1CE0
0EE0
0FE0
06E0
0CE0
1CE0
38E0
70E0
00E0
00E0
00E0
ENDCHAR
STARTCHAR uni02BB
ENCODING 699
SWIDTH 265 0
DWIDTH 5 0
BBX 4 6 1 8
BITMAP
30
60
F0
F0
F0
F0
ENDCHAR
STARTCHAR afii57929
ENCODING 700
SWIDTH 265 0
DWIDTH 5 0
BBX 4 6 1 8
BITMAP
F0
F0
F0
70
60
C0
ENDCHAR
STARTCHAR afii64937
ENCODING 701
SWIDTH 265 0
DWIDTH 5 0
BBX 4 6 1 8
BITMAP
F0
F0
F0
E0
60
30
ENDCHAR
STARTCHAR circumflex
ENCODING 710
SWIDTH 675 0
DWIDTH 13 0
BBX 7 2 3 12
BITMAP
38
EE
ENDCHAR
STARTCHAR caron
ENCODING 711
SWIDTH 675 0
DWIDTH 13 0
BBX 7 2 3 12
BITMAP
EE
38
ENDCHAR
STARTCHAR uni02C8
ENCODING 712
SWIDTH 265 0
DWIDTH 5 0
BBX 4 6 1 8
BITMAP
F0
F0
F0
60
60
60
ENDCHAR
STARTCHAR macron
ENCODING 713
SWIDTH 675 0
DWIDTH 13 0
BBX 7 2 3 12
BITMAP
FE
FE
ENDCHAR
STARTCHAR uni02CA
ENCODING 714
SWIDTH 675 0
DWIDTH 13 0
BBX 5 2 5 12
BITMAP
38
E0
ENDCHAR
STARTCHAR uni02CB
ENCODING 715
SWIDTH 675 0
DWIDTH 13 0
BBX 5 2 4 12
BITMAP
E0
38
ENDCHAR
STARTCHAR uni02CD
ENCODING 717
SWIDTH 675 0
DWIDTH 13 0
BBX 7 2 3 -3
BITMAP
FE
FE
ENDCHAR
STARTCHAR uni02CE
ENCODING 718
SWIDTH 675 0
DWIDTH 13 0
BBX 5 2 4 -3
BITMAP
E0
38
ENDCHAR
STARTCHAR uni02CF
ENCODING 719
SWIDTH 675 0
DWIDTH 13 0
BBX 5 2 5 -3
BITMAP
38
E0
ENDCHAR
STARTCHAR breve
ENCODING 728
SWIDTH 675 0
DWIDTH 13 0
BBX 7 2 3 12
BITMAP
EE
7C
ENDCHAR
STARTCHAR dotaccent
ENCODING 729
SWIDTH 675 0
DWIDTH 13 0
BBX 3 2 5 12
BITMAP
E0
E0
ENDCHAR
STARTCHAR ring
ENCODING 730
SWIDTH 675 0
DWIDTH 13 0
BBX 3 2 5 12
BITMAP
E0
E0
ENDCHAR
STARTCHAR ogonek
ENCODING 731
SWIDTH 675 0
DWIDTH 13 0
BBX 4 2 5 -3
BITMAP
E0
F0
ENDCHAR
STARTCHAR tilde
ENCODING 732
SWIDTH 675 0
DWIDTH 13 0
BBX 7 2 3 12
BITMAP
7E
FC
ENDCHAR
STARTCHAR hungarumlaut
ENCODING 733
SWIDTH 675 0
DWIDTH 13 0
BBX 8 2 4 12
BITMAP
3F
FC
ENDCHAR
STARTCHAR uni02EE
ENCODING 750
SWIDTH 530 0
DWIDTH 11 0
BBX 9 6 1 8
BITMAP
E380
E380
E380
6180
6380
C300
ENDCHAR
STARTCHAR uni037E
ENCODING 894
SWIDTH 343 0
DWIDTH 7 0
BBX 3 14 2 -3
BITMAP
E0
E0
E0
00
00
00
00
E0
E0
E0
E0
60
40
C0
ENDCHAR
STARTCHAR tonos
ENCODING 900
SWIDTH 675 0
DWIDTH 13 0
BBX 5 2 5 12
BITMAP
38
E0
ENDCHAR
STARTCHAR dieresistonos
ENCODING 901
SWIDTH 675 0
DWIDTH 13 0
BBX 7 5 3 12
BITMAP
0E
38
00
EE
EE
ENDCHAR
STARTCHAR anoteleia
ENCODING 903
SWIDTH 343 0
DWIDTH 14 0
BBX 3 2 5 6
BITMAP
E0
E0
ENDCHAR
STARTCHAR mu
ENCODING 956
SWIDTH 699 0
DWIDTH 14 0
BBX 11 14 1 -3
BITMAP
E0E0
E0E0
E0E0
E0E0
E0E0
E0E0
E0E0
E0E0
E1E0
FEE0
FCE0
E000
E000
E000
ENDCHAR
STARTCHAR uni1E00
ENCODING 7680
SWIDTH 773 0
DWIDTH 15 0
BBX 15 17 0 -3
BITMAP
0780
07C0
07C0
0DE0
0CE0
0CE0
1870
1870
3FF8
3FF8
3038
603C
601C
E01E
0000
01C0
01C0
ENDCHAR
STARTCHAR uni1E01
ENCODING 7681
SWIDTH 623 0
DWIDTH 12 0
BBX 11 14 1 -3
BITMAP
3F00
7F80
41C0
01C0
3FC0
7FC0
F1C0
E1C0
E3C0
FFE0
79E0
0000
0E00
0E00
ENDCHAR
STARTCHAR uni1E02
ENCODING 7682
SWIDTH 669 0
DWIDTH 13 0
BBX 10 17 2 0
BITMAP
1C00
1C00
0000
FF00
FF00
E380
E380
E380
E700
FC00
FF00
E3C0
E1C0
E1C0
E1C0
FF80
FF00
ENDCHAR
STARTCHAR uni1E03
ENCODING 7683
SWIDTH 696 0
DWIDTH 14 0
BBX 12 17 1 0
BITMAP
3800
3800
0000
E000
E000
E000
E780
EFE0
F0E0
E070
E070
E070
E070
E0F0
F0E0
FFE0
E780
ENDCHAR
STARTCHAR uni1E04
ENCODING 7684
SWIDTH 669 0
DWIDTH 13 0
BBX 10 17 2 -3
BITMAP
FF00
FF00
E380
E380
E380
E700
FC00
FF00
E3C0
E1C0
E1C0
E1C0
FF80
FF00
0000
1C00
1C00
ENDCHAR
STARTCHAR uni1E05
ENCODING 7685
SWIDTH 696 0
DWIDTH 14 0
BBX 12 17 1 -3
BITMAP
E000
E000
E000
E780
EFE0
F0E0
E070
E070
E070
E070
E0F0
F0E0
FFE0
E780
0000
0E00
0E00
ENDCHAR
STARTCHAR uni1E06
ENCODING 7686
SWIDTH 669 0
DWIDTH 13 0
BBX 10 17 2 -3
BITMAP
FF00
FF00
E380
E380
E380
E700
FC00
FF00
E3C0
E1C0
E1C0
E1C0
FF80
FF00
0000
7F00
7F00
ENDCHAR
STARTCHAR uni1E07
ENCODING 7687
SWIDTH 696 0
DWIDTH 14 0
BBX 12 17 1 -3
BITMAP
E000
E000
E000
E780
EFE0
F0E0
E070
E070
E070
E070
E0F0
F0E0
FFE0
E780
0000
3F80
3F80
ENDCHAR
STARTCHAR uni1E08
ENCODING 7688
SWIDTH 726 0
DWIDTH 15 0
BBX 13 21 1 -4
BITMAP
01C0
0700
0000
07F8
1FF8
7C18
7000
F000
E000
E000
E000
E000
F000
7000
7C08
1FF8
0FF0
0200
0100
0580
0780
ENDCHAR
STARTCHAR uni1E09
ENCODING 7689
SWIDTH 545 0
DWIDTH 11 0
BBX 8 18 2 -4
BITMAP
0E
38
00
1F
7F
71
E0
E0
E0
E0
E0
70
7F
1F
30
08
2C
3C
ENDCHAR
STARTCHAR uni1E0A
ENCODING 7690
SWIDTH 819 0
DWIDTH 16 0
BBX 14 17 2 0
BITMAP
0700
0700
0000
FFC0
FFF0
E0F8
E038
E03C
E01C
E01C
E01C
E01C
E01C
E038
E078
FFF0
FFC0
ENDCHAR
STARTCHAR uni1E0B
ENCODING 7691
SWIDTH 696 0
DWIDTH 14 0
BBX 12 17 0 0
BITMAP
01C0
01C0
0000
0070
0070
0070
1F70
7FF0
70F0
F070
E070
E070
E070
E070
70F0
7F70
3E70
ENDCHAR
STARTCHAR uni1E0C
ENCODING 7692
SWIDTH 819 0
DWIDTH 16 0
BBX 14 17 2 -3
BITMAP
FFC0
FFF0
E0F8
E038
E03C
E01C
E01C
E01C
E01C
E01C
E038
E078
FFF0
FFC0
0000
0700
0700
ENDCHAR
STARTCHAR uni1E0D
ENCODING 7693
SWIDTH 696 0
DWIDTH 14 0
BBX 12 17 0 -3
BITMAP
0070
0070
0070
1F70
7FF0
70F0
F070
E070
E070
E070
E070
70F0
7F70
3E70
0000
0700
0700
ENDCHAR
STARTCHAR uni1E0E
ENCODING 7694
SWIDTH 819 0
DWIDTH 16 0
BBX 14 17 2 -3
BITMAP
FFC0
FFF0
E0F8
E038
E03C
E01C
E01C
E01C
E01C
E01C
E038
E078
FFF0
FFC0
0000
1FC0
1FC0
ENDCHAR
STARTCHAR uni1E0F
ENCODING 7695
SWIDTH 696 0
DWIDTH 14 0
BBX 12 17 0 -3
BITMAP
0070
0070
0070
1F70
7FF0
70F0
F070
E070
E070
E070
E070
70F0
7F70
3E70
0000
1FC0
1FC0
ENDCHAR
STARTCHAR uni1E10
ENCODING 7696
SWIDTH 819 0
DWIDTH 16 0
BBX 14 18 2 -4
BITMAP
FFC0
FFF0
E0F8
E038
E03C
E01C
E01C
E01C
E01C
E01C
E038
E078
FFF0
FFC0
0600
0100
0580
0780
ENDCHAR
STARTCHAR uni1E11
ENCODING 7697
SWIDTH 696 0
DWIDTH 14 0
BBX 12 18 0 -4
BITMAP
0070
0070
0070
1F70
7FF0
70F0
F070
E070
E070
E070
E070
70F0
7F70
3F70
0600
0100
0580
0780
ENDCHAR
STARTCHAR uni1E12
ENCODING 7698
SWIDTH 819 0
DWIDTH 16 0
BBX 14 17 2 -3
BITMAP
FFC0
FFF0
E0F8
E038
E03C
E01C
E01C
E01C
E01C
E01C
E038
E078
FFF0
FFC0
0000
0700
1DC0
ENDCHAR
STARTCHAR uni1E13
ENCODING 7699
SWIDTH 696 0
DWIDTH 14 0
BBX 12 17 0 -3
BITMAP
0070
0070
0070
1F70
7FF0
70F0
F070
E070
E070
E070
E070
70F0
7F70
3E70
0000
0700
1DC0
ENDCHAR
STARTCHAR uni1E14
ENCODING 7700
SWIDTH 645 0
DWIDTH 13 0
BBX 10 20 2 0
BITMAP
3800
0E00
0000
7F00
7F00
0000
FFC0
FFC0
E000
E000
E000
E000
FF00
FF00
E000
E000
E000
E000
FFC0
FFC0
ENDCHAR
STARTCHAR uni1E15
ENCODING 7701
SWIDTH 614 0
DWIDTH 12 0
BBX 11 17 0 0
BITMAP
3800
0E00
0000
3F80
3F80
0000
1F00
3FC0
79C0
F0E0
E0E0
FFE0
FFE0
F000
7820
3FE0
1FC0
ENDCHAR
STARTCHAR uni1E16
ENCODING 7702
SWIDTH 645 0
DWIDTH 13 0
BBX 10 20 2 0
BITMAP
0700
1C00
0000
7F00
7F00
0000
FFC0
FFC0
E000
E000
E000
E000
FF00
FF00
E000
E000
E000
E000
FFC0
FFC0
ENDCHAR
STARTCHAR uni1E17
ENCODING 7703
SWIDTH 614 0
DWIDTH 12 0
BBX 11 17 0 0
BITMAP
0380
0E00
0000
3F80
3F80
0000
1F00
3FC0
79C0
F0E0
E0E0
FFE0
FFE0
F000
7820
3FE0
1FC0
ENDCHAR
STARTCHAR uni1E18
ENCODING 7704
SWIDTH 645 0
DWIDTH 13 0
BBX 10 17 2 -3
BITMAP
FFC0
FFC0
E000
E000
E000
E000
FF00
FF00
E000
E000
E000
E000
FFC0
FFC0
0000
1C00
7700
ENDCHAR
STARTCHAR uni1E19
ENCODING 7705
SWIDTH 614 0
DWIDTH 12 0
BBX 11 14 0 -3
BITMAP
1F00
3FC0
79C0
F0E0
E0E0
FFE0
FFE0
F000
7820
3FE0
1FC0
0000
0E00
3B80
ENDCHAR
STARTCHAR uni1E1A
ENCODING 7706
SWIDTH 645 0
DWIDTH 13 0
BBX 10 17 2 -3
BITMAP
FFC0
FFC0
E000
E000
E000
E000
FF00
FF00
E000
E000
E000
E000
FFC0
FFC0
0000
3F00
7E00
ENDCHAR
STARTCHAR uni1E1B
ENCODING 7707
SWIDTH 614 0
DWIDTH 12 0
BBX 11 14 0 -3
BITMAP
1F00
3FC0
79C0
F0E0
E0E0
FFE0
FFE0
F000
7820
3FE0
1FC0
0000
1F80
3F00
ENDCHAR
STARTCHAR uni1E1C
ENCODING 7708
SWIDTH 645 0
DWIDTH 13 0
BBX 10 21 2 -4
BITMAP
7700
3E00
0000
FFC0
FFC0
E000
E000
E000
E000
FF00
FF00
E000
E000
E000
E000
FFC0
FFC0
1800
0400
1600
1E00
ENDCHAR
STARTCHAR uni1E1D
ENCODING 7709
SWIDTH 614 0
DWIDTH 12 0
BBX 11 18 0 -4
BITMAP
3B80
1F00
0000
1F00
3FC0
79C0
F0E0
E0E0
FFE0
FFE0
F000
7820
3FE0
1FC0
0C00
0200
0B00
0F00
ENDCHAR
STARTCHAR uni1E1E
ENCODING 7710
SWIDTH 602 0
DWIDTH 12 0
BBX 9 17 2 0
BITMAP
1C00
1C00
0000
FF80
FF80
E000
E000
E000
E000
FF00
FF00
E000
E000
E000
E000
E000
E000
ENDCHAR
STARTCHAR uni1E1F
ENCODING 7711
SWIDTH 461 0
DWIDTH 9 0
BBX 8 17 1 0
BITMAP
1C
1C
00
3F
7F
70
FE
FE
70
70
70
70
70
70
70
70
70
ENDCHAR
STARTCHAR uni1E20
ENCODING 7712
SWIDTH 759 0
DWIDTH 15 0
BBX 13 17 1 0
BITMAP
0FE0
0FE0
0000
07F8
1FF8
3C18
7000
F000
E000
E000
E038
E038
F038
7038
7C38
1FF8
07F0
ENDCHAR
STARTCHAR uni1E21
ENCODING 7713
SWIDTH 696 0
DWIDTH 14 0
BBX 12 18 0 -4
BITMAP
1FC0
1FC0
0000
1EF0
7FF0
70F0
F070
E070
E070
E070
E070
70F0
7F70
1E70
00F0
41F0
7FE0
3F80
ENDCHAR
STARTCHAR uni1E22
ENCODING 7714
SWIDTH 813 0
DWIDTH 16 0
BBX 13 17 2 0
BITMAP
0700
0700
0000
E038
E038
E038
E038
E038
E038
FFF8
FFF8
E038
E038
E038
E038
E038
E038
ENDCHAR
STARTCHAR uni1E23
ENCODING 7715
SWIDTH 693 0
DWIDTH 14 0
BBX 11 17 1 0
BITMAP
3800
3800
0000
E000
E000
E000
E780
EFC0
F0E0
E0E0
E0E0
E0E0
E0E0
E0E0
E0E0
E0E0
E0E0
ENDCHAR
STARTCHAR uni1E24
ENCODING 7716
SWIDTH 813 0
DWIDTH 16 0
BBX 13 17 2 -3
BITMAP
E038
E038
E038
E038
E038
E038
FFF8
FFF8
E038
E038
E038
E038
E038
E038
0000
0700
0700
ENDCHAR
STARTCHAR uni1E25
ENCODING 7717
SWIDTH 693 0
DWIDTH 14 0
BBX 11 17 1 -3
BITMAP
E000
E000
E000
E780
EFC0
F0E0
E0E0
E0E0
E0E0
E0E0
E0E0
E0E0
E0E0
E0E0
0000
0E00
0E00
ENDCHAR
STARTCHAR uni1E26
ENCODING 7718
SWIDTH 813 0
DWIDTH 16 0
BBX 13 17 2 0
BITMAP
1DC0
1DC0
0000
E038
E038
E038
E038
E038
E038
FFF8
FFF8
E038
E038
E038
E038
E038
E038
ENDCHAR
STARTCHAR uni1E27
ENCODING 7719
SWIDTH 693 0
DWIDTH 14 0
BBX 11 17 1 0
BITMAP
EE00
EE00
0000
E000
E000
E000
E780
EFC0
F0E0
E0E0
E0E0
E0E0
E0E0
E0E0
E0E0
E0E0
E0E0
ENDCHAR
STARTCHAR uni1E28
ENCODING 7720
SWIDTH 813 0
DWIDTH 16 0
BBX 13 18 2 -4
BITMAP
E038
E038
E038
E038
E038
E038
FFF8
FFF8
E038
E038
E038
E038
E038
E338
0600
0100
0580
0780
ENDCHAR
STARTCHAR uni1E29
ENCODING 7721
SWIDTH 693 0
DWIDTH 14 0
BBX 11 18 1 -4
BITMAP
E000
E000
E000
E780
EFC0
F0E0
E0E0
E0E0
E0E0
E0E0
E0E0
E0E0
E0E0
E6E0
0C00
0200
0B00
0F00
ENDCHAR
STARTCHAR uni1E2A
ENCODING 7722
SWIDTH 813 0
DWIDTH 16 0
BBX 13 17 2 -3
BITMAP
E038
E038
E038
E038
E038
E038
FFF8
FFF8
E038
E038
E038
E038
E038
E038
0000
1DC0
0F80
ENDCHAR
STARTCHAR uni1E2B
ENCODING 7723
SWIDTH 693 0
DWIDTH 14 0
BBX 11 17 1 -3
BITMAP
E000
E000
E000
E780
EFC0
F0E0
E0E0
E0E0
E0E0
E0E0
E0E0
E0E0
E0E0
E0E0
0000
3B80
1F00
ENDCHAR
STARTCHAR uni1E2C
ENCODING 7724
SWIDTH 361 0
DWIDTH 7 0
BBX 7 17 0 -3
BITMAP
38
38
38
38
38
38
38
38
38
38
38
38
38
38
00
7E
FC
ENDCHAR
STARTCHAR uni1E2D
ENCODING 7725
SWIDTH 361 0
DWIDTH 7 0
BBX 7 17 0 -3
BITMAP
38
38
00
38
38
38
38
38
38
38
38
38
38
38
00
7E
FC
ENDCHAR
STARTCHAR uni1E2E
ENCODING 7726
SWIDTH 361 0
DWIDTH 7 0
BBX 7 20 4 0
BITMAP
0E
38
00
EE
EE
00
38
38
38
38
38
38
38
38
38
38
38
38
38
38
ENDCHAR
STARTCHAR uni1E2F
ENCODING 7727
SWIDTH 361 0
DWIDTH 7 0
BBX 7 17 4 0
BITMAP
0E
38
00
EE
EE
00
38
38
38
38
38
38
38
38
38
38
38
ENDCHAR
STARTCHAR uni1E30
ENCODING 7728
SWIDTH 753 0
DWIDTH 15 0
BBX 13 17 2 0
BITMAP
0380
0E00
0000
E0F0
E0C0
E180
E380
E700
EE00
FC00
EE00
EF00
E780
E3C0
E1C0
E1E0
E0F8
ENDCHAR
STARTCHAR uni1E31
ENCODING 7729
SWIDTH 681 0
DWIDTH 14 0
BBX 11 17 2 0
BITMAP
0E00
3800
0000
E000
E000
E000
E1C0
E380
E700
E600
EC00
FE00
EE00
E700
E780
E3C0
E3E0
ENDCHAR
STARTCHAR uni1E32
ENCODING 7730
SWIDTH 753 0
DWIDTH 15 0
BBX 13 17 2 -3
BITMAP
E0F0
E0C0
E180
E380
E700
EE00
FC00
EE00
EF00
E780
E3C0
E1C0
E1E0
E0F8
0000
0700
0700
ENDCHAR
STARTCHAR uni1E33
ENCODING 7731
SWIDTH 681 0
DWIDTH 14 0
BBX 11 17 2 -3
BITMAP
E000
E000
E000
E1C0
E380
E700
E600
EC00
FE00
EE00
E700
E780
E3C0
E3E0
0000
0E00
0E00
ENDCHAR
STARTCHAR uni1E34
ENCODING 7732
SWIDTH 753 0
DWIDTH 15 0
BBX 13 17 2 -3
BITMAP
E0F0
E0C0
E180
E380
E700
EE00
FC00
EE00
EF00
E780
E3C0
E1C0
E1E0
E0F8
0000
1FC0
1FC0
ENDCHAR
STARTCHAR uni1E35
ENCODING 7733
SWIDTH 681 0
DWIDTH 14 0
BBX 11 17 2 -3
BITMAP
E000
E000
E000
E1C0
E380
E700
E600
EC00
FE00
EE00
E700
E780
E3C0
E3E0
0000
3F80
3F80
ENDCHAR
STARTCHAR uni1E36
ENCODING 7734
SWIDTH 620 0
DWIDTH 12 0
BBX 10 17 2 -3
BITMAP
E000
E000
E000
E000
E000
E000
E000
E000
E000
E000
E000
E000
FFC0
FFC0
0000
1C00
1C00
ENDCHAR
STARTCHAR uni1E37
ENCODING 7735
SWIDTH 361 0
DWIDTH 7 0
BBX 3 17 2 -3
BITMAP
E0
E0
E0
E0
E0
E0
E0
E0
E0
E0
E0
E0
E0
E0
00
E0
E0
ENDCHAR
STARTCHAR uni1E38
ENCODING 7736
SWIDTH 620 0
DWIDTH 12 0
BBX 11 20 1 -3
BITMAP
FE00
FE00
0000
7000
7000
7000
7000
7000
7000
7000
7000
7000
7000
7000
7000
7FE0
7FE0
0000
0E00
0E00
ENDCHAR
STARTCHAR uni1E39
ENCODING 7737
SWIDTH 361 0
DWIDTH 7 0
BBX 7 20 0 -3
BITMAP
FE
FE
00
38
38
38
38
38
38
38
38
38
38
38
38
38
38
00
38
38
ENDCHAR
STARTCHAR uni1E3A
ENCODING 7738
SWIDTH 620 0
DWIDTH 12 0
BBX 10 17 2 -3
BITMAP
E000
E000
E000
E000
E000
E000
E000
E000
E000
E000
E000
E000
FFC0
FFC0
0000
7F00
7F00
ENDCHAR
STARTCHAR uni1E3B
ENCODING 7739
SWIDTH 361 0
DWIDTH 7 0
BBX 7 17 0 -3
BITMAP
38
38
38
38
38
38
38
38
38
38
38
38
38
38
00
FE
FE
ENDCHAR
STARTCHAR uni1E3C
ENCODING 7740
SWIDTH 620 0
DWIDTH 12 0
BBX 10 17 2 -3
BITMAP
E000
E000
E000
E000
E000
E000
E000
E000
E000
E000
E000
E000
FFC0
FFC0
0000
1C00
7700
ENDCHAR
STARTCHAR uni1E3D
ENCODING 7741
SWIDTH 361 0
DWIDTH 7 0
BBX 7 17 0 -3
BITMAP
38
38
38
38
38
38
38
38
38
38
38
38
38
38
00
38
EE
ENDCHAR
STARTCHAR uni1E3E
ENCODING 7742
SWIDTH 940 0
DWIDTH 19 0
BBX 15 17 2 0
BITMAP
00E0
0380
0000
F81E
F83E
F83E
FC3E
DC7E
DC6E
DE6E
CEEE
CECE
CFCE
C78E
C78E
C38E
C00E
ENDCHAR
STARTCHAR uni1E3F
ENCODING 7743
SWIDTH 1006 0
DWIDTH 20 0
BBX 17 14 2 0
BITMAP
007000
01C000
000000
E78F00
EFDF80
F1E380
E1C380
E1C380
E1C380
E1C380
E1C380
E1C380
E1C380
E1C380
ENDCHAR
STARTCHAR uni1E40
ENCODING 7744
SWIDTH 940 0
DWIDTH 19 0
BBX 15 17 2 0
BITMAP
0380
0380
0000
F81E
F83E
F83E
FC3E
DC7E
DC6E
DE6E
CEEE
CECE
CFCE
C78E
C78E
C38E
C00E
ENDCHAR
STARTCHAR uni1E41
ENCODING 7745
SWIDTH 1006 0
DWIDTH 20 0
BBX 17 14 2 0
BITMAP
01C000
01C000
000000
E78F00
EFDF80
F1E380
E1C380
E1C380
E1C380
E1C380
E1C380
E1C380
E1C380
E1C380
ENDCHAR
STARTCHAR uni1E42
ENCODING 7746
SWIDTH 940 0
DWIDTH 19 0
BBX 15 17 2 -3
BITMAP
F81E
F83E
F83E
FC3E
DC7E
DC6E
DE6E
CEEE
CECE
CFCE
C78E
C78E
C38E
C00E
0000
0380
0380
ENDCHAR
STARTCHAR uni1E43
ENCODING 7747
SWIDTH 1006 0
DWIDTH 20 0
BBX 17 14 2 -3
BITMAP
E78F00
EFDF80
F1E380
E1C380
E1C380
E1C380
E1C380
E1C380
E1C380
E1C380
E1C380
000000
01C000
01C000
ENDCHAR
STARTCHAR uni1E44
ENCODING 7748
SWIDTH 783 0
DWIDTH 16 0
BBX 12 17 2 0
BITMAP
0E00
0E00
0000
E030
F030
F030
F830
FC30
DE30
CE30
C730
C7B0
C3F0
C1F0
C0F0
C0F0
C070
ENDCHAR
STARTCHAR uni1E45
ENCODING 7749
SWIDTH 693 0
DWIDTH 14 0
BBX 11 14 1 0
BITMAP
0E00
0E00
0000
E780
FFC0
F0E0
E0E0
E0E0
E0E0
E0E0
E0E0
E0E0
E0E0
E0E0
ENDCHAR
STARTCHAR uni1E46
ENCODING 7750
SWIDTH 783 0
DWIDTH 16 0
BBX 12 17 2 -3
BITMAP
E030
F030
F030
F830
FC30
DE30
CE30
C730
C7B0
C3F0
C1F0
C0F0
C0F0
C070
0000
0700
0700
ENDCHAR
STARTCHAR uni1E47
ENCODING 7751
SWIDTH 693 0
DWIDTH 14 0
BBX 11 14 1 -3
BITMAP
E780
FFC0
F0E0
E0E0
E0E0
E0E0
E0E0
E0E0
E0E0
E0E0
E0E0
0000
0E00
0E00
ENDCHAR
STARTCHAR uni1E48
ENCODING 7752
SWIDTH 783 0
DWIDTH 16 0
BBX 12 17 2 -3
BITMAP
E030
F030
F030
F830
FC30
DE30
CE30
C730
C7B0
C3F0
C1F0
C0F0
C0F0
C070
0000
1FC0
1FC0
ENDCHAR
STARTCHAR uni1E49
ENCODING 7753
SWIDTH 693 0
DWIDTH 14 0
BBX 11 14 1 -3
BITMAP
E780
FFC0
F0E0
E0E0
E0E0
E0E0
E0E0
E0E0
E0E0
E0E0
E0E0
0000
3F80
3F80
ENDCHAR
STARTCHAR uni1E4A
ENCODING 7754
SWIDTH 783 0
DWIDTH 16 0
BBX 12 17 2 -3
BITMAP
E030
F030
F030
F830
FC30
DE30
CE30
C730
C7B0
C3F0
C1F0
C0F0
C0F0
C070
0000
0700
1DC0
ENDCHAR
STARTCHAR uni1E4B
ENCODING 7755
SWIDTH 693 0
DWIDTH 14 0
BBX 11 14 1 -3
BITMAP
E780
FFC0
F0E0
E0E0
E0E0
E0E0
E0E0
E0E0
E0E0
E0E0
E0E0
0000
0E00
3B80
ENDCHAR
STARTCHAR uni1E4C
ENCODING 7756
SWIDTH 855 0
DWIDTH 17 0
BBX 16 20 1 0
BITMAP
00E0
0380
0000
03F0
07E0
0000
07E0
1FF8
3C3C
700E
F00F
E007
E007
E007
E007
F00F
700E
3C3C
1FF8
07E0
ENDCHAR
STARTCHAR uni1E4D
ENCODING 7757
SWIDTH 675 0
DWIDTH 13 0
BBX 12 17 1 0
BITMAP
0380
0E00
0000
0FC0
1F80
0000
1F80
3FC0
70E0
E070
E070
E070
E070
E070
70E0
3FC0
1F80
ENDCHAR
STARTCHAR uni1E4E
ENCODING 7758
SWIDTH 855 0
DWIDTH 17 0
BBX 16 20 1 0
BITMAP
0770
0770
0000
03F0
07E0
0000
07E0
1FF8
3C3C
700E
F00F
E007
E007
E007
E007
F00F
700E
3C3C
1FF8
07E0
ENDCHAR
STARTCHAR uni1E4F
ENCODING 7759
SWIDTH 675 0
DWIDTH 13 0
BBX 12 17 1 0
BITMAP
1DC0
1DC0
0000
0FC0
1F80
0000
1F80
3FC0
70E0
E070
E070
E070
E070
E070
70E0
3FC0
1F80
ENDCHAR
STARTCHAR uni1E50
ENCODING 7760
SWIDTH 855 0
DWIDTH 17 0
BBX 16 20 1 0
BITMAP
0700
01C0
0000
07F0
07F0
0000
07E0
1FF8
3C3C
700E
F00F
E007
E007
E007
E007
F00F
700E
3C3C
1FF8
07E0
ENDCHAR
STARTCHAR uni1E51
ENCODING 7761
SWIDTH 675 0
DWIDTH 13 0
BBX 12 17 1 0
BITMAP
1C00
0700
0000
1FC0
1FC0
0000
1F80
3FC0
70E0
E070
E070
E070
E070
E070
70E0
3FC0
1F80
ENDCHAR
STARTCHAR uni1E52
ENCODING 7762
SWIDTH 855 0
DWIDTH 17 0
BBX 16 20 1 0
BITMAP
00E0
0380
0000
07F0
07F0
0000
07E0
1FF8
3C3C
700E
F00F
E007
E007
E007
E007
F00F
700E
3C3C
1FF8
07E0
ENDCHAR
STARTCHAR uni1E53
ENCODING 7763
SWIDTH 675 0
DWIDTH 13 0
BBX 12 17 1 0
BITMAP
0380
0E00
0000
1FC0
1FC0
0000
1F80
3FC0
70E0
E070
E070
E070
E070
E070
70E0
3FC0
1F80
ENDCHAR
STARTCHAR uni1E54
ENCODING 7764
SWIDTH 657 0
DWIDTH 13 0
BBX 10 17 2 0
BITMAP
0700
1C00
0000
FF00
FFC0
E3C0
E1C0
E1C0
E1C0
E380
FF80
FE00
E000
E000
E000
E000
E000
ENDCHAR
STARTCHAR uni1E55
ENCODING 7765
SWIDTH 696 0
DWIDTH 14 0
BBX 12 18 1 -4
BITMAP
0380
0E00
0000
E7C0
EFE0
F0E0
E070
E070
E070
E070
E0F0
F0E0
FFE0
EF80
E000
E000
E000
E000
ENDCHAR
STARTCHAR uni1E56
ENCODING 7766
SWIDTH 657 0
DWIDTH 13 0
BBX 10 17 2 0
BITMAP
1C00
1C00
0000
FF00
FFC0
E3C0
E1C0
E1C0
E1C0
E380
FF80
FE00
E000
E000
E000
E000
E000
ENDCHAR
STARTCHAR uni1E57
ENCODING 7767
SWIDTH 696 0
DWIDTH 14 0
BBX 12 18 1 -4
BITMAP
0E00
0E00
0000
E7C0
EFE0
F0E0
E070
E070
E070
E070
E0F0
F0E0
FFE0
EF80
E000
E000
E000
E000
ENDCHAR
STARTCHAR uni1E58
ENCODING 7768
SWIDTH 734 0
DWIDTH 15 0
BBX 13 17 2 0
BITMAP
0E00
0E00
0000
FF80
FFC0
E0E0
E0E0
E0E0
E1C0
FF80
FF00
E700
E380
E3C0
E1E0
E1E0
E0F8
ENDCHAR
STARTCHAR uni1E59
ENCODING 7769
SWIDTH 500 0
DWIDTH 10 0
BBX 7 14 2 0
BITMAP
38
38
00
E6
FE
FE
F0
E0
E0
E0
E0
E0
E0
E0
ENDCHAR
STARTCHAR uni1E5A
ENCODING 7770
SWIDTH 734 0
DWIDTH 15 0
BBX 13 17 2 -3
BITMAP
FF80
FFC0
E0E0
E0E0
E0E0
E1C0
FF80
FF00
E700
E380
E3C0
E1E0
E1E0
E0F8
0000
0700
0700
ENDCHAR
STARTCHAR uni1E5B
ENCODING 7771
SWIDTH 500 0
DWIDTH 10 0
BBX 7 14 2 -3
BITMAP
E6
FE
FE
F0
E0
E0
E0
E0
E0
E0
E0
00
70
70
ENDCHAR
STARTCHAR uni1E5C
ENCODING 7772
SWIDTH 734 0
DWIDTH 15 0
BBX 13 20 2 -3
BITMAP
3F80
3F80
0000
FF80
FFC0
E0E0
E0E0
E0E0
E1C0
FF80
FF00
E700
E380
E3C0
E1E0
E1E0
E0F8
0000
0700
0700
ENDCHAR
STARTCHAR uni1E5D
ENCODING 7773
SWIDTH 500 0
DWIDTH 10 0
BBX 7 17 2 -3
BITMAP
FE
FE
00
E6
FE
FE
F0
E0
E0
E0
E0
E0
E0
E0
00
70
70
ENDCHAR
STARTCHAR uni1E5E
ENCODING 7774
SWIDTH 734 0
DWIDTH 15 0
BBX 13 17 2 -3
BITMAP
FF80
FFC0
E0E0
E0E0
E0E0
E1C0
FF80
FF00
E700
E380
E3C0
E1E0
E1E0
E0F8
0000
1FC0
1FC0
ENDCHAR
STARTCHAR uni1E5F
ENCODING 7775
SWIDTH 500 0
DWIDTH 10 0
BBX 8 14 1 -3
BITMAP
73
7F
7F
78
70
70
70
70
70
70
70
00
FE
FE
ENDCHAR
STARTCHAR uni1E60
ENCODING 7776
SWIDTH 594 0
DWIDTH 12 0
BBX 11 17 1 0
BITMAP
0E00
0E00
0000
1FC0
7FC0
F040
F000
F800
7E00
3F00
1FC0
03E0
00E0
00E0
C1E0
FFC0
FF00
ENDCHAR
STARTCHAR uni1E61
ENCODING 7777
SWIDTH 622 0
DWIDTH 12 0
BBX 10 14 1 0
BITMAP
1C00
1C00
0000
3F80
7F80
F080
F000
FE00
7F80
1FC0
07C0
83C0
FF80
FF00
ENDCHAR
STARTCHAR uni1E62
ENCODING 7778
SWIDTH 594 0
DWIDTH 12 0
BBX 11 17 1 -3
BITMAP
1FC0
7FC0
F040
F000
F800
7E00
3F00
1FC0
03E0
00E0
00E0
C1E0
FFC0
FF00
0000
0E00
0E00
ENDCHAR
STARTCHAR uni1E63
ENCODING 7779
SWIDTH 622 0
DWIDTH 12 0
BBX 10 14 1 -3
BITMAP
3F80
7F80
F080
F000
FE00
7F80
1FC0
07C0
83C0
FF80
FF00
0000
1C00
1C00
ENDCHAR
STARTCHAR uni1E64
ENCODING 7780
SWIDTH 594 0
DWIDTH 12 0
BBX 11 20 1 0
BITMAP
0E00
0E00
0000
0700
1C00
0000
1FC0
7FC0
F040
F000
F800
7E00
3F00
1FC0
03E0
00E0
00E0
C1E0
FFC0
FF00
ENDCHAR
STARTCHAR uni1E65
ENCODING 7781
SWIDTH 622 0
DWIDTH 12 0
BBX 10 17 1 0
BITMAP
0E00
0E00
0000
0700
1C00
0000
3F80
7F80
F080
F000
FE00
7F80
1FC0
07C0
83C0
FF80
FF00
ENDCHAR
STARTCHAR uni1E66
ENCODING 7782
SWIDTH 594 0
DWIDTH 12 0
BBX 11 20 1 0
BITMAP
0E00
0E00
0000
3B80
0E00
0000
1FC0
7FC0
F040
F000
F800
7E00
3F00
1FC0
03E0
00E0
00E0
C1E0
FFC0
FF00
ENDCHAR
STARTCHAR uni1E67
ENCODING 7783
SWIDTH 622 0
DWIDTH 12 0
BBX 10 17 1 0
BITMAP
0E00
0E00
0000
3B80
0E00
0000
3F80
7F80
F080
F000
FE00
7F80
1FC0
07C0
83C0
FF80
FF00
ENDCHAR
STARTCHAR uni1E68
ENCODING 7784
SWIDTH 594 0
DWIDTH 12 0
BBX 11 20 1 -3
BITMAP
1C00
1C00
0000
1FC0
7FC0
F040
F000
F800
7E00
3F00
1FC0
03E0
00E0
00E0
C1E0
FFC0
FF00
0000
0E00
0E00
ENDCHAR
STARTCHAR uni1E69
ENCODING 7785
SWIDTH 622 0
DWIDTH 12 0
BBX 10 17 1 -3
BITMAP
1C00
1C00
0000
3F80
7F80
F080
F000
FE00
7F80
1FC0
07C0
83C0
FF80
FF00
0000
1C00
1C00
ENDCHAR
STARTCHAR uni1E6A
ENCODING 7786
SWIDTH 735 0
DWIDTH 15 0
BBX 13 17 1 0
BITMAP
0700
0700
0000
FFF8
FFF8
0700
0700
0700
0700
0700
0700
0700
0700
0700
0700
0700
0700
ENDCHAR
STARTCHAR uni1E6B
ENCODING 7787
SWIDTH 436 0
DWIDTH 9 0
BBX 6 16 1 0
BITMAP
70
70
00
70
70
FC
FC
70
70
70
70
70
70
74
7C
3C
ENDCHAR
STARTCHAR uni1E6C
ENCODING 7788
SWIDTH 735 0
DWIDTH 15 0
BBX 13 17 1 -3
BITMAP
FFF8
FFF8
0700
0700
0700
0700
0700
0700
0700
0700
0700
0700
0700
0700
0000
0700
0700
ENDCHAR
STARTCHAR uni1E6D
ENCODING 7789
SWIDTH 436 0
DWIDTH 9 0
BBX 6 16 1 -3
BITMAP
70
70
FC
FC
70
70
70
70
70
70
74
7C
3C
00
38
38
ENDCHAR
STARTCHAR uni1E6E
ENCODING 7790
SWIDTH 735 0
DWIDTH 15 0
BBX 13 17 1 -3
BITMAP
FFF8
FFF8
0700
0700
0700
0700
0700
0700
0700
0700
0700
0700
0700
0700
0000
1FC0
1FC0
ENDCHAR
STARTCHAR uni1E6F
ENCODING 7791
SWIDTH 436 0
DWIDTH 9 0
BBX 7 16 1 -3
BITMAP
70
70
FC
FC
70
70
70
70
70
70
74
7C
3C
00
FE
FE
ENDCHAR
STARTCHAR uni1E70
ENCODING 7792
SWIDTH 735 0
DWIDTH 15 0
BBX 13 17 1 -3
BITMAP
FFF8
FFF8
0700
0700
0700
0700
0700
0700
0700
0700
0700
0700
0700
0700
0000
0700
1DC0
ENDCHAR
STARTCHAR uni1E71
ENCODING 7793
SWIDTH 436 0
DWIDTH 9 0
BBX 7 16 1 -3
BITMAP
70
70
FC
FC
70
70
70
70
70
70
74
7C
3C
00
38
EE
ENDCHAR
STARTCHAR uni1E72
ENCODING 7794
SWIDTH 783 0
DWIDTH 16 0
BBX 12 17 2 -3
BITMAP
E070
E070
E070
E070
E070
E070
E070
E070
E070
E070
E070
70E0
7FE0
1F80
0000
1DC0
1DC0
ENDCHAR
STARTCHAR uni1E73
ENCODING 7795
SWIDTH 693 0
DWIDTH 14 0
BBX 11 14 1 -3
BITMAP
E0E0
E0E0
E0E0
E0E0
E0E0
E0E0
E0E0
E0E0
E1E0
7FE0
3CE0
0000
3B80
3B80
ENDCHAR
STARTCHAR uni1E74
ENCODING 7796
SWIDTH 783 0
DWIDTH 16 0
BBX 12 17 2 -3
BITMAP
E070
E070
E070
E070
E070
E070
E070
E070
E070
E070
E070
70E0
7FE0
1F80
0000
1F80
3F00
ENDCHAR
STARTCHAR uni1E75
ENCODING 7797
SWIDTH 693 0
DWIDTH 14 0
BBX 11 14 1 -3
BITMAP
E0E0
E0E0
E0E0
E0E0
E0E0
E0E0
E0E0
E0E0
E1E0
7FE0
3CE0
0000
1F80
3F00
ENDCHAR
STARTCHAR uni1E76
ENCODING 7798
SWIDTH 783 0
DWIDTH 16 0
BBX 12 17 2 -3
BITMAP
E070
E070
E070
E070
E070
E070
E070
E070
E070
E070
E070
70E0
7FE0
1F80
0000
0700
1DC0
ENDCHAR
STARTCHAR uni1E77
ENCODING 7799
SWIDTH 693 0
DWIDTH 14 0
BBX 11 14 1 -3
BITMAP
E0E0
E0E0
E0E0
E0E0
E0E0
E0E0
E0E0
E0E0
E1E0
7FE0
3CE0
0000
0E00
3B80
ENDCHAR
STARTCHAR uni1E78
ENCODING 7800
SWIDTH 783 0
DWIDTH 16 0
BBX 12 20 2 0
BITMAP
0380
0E00
0000
0FC0
1F80
0000
E070
E070
E070
E070
E070
E070
E070
E070
E070
E070
E070
70E0
7FE0
1F80
ENDCHAR
STARTCHAR uni1E79
ENCODING 7801
SWIDTH 693 0
DWIDTH 14 0
BBX 11 17 1 0
BITMAP
0380
0E00
0000
1F80
3F00
0000
E0E0
E0E0
E0E0
E0E0
E0E0
E0E0
E0E0
E0E0
E1E0
7FE0
3CE0
ENDCHAR
STARTCHAR uni1E7A
ENCODING 7802
SWIDTH 783 0
DWIDTH 16 0
BBX 12 20 2 0
BITMAP
1DC0
1DC0
0000
1FC0
1FC0
0000
E070
E070
E070
E070
E070
E070
E070
E070
E070
E070
E070
70E0
7FE0
1F80
ENDCHAR
STARTCHAR uni1E7B
ENCODING 7803
SWIDTH 693 0
DWIDTH 14 0
BBX 11 17 1 0
BITMAP
3B80
3B80
0000
3F80
3F80
0000
E0E0
E0E0
E0E0
E0E0
E0E0
E0E0
E0E0
E0E0
E1E0
7FE0
3CE0
ENDCHAR
STARTCHAR uni1E7C
ENCODING 7804
SWIDTH 735 0
DWIDTH 15 0
BBX 14 17 0 0
BITMAP
0FC0
1F80
0000
F00C
7018
7818
3838
3830
3C30
1C60
1C60
0E60
0EC0
0EC0
07C0
0780
0780
ENDCHAR
STARTCHAR uni1E7D
ENCODING 7805
SWIDTH 663 0
DWIDTH 13 0
BBX 12 14 1 0
BITMAP
0FC0
1F80
0000
F070
7060
7860
38E0
38C0
1CC0
1D80
1D80
0F80
0F00
0F00
ENDCHAR
STARTCHAR uni1E7E
ENCODING 7806
SWIDTH 735 0
DWIDTH 15 0
BBX 14 17 0 -3
BITMAP
F00C
7018
7818
3838
3830
3C30
1C60
1C60
0E60
0EC0
0EC0
07C0
0780
0780
0000
0380
0380
ENDCHAR
STARTCHAR uni1E7F
ENCODING 7807
SWIDTH 663 0
DWIDTH 13 0
BBX 12 14 1 -3
BITMAP
F070
7060
7860
38E0
38C0
1CC0
1D80
1D80
0F80
0F00
0F00
0000
0700
0700
ENDCHAR
STARTCHAR Wgrave
ENCODING 7808
SWIDTH 940 0
DWIDTH 19 0
BBX 18 17 0 0
BITMAP
038000
00E000
000000
E0E0C0
70E180
70E180
71F180
71F180
39F300
39F300
3B3B00
3B3B00
1F3E00
1F3E00
1F3E00
1E1E00
0E1C00
ENDCHAR
STARTCHAR wgrave
ENCODING 7809
SWIDTH 885 0
DWIDTH 18 0
BBX 17 14 0 0
BITMAP
070000
01C000
000000
E1E180
71E300
71E300
73F300
737600
3B7600
3B7600
3E7E00
3E3C00
1E3C00
1C3C00
ENDCHAR
STARTCHAR Wacute
ENCODING 7810
SWIDTH 940 0
DWIDTH 19 0
BBX 18 17 0 0
BITMAP
007000
01C000
000000
E0E0C0
70E180
70E180
71F180
71F180
39F300
39F300
3B3B00
3B3B00
1F3E00
1F3E00
1F3E00
1E1E00
0E1C00
ENDCHAR
STARTCHAR wacute
ENCODING 7811
SWIDTH 885 0
DWIDTH 18 0
BBX 17 14 0 0
BITMAP
00E000
038000
000000
E1E180
71E300
71E300
73F300
737600
3B7600
3B7600
3E7E00
3E3C00
1E3C00
1C3C00
ENDCHAR
STARTCHAR Wdieresis
ENCODING 7812
SWIDTH 940 0
DWIDTH 19 0
BBX 18 17 0 0
BITMAP
077000
077000
000000
E0E0C0
70E180
70E180
71F180
71F180
39F300
39F300
3B3B00
3B3B00
1F3E00
1F3E00
1F3E00
1E1E00
0E1C00
ENDCHAR
STARTCHAR wdieresis
ENCODING 7813
SWIDTH 885 0
DWIDTH 18 0
BBX 17 14 0 0
BITMAP
077000
077000
000000
E1E180
71E300
71E300
73F300
737600
3B7600
3B7600
3E7E00
3E3C00
1E3C00
1C3C00
ENDCHAR
STARTCHAR uni1E86
ENCODING 7814
SWIDTH 940 0
DWIDTH 19 0
BBX 18 17 0 0
BITMAP
01C000
01C000
000000
E0E0C0
70E180
70E180
71F180
71F180
39F300
39F300
3B3B00
3B3B00
1F3E00
1F3E00
1F3E00
1E1E00
0E1C00
ENDCHAR
STARTCHAR uni1E87
ENCODING 7815
SWIDTH 885 0
DWIDTH 18 0
BBX 17 14 0 0
BITMAP
01C000
01C000
000000
E1E180
71E300
71E300
73F300
737600
3B7600
3B7600
3E7E00
3E3C00
1E3C00
1C3C00
ENDCHAR
STARTCHAR uni1E88
ENCODING 7816
SWIDTH 940 0
DWIDTH 19 0
BBX 18 17 0 -3
BITMAP
E0E0C0
70E180
70E180
71F180
71F180
39F300
39F300
3B3B00
3B3B00
1F3E00
1F3E00
1F3E00
1E1E00
0E1C00
000000
00E000
00E000
ENDCHAR
STARTCHAR uni1E89
ENCODING 7817
SWIDTH 885 0
DWIDTH 18 0
BBX 17 14 0 -3
BITMAP
E1E180
71E300
71E300
73F300
737600
3B7600
3B7600
3E7E00
3E3C00
1E3C00
1C3C00
000000
01C000
01C000
ENDCHAR
STARTCHAR uni1E8A
ENCODING 7818
SWIDTH 699 0
DWIDTH 14 0
BBX 13 17 1 0
BITMAP
0700
0700
0000
7038
3870
3CE0
1CC0
1FC0
0F80
0F00
0780
0F80
1FC0
19C0
30E0
70F0
E078
ENDCHAR
STARTCHAR uni1E8B
ENCODING 7819
SWIDTH 568 0
DWIDTH 11 0
BBX 11 14 0 0
BITMAP
0E00
0E00
0000
F8C0
79C0
3D80
3F00
1F00
1F00
1F00
1F80
37C0
73C0
E3E0
ENDCHAR
STARTCHAR uni1E8C
ENCODING 7820
SWIDTH 699 0
DWIDTH 14 0
BBX 13 17 1 0
BITMAP
1DC0
1DC0
0000
7038
3870
3CE0
1CC0
1FC0
0F80
0F00
0780
0F80
1FC0
19C0
30E0
70F0
E078
ENDCHAR
STARTCHAR uni1E8D
ENCODING 7821
SWIDTH 568 0
DWIDTH 11 0
BBX 11 14 0 0
BITMAP
3B80
3B80
0000
F8C0
79C0
3D80
3F00
1F00
1F00
1F00
1F80
37C0
73C0
E3E0
ENDCHAR
STARTCHAR uni1E8E
ENCODING 7822
SWIDTH 738 0
DWIDTH 15 0
BBX 13 17 1 0
BITMAP
0700
0700
0000
F038
7830
3860
3CE0
1CC0
0FC0
0F80
0700
0700
0700
0700
0700
0700
0700
ENDCHAR
STARTCHAR uni1E8F
ENCODING 7823
SWIDTH 645 0
DWIDTH 13 0
BBX 12 18 0 -4
BITMAP
0E00
0E00
0000
F070
7060
78E0
38C0
38C0
3D80
1D80
1F00
0F00
0E00
0E00
0E00
1C00
3C00
7800
ENDCHAR
STARTCHAR uni1E90
ENCODING 7824
SWIDTH 675 0
DWIDTH 13 0
BBX 11 17 1 0
BITMAP
0E00
3B80
0000
FFE0
FFE0
01C0
03C0
0780
0700
0F00
1E00
1C00
3C00
7800
7000
FFE0
FFE0
ENDCHAR
STARTCHAR uni1E91
ENCODING 7825
SWIDTH 608 0
DWIDTH 12 0
BBX 10 14 1 0
BITMAP
0E00
3B80
0000
FFC0
FFC0
0780
0700
0F00
1E00
3C00
7800
F000
FFC0
FFC0
ENDCHAR
STARTCHAR uni1E92
ENCODING 7826
SWIDTH 675 0
DWIDTH 13 0
BBX 11 17 1 -3
BITMAP
FFE0
FFE0
01C0
03C0
0780
0700
0F00
1E00
1C00
3C00
7800
7000
FFE0
FFE0
0000
0E00
0E00
ENDCHAR
STARTCHAR uni1E93
ENCODING 7827
SWIDTH 608 0
DWIDTH 12 0
BBX 10 14 1 -3
BITMAP
FFC0
FFC0
0780
0700
0F00
1E00
3C00
7800
F000
FFC0
FFC0
0000
1C00
1C00
ENDCHAR
STARTCHAR uni1E94
ENCODING 7828
SWIDTH 675 0
DWIDTH 13 0
BBX 11 17 1 -3
BITMAP
FFE0
FFE0
01C0
03C0
0780
0700
0F00
1E00
1C00
3C00
7800
7000
FFE0
FFE0
0000
3F80
3F80
ENDCHAR
STARTCHAR uni1E95
ENCODING 7829
SWIDTH 608 0
DWIDTH 12 0
BBX 10 14 1 -3
BITMAP
FFC0
FFC0
0780
0700
0F00
1E00
3C00
7800
F000
FFC0
FFC0
0000
7F00
7F00
ENDCHAR
STARTCHAR uni1E96
ENCODING 7830
SWIDTH 693 0
DWIDTH 14 0
BBX 11 17 1 -3
BITMAP
E000
E000
E000
E780
EFC0
F0E0
E0E0
E0E0
E0E0
E0E0
E0E0
E0E0
E0E0
E0E0
0000
3F80
3F80
ENDCHAR
STARTCHAR uni1E97
ENCODING 7831
SWIDTH 436 0
DWIDTH 9 0
BBX 7 16 0 0
BITMAP
EE
EE
00
38
38
7E
7E
38
38
38
38
38
38
3A
3E
1E
ENDCHAR
STARTCHAR uni1E98
ENCODING 7832
SWIDTH 885 0
DWIDTH 18 0
BBX 17 14 0 0
BITMAP
01C000
01C000
000000
E1E180
71E300
71E300
73F300
737600
3B7600
3B7600
3E7E00
3E3C00
1E3C00
1C3C00
ENDCHAR
STARTCHAR uni1E99
ENCODING 7833
SWIDTH 645 0
DWIDTH 13 0
BBX 12 18 0 -4
BITMAP
0E00
0E00
0000
F070
7060
78E0
38C0
38C0
3D80
1D80
1F00
0F00
0E00
0E00
0E00
1C00
3C00
7800
ENDCHAR
STARTCHAR uni1EA0
ENCODING 7840
SWIDTH 773 0
DWIDTH 15 0
BBX 15 17 0 -3
BITMAP
0780
07C0
07C0
0DE0
0CE0
0CE0
1870
1870
3FF8
3FF8
3038
603C
601C
E01E
0000
01C0
01C0
ENDCHAR
STARTCHAR uni1EA1
ENCODING 7841
SWIDTH 623 0
DWIDTH 12 0
BBX 11 14 1 -3
BITMAP
3F00
7F80
41C0
01C0
3FC0
7FC0
F1C0
E1C0
E3C0
FFE0
79E0
0000
0E00
0E00
ENDCHAR
STARTCHAR uni1EA4
ENCODING 7844
SWIDTH 773 0
DWIDTH 15 0
BBX 15 20 0 0
BITMAP
00E0
0380
0000
0380
0EE0
0000
0780
07C0
07C0
0DE0
0CE0
0CE0
1870
1870
3FF8
3FF8
3038
603C
601C
E01E
ENDCHAR
STARTCHAR uni1EA5
ENCODING 7845
SWIDTH 623 0
DWIDTH 12 0
BBX 11 17 1 0
BITMAP
0380
0E00
0000
0E00
3B80
0000
3F00
7F80
41C0
01C0
3FC0
7FC0
F1C0
E1C0
E3C0
FFE0
79E0
ENDCHAR
STARTCHAR uni1EA6
ENCODING 7846
SWIDTH 773 0
DWIDTH 15 0
BBX 15 20 0 0
BITMAP
0E00
0380
0000
0380
0EE0
0000
0780
07C0
07C0
0DE0
0CE0
0CE0
1870
1870
3FF8
3FF8
3038
603C
601C
E01E
ENDCHAR
STARTCHAR uni1EA7
ENCODING 7847
SWIDTH 623 0
DWIDTH 12 0
BBX 11 17 1 0
BITMAP
3800
0E00
0000
0E00
3B80
0000
3F00
7F80
41C0
01C0
3FC0
7FC0
F1C0
E1C0
E3C0
FFE0
79E0
ENDCHAR
STARTCHAR uni1EAA
ENCODING 7850
SWIDTH 773 0
DWIDTH 15 0
BBX 15 20 0 0
BITMAP
07E0
0FC0
0000
0380
0EE0
0000
0780
07C0
07C0
0DE0
0CE0
0CE0
1870
1870
3FF8
3FF8
3038
603C
601C
E01E
ENDCHAR
STARTCHAR uni1EAB
ENCODING 7851
SWIDTH 623 0
DWIDTH 12 0
BBX 11 17 1 0
BITMAP
1F80
3F00
0000
0E00
3B80
0000
3F00
7F80
41C0
01C0
3FC0
7FC0
F1C0
E1C0
E3C0
FFE0
79E0
ENDCHAR
STARTCHAR uni1EAC
ENCODING 7852
SWIDTH 773 0
DWIDTH 15 0
BBX 15 20 0 -3
BITMAP
0380
0EE0
0000
0780
07C0
07C0
0DE0
0CE0
0CE0
1870
1870
3FF8
3FF8
3038
603C
601C
E01E
0000
01C0
01C0
ENDCHAR
STARTCHAR uni1EAD
ENCODING 7853
SWIDTH 623 0
DWIDTH 12 0
BBX 11 17 1 -3
BITMAP
0E00
3B80
0000
3F00
7F80
41C0
01C0
3FC0
7FC0
F1C0
E1C0
E3C0
FFE0
79E0
0000
0E00
0E00
ENDCHAR
STARTCHAR uni1EAE
ENCODING 7854
SWIDTH 773 0
DWIDTH 15 0
BBX 15 20 0 0
BITMAP
00E0
0380
0000
0EE0
07C0
0000
0780
07C0
07C0
0DE0
0CE0
0CE0
1870
1870
3FF8
3FF8
3038
603C
601C
E01E
ENDCHAR
STARTCHAR uni1EAF
ENCODING 7855
SWIDTH 623 0
DWIDTH 12 0
BBX 11 17 1 0
BITMAP
0380
0E00
0000
3B80
1F00
0000
3F00
7F80
41C0
01C0
3FC0
7FC0
F1C0
E1C0
E3C0
FFE0
79E0
ENDCHAR
STARTCHAR uni1EB0
ENCODING 7856
SWIDTH 773 0
DWIDTH 15 0
BBX 15 20 0 0
BITMAP
0E00
0380
0000
0EE0
07C0
0000
0780
07C0
07C0
0DE0
0CE0
0CE0
1870
1870
3FF8
3FF8
3038
603C
601C
E01E
ENDCHAR
STARTCHAR uni1EB1
ENCODING 7857
SWIDTH 623 0
DWIDTH 12 0
BBX 11 17 1 0
BITMAP
3800
0E00
0000
3B80
1F00
0000
3F00
7F80
41C0
01C0
3FC0
7FC0
F1C0
E1C0
E3C0
FFE0
79E0
ENDCHAR
STARTCHAR uni1EB4
ENCODING 7860
SWIDTH 773 0
DWIDTH 15 0
BBX 15 20 0 0
BITMAP
07E0
0FC0
0000
0EE0
07C0
0000
0780
07C0
07C0
0DE0
0CE0
0CE0
1870
1870
3FF8
3FF8
3038
603C
601C
E01E
ENDCHAR
STARTCHAR uni1EB5
ENCODING 7861
SWIDTH 623 0
DWIDTH 12 0
BBX 11 17 1 0
BITMAP
1F80
3F00
0000
3B80
1F00
0000
3F00
7F80
41C0
01C0
3FC0
7FC0
F1C0
E1C0
E3C0
FFE0
79E0
ENDCHAR
STARTCHAR uni1EB6
ENCODING 7862
SWIDTH 773 0
DWIDTH 15 0
BBX 15 20 0 -3
BITMAP
0EE0
07C0
0000
0780
07C0
07C0
0DE0
0CE0
0CE0
1870
1870
3FF8
3FF8
3038
603C
601C
E01E
0000
01C0
01C0
ENDCHAR
STARTCHAR uni1EB7
ENCODING 7863
SWIDTH 623 0
DWIDTH 12 0
BBX 11 17 1 -3
BITMAP
3B80
1F00
0000
3F00
7F80
41C0
01C0
3FC0
7FC0
F1C0
E1C0
E3C0
FFE0
79E0
0000
0E00
0E00
ENDCHAR
STARTCHAR uni1EB8
ENCODING 7864
SWIDTH 645 0
DWIDTH 13 0
BBX 10 17 2 -3
BITMAP
FFC0
FFC0
E000
E000
E000
E000
FF00
FF00
E000
E000
E000
E000
FFC0
FFC0
0000
1C00
1C00
ENDCHAR
STARTCHAR uni1EB9
ENCODING 7865
SWIDTH 614 0
DWIDTH 12 0
BBX 11 14 0 -3
BITMAP
1F00
3FC0
79C0
F0E0
E0E0
FFE0
FFE0
F000
7820
3FE0
1FC0
0000
0E00
0E00
ENDCHAR
STARTCHAR uni1EBC
ENCODING 7868
SWIDTH 645 0
DWIDTH 13 0
BBX 10 17 2 0
BITMAP
3F00
7E00
0000
FFC0
FFC0
E000
E000
E000
E000
FF00
FF00
E000
E000
E000
E000
FFC0
FFC0
ENDCHAR
STARTCHAR uni1EBD
ENCODING 7869
SWIDTH 614 0
DWIDTH 12 0
BBX 11 14 0 0
BITMAP
1F80
3F00
0000
1F00
3FC0
79C0
F0E0
E0E0
FFE0
FFE0
F000
7820
3FE0
1FC0
ENDCHAR
STARTCHAR uni1EBE
ENCODING 7870
SWIDTH 645 0
DWIDTH 13 0
BBX 10 20 2 0
BITMAP
0700
1C00
0000
1C00
7700
0000
FFC0
FFC0
E000
E000
E000
E000
FF00
FF00
E000
E000
E000
E000
FFC0
FFC0
ENDCHAR
STARTCHAR uni1EBF
ENCODING 7871
SWIDTH 614 0
DWIDTH 12 0
BBX 11 17 0 0
BITMAP
0380
0E00
0000
0E00
3B80
0000
1F00
3FC0
79C0
F0E0
E0E0
FFE0
FFE0
F000
7820
3FE0
1FC0
ENDCHAR
STARTCHAR uni1EC0
ENCODING 7872
SWIDTH 645 0
DWIDTH 13 0
BBX 10 20 2 0
BITMAP
3800
0E00
0000
1C00
7700
0000
FFC0
FFC0
E000
E000
E000
E000
FF00
FF00
E000
E000
E000
E000
FFC0
FFC0
ENDCHAR
STARTCHAR uni1EC1
ENCODING 7873
SWIDTH 614 0
DWIDTH 12 0
BBX 11 17 0 0
BITMAP
3800
0E00
0000
0E00
3B80
0000
1F00
3FC0
79C0
F0E0
E0E0
FFE0
FFE0
F000
7820
3FE0
1FC0
ENDCHAR
STARTCHAR uni1EC4
ENCODING 7876
SWIDTH 645 0
DWIDTH 13 0
BBX 10 20 2 0
BITMAP
1F80
3F00
0000
1C00
7700
0000
FFC0
FFC0
E000
E000
E000
E000
FF00
FF00
E000
E000
E000
E000
FFC0
FFC0
ENDCHAR
STARTCHAR uni1EC5
ENCODING 7877
SWIDTH 614 0
DWIDTH 12 0
BBX 11 17 0 0
BITMAP
1F80
3F00
0000
0E00
3B80
0000
1F00
3FC0
79C0
F0E0
E0E0
FFE0
FFE0
F000
7820
3FE0
1FC0
ENDCHAR
STARTCHAR uni1EC6
ENCODING 7878
SWIDTH 645 0
DWIDTH 13 0
BBX 10 20 2 -3
BITMAP
1C00
7700
0000
FFC0
FFC0
E000
E000
E000
E000
FF00
FF00
E000
E000
E000
E000
FFC0
FFC0
0000
1C00
1C00
ENDCHAR
STARTCHAR uni1EC7
ENCODING 7879
SWIDTH 614 0
DWIDTH 12 0
BBX 11 17 0 -3
BITMAP
0E00
3B80
0000
1F00
3FC0
79C0
F0E0
E0E0
FFE0
FFE0
F000
7820
3FE0
1FC0
0000
0E00
0E00
ENDCHAR
STARTCHAR uni1ECA
ENCODING 7882
SWIDTH 361 0
DWIDTH 7 0
BBX 3 17 2 -3
BITMAP
E0
E0
E0
E0
E0
E0
E0
E0
E0
E0
E0
E0
E0
E0
00
E0
E0
ENDCHAR
STARTCHAR uni1ECB
ENCODING 7883
SWIDTH 361 0
DWIDTH 7 0
BBX 3 17 2 -3
BITMAP
E0
E0
00
E0
E0
E0
E0
E0
E0
E0
E0
E0
E0
E0
00
E0
E0
ENDCHAR
STARTCHAR uni1ECC
ENCODING 7884
SWIDTH 855 0
DWIDTH 17 0
BBX 16 17 1 -3
BITMAP
07E0
1FF8
3C3C
700E
F00F
E007
E007
E007
E007
F00F
700E
3C3C
1FF8
07E0
0000
01C0
01C0
ENDCHAR
STARTCHAR uni1ECD
ENCODING 7885
SWIDTH 675 0
DWIDTH 13 0
BBX 12 14 1 -3
BITMAP
1F80
3FC0
70E0
E070
E070
E070
E070
E070
70E0
3FC0
1F80
0000
0700
0700
ENDCHAR
STARTCHAR uni1ED0
ENCODING 7888
SWIDTH 855 0
DWIDTH 17 0
BBX 16 20 1 0
BITMAP
00E0
0380
0000
01C0
0770
0000
07E0
1FF8
3C3C
700E
F00F
E007
E007
E007
E007
F00F
700E
3C3C
1FF8
07E0
ENDCHAR
STARTCHAR uni1ED1
ENCODING 7889
SWIDTH 675 0
DWIDTH 13 0
BBX 12 17 1 0
BITMAP
0380
0E00
0000
0700
1DC0
0000
1F80
3FC0
70E0
E070
E070
E070
E070
E070
70E0
3FC0
1F80
ENDCHAR
STARTCHAR uni1ED2
ENCODING 7890
SWIDTH 855 0
DWIDTH 17 0
BBX 16 20 1 0
BITMAP
0700
01C0
0000
01C0
0770
0000
07E0
1FF8
3C3C
700E
F00F
E007
E007
E007
E007
F00F
700E
3C3C
1FF8
07E0
ENDCHAR
STARTCHAR uni1ED3
ENCODING 7891
SWIDTH 675 0
DWIDTH 13 0
BBX 12 17 1 0
BITMAP
1C00
0700
0000
0700
1DC0
0000
1F80
3FC0
70E0
E070
E070
E070
E070
E070
70E0
3FC0
1F80
ENDCHAR
STARTCHAR uni1ED6
ENCODING 7894
SWIDTH 855 0
DWIDTH 17 0
BBX 16 20 1 0
BITMAP
03F0
07E0
0000
01C0
0770
0000
07E0
1FF8
3C3C
700E
F00F
E007
E007
E007
E007
F00F
700E
3C3C
1FF8
07E0
ENDCHAR
STARTCHAR uni1ED7
ENCODING 7895
SWIDTH 675 0
DWIDTH 13 0
BBX 12 17 1 0
BITMAP
0FC0
1F80
0000
0700
1DC0
0000
1F80
3FC0
70E0
E070
E070
E070
E070
E070
70E0
3FC0
1F80
ENDCHAR
STARTCHAR uni1ED8
ENCODING 7896
SWIDTH 855 0
DWIDTH 17 0
BBX 16 20 1 -3
BITMAP
01C0
0770
0000
07E0
1FF8
3C3C
700E
F00F
E007
E007
E007
E007
F00F
700E
3C3C
1FF8
07E0
0000
01C0
01C0
ENDCHAR
STARTCHAR uni1ED9
ENCODING 7897
SWIDTH 675 0
DWIDTH 13 0
BBX 12 17 1 -3
BITMAP
0700
1DC0
0000
1F80
3FC0
70E0
E070
E070
E070
E070
E070
70E0
3FC0
1F80
0000
0700
0700
ENDCHAR
STARTCHAR uni1EDA
ENCODING 7898
SWIDTH 855 0
DWIDTH 17 0
BBX 19 17 1 0
BITMAP
001C00
007000
000000
07E1E0
1FF9E0
3C3DE0
700EE0
F00FC0
E00780
E00700
E00700
E00700
F00F00
700E00
3C3C00
1FF800
07E000
ENDCHAR
STARTCHAR uni1EDB
ENCODING 7899
SWIDTH 675 0
DWIDTH 13 0
BBX 15 14 1 0
BITMAP
00E0
0380
0000
1F9E
3FDE
70FE
E07E
E07C
E078
E070
E070
70E0
3FC0
1F80
ENDCHAR
STARTCHAR uni1EDC
ENCODING 7900
SWIDTH 855 0
DWIDTH 17 0
BBX 19 17 1 0
BITMAP
01C000
007000
000000
07E1E0
1FF9E0
3C3DE0
700EE0
F00FC0
E00780
E00700
E00700
E00700
F00F00
700E00
3C3C00
1FF800
07E000
ENDCHAR
STARTCHAR uni1EDD
ENCODING 7901
SWIDTH 675 0
DWIDTH 13 0
BBX 15 14 1 0
BITMAP
0700
01C0
0000
1F9E
3FDE
70FE
E07E
E07C
E078
E070
E070
70E0
3FC0
1F80
ENDCHAR
STARTCHAR uni1EE0
ENCODING 7904
SWIDTH 855 0
DWIDTH 17 0
BBX 19 17 1 0
BITMAP
00FC00
01F800
000000
07E1E0
1FF9E0
3C3DE0
700EE0
F00FC0
E00780
E00700
E00700
E00700
F00F00
700E00
3C3C00
1FF800
07E000
ENDCHAR
STARTCHAR uni1EE1
ENCODING 7905
SWIDTH 675 0
DWIDTH 13 0
BBX 15 14 1 0
BITMAP
03F0
07E0
0000
1F9E
3FDE
70FE
E07E
E07C
E078
E070
E070
70E0
3FC0
1F80
ENDCHAR
STARTCHAR uni1EE2
ENCODING 7906
SWIDTH 855 0
DWIDTH 17 0
BBX 19 17 1 -3
BITMAP
07E1E0
1FF9E0
3C3DE0
700EE0
F00FC0
E00780
E00700
E00700
E00700
F00F00
700E00
3C3C00
1FF800
07E000
000000
01C000
01C000
ENDCHAR
STARTCHAR uni1EE3
ENCODING 7907
SWIDTH 675 0
DWIDTH 13 0
BBX 15 14 1 -3
BITMAP
1F9E
3FDE
70FE
E07E
E07C
E078
E070
E070
70E0
3FC0
1F80
0000
0700
0700
ENDCHAR
STARTCHAR uni1EE4
ENCODING 7908
SWIDTH 783 0
DWIDTH 16 0
BBX 12 17 2 -3
BITMAP
E070
E070
E070
E070
E070
E070
E070
E070
E070
E070
E070
70E0
7FE0
1F80
0000
0700
0700
ENDCHAR
STARTCHAR uni1EE5
ENCODING 7909
SWIDTH 693 0
DWIDTH 14 0
BBX 11 14 1 -3
BITMAP
E0E0
E0E0
E0E0
E0E0
E0E0
E0E0
E0E0
E0E0
E1E0
7FE0
3CE0
0000
0E00
0E00
ENDCHAR
STARTCHAR uni1EE8
ENCODING 7912
SWIDTH 783 0
DWIDTH 16 0
BBX 15 17 2 0
BITMAP
00E0
0380
0000
E07E
E07E
E07E
E07E
E07C
E078
E070
E070
E070
E070
E070
70E0
7FE0
1F80
ENDCHAR
STARTCHAR uni1EE9
ENCODING 7913
SWIDTH 693 0
DWIDTH 14 0
BBX 14 14 1 0
BITMAP
00E0
0380
0000
E0FC
E0FC
E0FC
E0FC
E0F8
E0F0
E0E0
E0E0
E1E0
7FE0
3CE0
ENDCHAR
STARTCHAR uni1EEA
ENCODING 7914
SWIDTH 783 0
DWIDTH 16 0
BBX 15 17 2 0
BITMAP
0700
01C0
0000
E07E
E07E
E07E
E07E
E07C
E078
E070
E070
E070
E070
E070
70E0
7FE0
1F80
ENDCHAR
STARTCHAR uni1EEB
ENCODING 7915
SWIDTH 693 0
DWIDTH 14 0
BBX 14 14 1 0
BITMAP
0E00
0380
0000
E0FC
E0FC
E0FC
E0FC
E0F8
E0F0
E0E0
E0E0
E1E0
7FE0
3CE0
ENDCHAR
STARTCHAR uni1EEE
ENCODING 7918
SWIDTH 783 0
DWIDTH 16 0
BBX 15 17 2 0
BITMAP
03F0
07E0
0000
E07E
E07E
E07E
E07E
E07C
E078
E070
E070
E070
E070
E070
70E0
7FE0
1F80
ENDCHAR
STARTCHAR uni1EEF
ENCODING 7919
SWIDTH 693 0
DWIDTH 14 0
BBX 14 14 1 0
BITMAP
07E0
0FC0
0000
E0FC
E0FC
E0FC
E0FC
E0F8
E0F0
E0E0
E0E0
E1E0
7FE0
3CE0
ENDCHAR
STARTCHAR uni1EF0
ENCODING 7920
SWIDTH 783 0
DWIDTH 16 0
BBX 15 17 2 -3
BITMAP
E07E
E07E
E07E
E07E
E07C
E078
E070
E070
E070
E070
E070
70E0
7FE0
1F80
0000
0700
0700
ENDCHAR
STARTCHAR uni1EF1
ENCODING 7921
SWIDTH 693 0
DWIDTH 14 0
BBX 14 14 1 -3
BITMAP
E0FC
E0FC
E0FC
E0FC
E0F8
E0F0
E0E0
E0E0
E1E0
7FE0
3CE0
0000
0700
0700
ENDCHAR
STARTCHAR Ygrave
ENCODING 7922
SWIDTH 738 0
DWIDTH 15 0
BBX 13 17 1 0
BITMAP
1C00
0700
0000
F038
7830
3860
3CE0
1CC0
0FC0
0F80
0700
0700
0700
0700
0700
0700
0700
ENDCHAR
STARTCHAR ygrave
ENCODING 7923
SWIDTH 645 0
DWIDTH 13 0
BBX 12 18 0 -4
BITMAP
1C00
0700
0000
F070
7060
78E0
38C0
38C0
3D80
1D80
1F00
0F00
0E00
0E00
0E00
1C00
3C00
7800
ENDCHAR
STARTCHAR uni1EF4
ENCODING 7924
SWIDTH 738 0
DWIDTH 15 0
BBX 13 17 1 -3
BITMAP
F038
7830
3860
3CE0
1CC0
0FC0
0F80
0700
0700
0700
0700
0700
0700
0700
0000
0700
0700
ENDCHAR
STARTCHAR uni1EF5
ENCODING 7925
SWIDTH 645 0
DWIDTH 13 0
BBX 12 18 0 -7
BITMAP
F070
7060
78E0
38C0
38C0
3D80
1D80
1F00
0F00
0E00
0E00
0E00
1C00
3C00
7800
0000
1C00
1C00
ENDCHAR
STARTCHAR uni1EF8
ENCODING 7928
SWIDTH 738 0
DWIDTH 15 0
BBX 13 17 1 0
BITMAP
0FC0
1F80
0000
F038
7830
3860
3CE0
1CC0
0FC0
0F80
0700
0700
0700
0700
0700
0700
0700
ENDCHAR
STARTCHAR uni1EF9
ENCODING 7929
SWIDTH 645 0
DWIDTH 13 0
BBX 12 18 0 -4
BITMAP
0FC0
1F80
0000
F070
7060
78E0
38C0
38C0
3D80
1D80
1F00
0F00
0E00
0E00
0E00
1C00
3C00
7800
ENDCHAR
STARTCHAR uni2000
ENCODING 8192
SWIDTH 500 0
DWIDTH 10 0
BBX 1 1 0 0
BITMAP
00
ENDCHAR
STARTCHAR uni2001
ENCODING 8193
SWIDTH 1000 0
DWIDTH 19 0
BBX 1 1 0 0
BITMAP
00
ENDCHAR
STARTCHAR uni2002
ENCODING 8194
SWIDTH 500 0
DWIDTH 10 0
BBX 1 1 0 0
BITMAP
00
ENDCHAR
STARTCHAR uni2003
ENCODING 8195
SWIDTH 1000 0
DWIDTH 19 0
BBX 1 1 0 0
BITMAP
00
ENDCHAR
STARTCHAR uni2004
ENCODING 8196
SWIDTH 333 0
DWIDTH 6 0
BBX 1 1 0 0
BITMAP
00
ENDCHAR
STARTCHAR uni2005
ENCODING 8197
SWIDTH 250 0
DWIDTH 5 0
BBX 1 1 0 0
BITMAP
00
ENDCHAR
STARTCHAR uni2006
ENCODING 8198
SWIDTH 167 0
DWIDTH 3 0
BBX 1 1 0 0
BITMAP
00
ENDCHAR
STARTCHAR uni2007
ENCODING 8199
SWIDTH 687 0
DWIDTH 14 0
BBX 1 1 0 0
BITMAP
00
ENDCHAR
STARTCHAR uni2008
ENCODING 8200
SWIDTH 343 0
DWIDTH 7 0
BBX 1 1 0 0
BITMAP
00
ENDCHAR
STARTCHAR uni2009
ENCODING 8201
SWIDTH 200 0
DWIDTH 4 0
BBX 1 1 0 0
BITMAP
00
ENDCHAR
STARTCHAR uni200A
ENCODING 8202
SWIDTH 100 0
DWIDTH 2 0
BBX 1 1 0 0
BITMAP
00
ENDCHAR
STARTCHAR uni200B
ENCODING 8203
SWIDTH 0 0
DWIDTH 0 0
BBX 1 1 0 0
BITMAP
00
ENDCHAR
STARTCHAR uni2010
ENCODING 8208
SWIDTH 289 0
DWIDTH 6 0
BBX 4 2 1 6
BITMAP
F0
F0
ENDCHAR
STARTCHAR uni2011
ENCODING 8209
SWIDTH 289 0
DWIDTH 6 0
BBX 4 2 1 6
BITMAP
F0
F0
ENDCHAR
STARTCHAR figuredash
ENCODING 8210
SWIDTH 500 0
DWIDTH 10 0
BBX 9 2 1 6
BITMAP
FF80
FF80
ENDCHAR
STARTCHAR endash
ENCODING 8211
SWIDTH 500 0
DWIDTH 10 0
BBX 9 2 1 6
BITMAP
FF80
FF80
ENDCHAR
STARTCHAR emdash
ENCODING 8212
SWIDTH 1000 0
DWIDTH 20 0
BBX 19 1 1 6
BITMAP
FFFFE0
ENDCHAR
STARTCHAR afii00208
ENCODING 8213
SWIDTH 1000 0
DWIDTH 20 0
BBX 19 1 1 6
BITMAP
FFFFE0
ENDCHAR
STARTCHAR quoteleft
ENCODING 8216
SWIDTH 265 0
DWIDTH 5 0
BBX 4 6 1 8
BITMAP
30
60
F0
F0
F0
F0
ENDCHAR
STARTCHAR quoteright
ENCODING 8217
SWIDTH 265 0
DWIDTH 5 0
BBX 4 6 1 8
BITMAP
F0
F0
F0
70
60
C0
ENDCHAR
STARTCHAR quotesinglbase
ENCODING 8218
SWIDTH 265 0
DWIDTH 5 0
BBX 4 7 1 -3
BITMAP
F0
F0
F0
F0
70
60
C0
ENDCHAR
STARTCHAR quotereversed
ENCODING 8219
SWIDTH 265 0
DWIDTH 5 0
BBX 4 6 1 8
BITMAP
F0
F0
F0
E0
60
30
ENDCHAR
STARTCHAR quotedblleft
ENCODING 8220
SWIDTH 530 0
DWIDTH 11 0
BBX 9 6 1 8
BITMAP
6180
E300
C300
E380
E380
E380
ENDCHAR
STARTCHAR quotedblright
ENCODING 8221
SWIDTH 530 0
DWIDTH 11 0
BBX 9 6 1 8
BITMAP
E380
E380
E380
6180
6380
C300
ENDCHAR
STARTCHAR quotedblbase
ENCODING 8222
SWIDTH 530 0
DWIDTH 11 0
BBX 9 7 1 -3
BITMAP
E380
E380
E380
6180
6180
4300
C300
ENDCHAR
STARTCHAR uni201F
ENCODING 8223
SWIDTH 530 0
DWIDTH 11 0
BBX 9 6 1 8
BITMAP
E380
E380
E380
C300
E300
6180
ENDCHAR
STARTCHAR dagger
ENCODING 8224
SWIDTH 693 0
DWIDTH 14 0
BBX 9 17 2 -3
BITMAP
1C00
1C00
1C00
1C00
1C00
FF80
FF80
1C00
1C00
1C00
1C00
1C00
1C00
1C00
1C00
1C00
1C00
ENDCHAR
STARTCHAR daggerdbl
ENCODING 8225
SWIDTH 693 0
DWIDTH 14 0
BBX 9 17 2 -3
BITMAP
1C00
1C00
1C00
1C00
1C00
FF80
FF80
1C00
1C00
1C00
FF80
FF80
1C00
1C00
1C00
1C00
1C00
ENDCHAR
STARTCHAR bullet
ENCODING 8226
SWIDTH 687 0
DWIDTH 14 0
BBX 8 7 3 3
BITMAP
FF
FF
FF
FF
FF
FF
FF
ENDCHAR
STARTCHAR ellipsis
ENCODING 8230
SWIDTH 1000 0
DWIDTH 20 0
BBX 16 2 2 0
BITMAP
C183
C183
ENDCHAR
STARTCHAR perthousand
ENCODING 8240
SWIDTH 1313 0
DWIDTH 26 0
BBX 26 14 0 0
BITMAP
38070000
7C0E0000
CE1C0000
C6380000
C6300000
CE600000
7CE00000
39C00000
038F0F80
073FDFC0
0630D8C0
0C30D8C0
1C3FDFC0
380F0F80
ENDCHAR
STARTCHAR guilsinglleft
ENCODING 8249
SWIDTH 361 0
DWIDTH 7 0
BBX 6 9 1 1
BITMAP
08
1C
38
70
E0
70
38
1C
08
ENDCHAR
STARTCHAR guilsinglright
ENCODING 8250
SWIDTH 361 0
DWIDTH 7 0
BBX 6 9 1 1
BITMAP
40
E0
70
38
1C
38
70
E0
40
ENDCHAR
STARTCHAR fraction
ENCODING 8260
SWIDTH 93 0
DWIDTH 2 0
BBX 14 14 -5 0
BITMAP
001C
0038
0070
00E0
00C0
0180
0380
0700
0600
0C00
1C00
3800
7000
E000
ENDCHAR
STARTCHAR oneinferior
ENCODING 8321
SWIDTH 536 0
DWIDTH 8 0
BBX 3 9 -13 -5
BITMAP
E0
60
60
60
60
60
60
60
60
ENDCHAR
STARTCHAR twoinferior
ENCODING 8322
SWIDTH 536 0
DWIDTH 8 0
BBX 6 9 -12 -5
BITMAP
F8
8C
0C
0C
18
30
60
E0
FC
ENDCHAR
STARTCHAR threeinferior
ENCODING 8323
SWIDTH 536 0
DWIDTH 8 0
BBX 6 9 -13 -5
BITMAP
F8
0C
0C
08
78
1C
0C
8C
F8
ENDCHAR
STARTCHAR uni20A5
ENCODING 8357
SWIDTH 1006 0
DWIDTH 20 0
BBX 17 17 2 -3
BITMAP
000E00
000C00
001800
E79F00
EFFF80
F1F380
E1E380
E1E380
E1C380
E1C380
E1C380
E3C380
E3C380
E7C380
060000
0C0000
1C0000
ENDCHAR
STARTCHAR uni20A6
ENCODING 8358
SWIDTH 783 0
DWIDTH 16 0
BBX 12 14 2 0
BITMAP
E030
F030
F030
FFF0
FFF0
DE30
CE30
C730
C7B0
FFF0
FFF0
C0F0
C0F0
C070
ENDCHAR
STARTCHAR uni20A9
ENCODING 8361
SWIDTH 940 0
DWIDTH 19 0
BBX 18 14 0 0
BITMAP
E0E0C0
70E180
70E180
7FFF80
7FFF80
39F300
39F300
3B3B00
3B3B00
1FFE00
1FFE00
1F3E00
1E1E00
0E1C00
ENDCHAR
STARTCHAR Euro
ENCODING 8364
SWIDTH 726 0
DWIDTH 15 0
BBX 16 14 -2 0
BITMAP
00FF
03FF
0F83
FFF0
FFF0
1C00
1C00
1C00
1C00
FFF0
FFF0
0F81
03FF
01FE
ENDCHAR
STARTCHAR uni20AD
ENCODING 8365
SWIDTH 753 0
DWIDTH 15 0
BBX 13 14 2 0
BITMAP
E0F0
E0C0
E180
E380
E700
EE00
FFF8
FFF8
EF00
E780
E3C0
E1C0
E1E0
E0F8
ENDCHAR
STARTCHAR uni2103
ENCODING 8451
SWIDTH 955 0
DWIDTH 20 0
BBX 18 14 1 0
BITMAP
E03FC0
A0FFC0
E3E0C0
038000
078000
070000
070000
070000
070000
078000
038000
03E040
00FFC0
007F80
ENDCHAR
STARTCHAR uni2109
ENCODING 8457
SWIDTH 831 0
DWIDTH 17 0
BBX 15 14 1 0
BITMAP
E3FE
A3FE
E380
0380
0380
0380
03FC
03FC
0380
0380
0380
0380
0380
0380
ENDCHAR
STARTCHAR trademark
ENCODING 8482
SWIDTH 901 0
DWIDTH 18 0
BBX 17 7 0 7
BITMAP
FEF780
FEF780
38F780
38FF80
38FF80
38DB80
38C380
ENDCHAR
STARTCHAR uni212A
ENCODING 8490
SWIDTH 753 0
DWIDTH 15 0
BBX 13 14 2 0
BITMAP
E0F0
E0C0
E180
E380
E700
EE00
FC00
EE00
EF00
E780
E3C0
E1C0
E1E0
E0F8
ENDCHAR
STARTCHAR uni212B
ENCODING 8491
SWIDTH 773 0
DWIDTH 15 0
BBX 15 17 0 0
BITMAP
0380
0380
0000
0780
07C0
07C0
0DE0
0CE0
0CE0
1870
1870
3FF8
3FF8
3038
603C
601C
E01E
ENDCHAR
STARTCHAR uni2132
ENCODING 8498
SWIDTH 602 0
DWIDTH 12 0
BBX 9 14 2 0
BITMAP
0380
0380
0380
0380
0380
0380
7F80
7F80
0380
0380
0380
0380
FF80
FF80
ENDCHAR
STARTCHAR universal
ENCODING 8704
SWIDTH 773 0
DWIDTH 15 0
BBX 15 14 0 0
BITMAP
E01E
601C
603C
3038
3FF8
3FF8
1870
1870
0CE0
0CE0
0DE0
07C0
07C0
0780
ENDCHAR
STARTCHAR existential
ENCODING 8707
SWIDTH 645 0
DWIDTH 13 0
BBX 10 14 2 0
BITMAP
FFC0
FFC0
01C0
01C0
01C0
01C0
3FC0
3FC0
01C0
01C0
01C0
01C0
FFC0
FFC0
ENDCHAR
STARTCHAR uni2204
ENCODING 8708
SWIDTH 645 0
DWIDTH 13 0
BBX 12 17 1 -1
BITMAP
0070
0060
7FE0
7FE0
01E0
03E0
03E0
07E0
1FE0
1FE0
0CE0
1CE0
18E0
30E0
7FE0
7FE0
E000
ENDCHAR
STARTCHAR minus
ENCODING 8722
SWIDTH 687 0
DWIDTH 14 0
BBX 12 2 1 5
BITMAP
FFF0
FFF0
ENDCHAR
STARTCHAR fraction
ENCODING 8725
SWIDTH 93 0
DWIDTH 2 0
BBX 14 14 -5 0
BITMAP
001C
0038
0070
00E0
00C0
0180
0380
0700
0600
0C00
1C00
3800
7000
E000
ENDCHAR
STARTCHAR periodcentered
ENCODING 8729
SWIDTH 343 0
DWIDTH 14 0
BBX 3 2 5 6
BITMAP
E0
E0
ENDCHAR
STARTCHAR uni2236
ENCODING 8758
SWIDTH 343 0
DWIDTH 7 0
BBX 3 11 2 0
BITMAP
E0
E0
E0
00
00
00
00
00
E0
E0
E0
ENDCHAR
STARTCHAR uni2259
ENCODING 8793
SWIDTH 687 0
DWIDTH 14 0
BBX 12 11 1 2
BITMAP
0700
1DC0
0000
FFF0
FFF0
0000
0000
0000
0000
FFF0
FFF0
ENDCHAR
STARTCHAR uni225A
ENCODING 8794
SWIDTH 687 0
DWIDTH 14 0
BBX 12 11 1 2
BITMAP
1DC0
0700
0000
FFF0
FFF0
0000
0000
0000
0000
FFF0
FFF0
ENDCHAR
STARTCHAR notequal
ENCODING 8800
SWIDTH 687 0
DWIDTH 14 0
BBX 12 17 1 -2
BITMAP
0070
0060
00C0
00C0
0180
FFF0
FFF0
0700
0600
0E00
0C00
FFF0
FFF0
3000
3000
6000
E000
ENDCHAR
STARTCHAR equivalence
ENCODING 8801
SWIDTH 687 0
DWIDTH 14 0
BBX 12 8 0 2
BITMAP
FFF0
FFF0
0000
FFF0
FFF0
0000
FFF0
FFF0
ENDCHAR
STARTCHAR uni2262
ENCODING 8802
SWIDTH 687 0
DWIDTH 14 0
BBX 12 17 0 -2
BITMAP
0070
0060
00C0
00C0
0180
FFF0
FFF0
0700
FFF0
FFF0
0C00
FFF0
FFF0
3000
3000
6000
E000
ENDCHAR
STARTCHAR lessequal
ENCODING 8804
SWIDTH 687 0
DWIDTH 14 0
BBX 12 15 1 -3
BITMAP
0010
0070
01F0
07C0
1F00
FC00
7C00
1F00
07C0
01F0
0070
0010
0000
FFF0
FFF0
ENDCHAR
STARTCHAR greaterequal
ENCODING 8805
SWIDTH 687 0
DWIDTH 14 0
BBX 12 15 1 -3
BITMAP
8000
E000
F800
3E00
0F80
03E0
03F0
0F80
3E00
F800
E000
8000
0000
FFF0
FFF0
ENDCHAR
STARTCHAR uni226E
ENCODING 8814
SWIDTH 687 0
DWIDTH 14 0
BBX 12 17 1 -2
BITMAP
0070
0060
00C0
00D0
01F0
03F0
07C0
1F00
FE00
7E00
1F00
1FC0
19F0
3070
3010
6000
E000
ENDCHAR
STARTCHAR uni226F
ENCODING 8815
SWIDTH 687 0
DWIDTH 14 0
BBX 12 17 1 -2
BITMAP
0070
0060
00C0
80C0
E180
FB80
3F00
0F80
07E0
0FF0
0F80
3E00
F800
F000
B000
6000
E000
ENDCHAR
STARTCHAR uni2270
ENCODING 8816
SWIDTH 687 0
DWIDTH 14 0
BBX 12 17 1 -4
BITMAP
0070
0070
00F0
01F0
07C0
1F80
FF00
7F00
1F00
0FC0
0DF0
1C70
1810
3000
FFF0
FFF0
E000
ENDCHAR
STARTCHAR uni2271
ENCODING 8817
SWIDTH 687 0
DWIDTH 14 0
BBX 12 17 1 -4
BITMAP
0070
8060
E0C0
F8C0
3F80
0F80
03E0
07F0
0F80
3E00
FC00
FC00
9800
3000
FFF0
FFF0
E000
ENDCHAR
STARTCHAR fi
ENCODING -1
SWIDTH 711 0
DWIDTH 14 0
BBX 12 14 1 0
BITMAP
3FC0
7FC0
7000
FFF0
FFF0
7070
7070
7070
7070
7070
7070
7070
7070
7070
ENDCHAR
STARTCHAR fl
ENCODING -1
SWIDTH 711 0
DWIDTH 14 0
BBX 12 14 1 0
BITMAP
3FF0
7FF0
7070
FF70
FF70
7070
7070
7070
7070
7070
7070
7070
7070
7070
ENDCHAR
ENDFONT
